<svg height="1000" width="737.8982222869669" xmlns="http://www.w3.org/2000/svg">
 <path d="M475 335 L474 336 L472 342 L469 344 L467 348 L464 351 L461 353 L460 355 L456 360 L452 363 L448 368 L446 372 L441 379 L438 384 L437 385 L435 386 L432 388 L428 388 L427 388 L425 389 L423 388 L416 387 L411 385 L411 385 L411 384 L410 381 L409 378 L407 375 L404 371 L402 367 L400 363 L396 359 L393 357 L391 354 L389 351 L387 346 L384 342 L378 337 L377 337 L375 337 L375 337 L375 337 L376 335 L378 331 L382 327 L385 323 L390 315 L397 307 L405 301 L412 297 L415 295 L418 294 L420 294 L423 295 L428 298 L434 305 L441 311 L446 316 L458 324 L468 332 L473 334 L475 335 Z" fill="red" stroke="white" stroke-width="0.01">
 </path>
 <path d="M375 337 L375 337 L377 337 L378 337 L384 342 L387 346 L389 351 L391 354 L393 357 L396 359 L400 363 L402 367 L404 371 L407 375 L409 378 L410 381 L411 384 L411 385 L411 385 L409 385 L405 384 L401 384 L399 384 L397 384 L394 384 L391 385 L391 385 L388 387 L382 390 L374 393 L369 395 L365 396 L359 397 L352 397 L344 395 L335 393 L329 391 L326 390 L326 390 L323 387 L321 385 L320 383 L321 380 L320 378 L318 377 L318 377 L319 376 L321 374 L325 371 L330 366 L332 362 L338 356 L340 351 L341 347 L340 342 L340 338 L338 334 L338 333 L339 331 L342 328 L348 324 L351 322 L351 322 L351 322 L351 325 L352 326 L353 327 L356 328 L358 328 L360 329 L363 332 L365 335 L368 336 L371 337 L374 337 L375 337 Z" fill="red" stroke="white" stroke-width="0.01">
 </path>
 <path d="M189 176 L194 175 L198 174 L199 174 L199 174 L199 174 L197 176 L196 178 L196 179 L195 182 L194 186 L193 189 L193 192 L193 194 L193 194 L191 195 L188 199 L183 202 L175 208 L165 211 L155 214 L148 216 L143 217 L141 218 L139 219 L138 220 L136 221 L136 221 L135 220 L133 218 L131 216 L130 215 L127 213 L125 212 L123 211 L121 210 L120 210 L119 210 L118 211 L117 211 L115 211 L114 211 L112 210 L110 209 L107 207 L104 206 L100 204 L93 202 L85 200 L80 201 L76 202 L73 204 L71 205 L71 205 L66 203 L59 199 L57 198 L55 196 L54 195 L51 192 L50 191 L50 191 L52 191 L61 192 L69 193 L74 192 L78 191 L80 190 L80 190 L80 190 L82 189 L89 186 L93 185 L96 185 L101 186 L105 187 L108 187 L109 186 L113 182 L123 174 L129 171 L131 171 L137 169 L144 169 L150 169 L153 170 L155 171 L156 174 L159 178 L161 179 L164 180 L172 178 L176 177 L179 176 L185 176 L189 176 Z" fill="red" stroke="white" stroke-width="0.01">
 </path>
 <path d="M454 202 L453 202 L449 203 L445 205 L442 207 L440 209 L440 209 L439 209 L428 208 L417 208 L405 208 L394 209 L387 209 L385 209 L385 209 L384 205 L384 201 L384 198 L385 195 L387 192 L391 187 L395 181 L399 177 L400 175 L400 174 L399 174 L398 174 L397 175 L395 176 L394 175 L393 173 L392 171 L390 171 L388 170 L384 171 L379 172 L378 173 L377 172 L375 172 L375 173 L369 173 L367 173 L367 173 L368 171 L372 164 L376 158 L379 154 L381 152 L385 151 L388 150 L390 150 L391 149 L393 149 L394 147 L394 146 L394 144 L394 143 L394 141 L395 140 L396 140 L397 139 L397 137 L397 136 L398 135 L398 134 L400 134 L401 133 L401 132 L402 131 L403 129 L404 127 L405 127 L406 125 L407 123 L407 121 L407 121 L408 121 L409 120 L410 119 L411 118 L412 115 L414 112 L416 110 L419 109 L423 109 L426 109 L427 109 L427 109 L429 111 L433 116 L436 122 L437 126 L440 128 L443 130 L446 131 L452 132 L455 132 L456 133 L459 133 L462 135 L465 136 L465 136 L467 136 L468 136 L471 135 L472 134 L473 133 L474 132 L477 131 L478 131 L479 131 L481 132 L482 134 L484 136 L485 139 L485 143 L484 147 L483 150 L483 150 L481 155 L480 157 L479 157 L475 163 L473 167 L471 171 L468 175 L466 181 L464 185 L464 185 L464 186 L463 188 L461 192 L457 196 L455 200 L454 202 L454 202 Z" fill="red" stroke="white" stroke-width="0.01">
 </path>
 <path d="M367 173 L369 173 L375 173 L375 172 L377 172 L378 173 L379 172 L384 171 L388 170 L390 171 L392 171 L393 173 L394 175 L395 176 L397 175 L398 174 L399 174 L400 174 L400 175 L399 177 L395 181 L391 187 L387 192 L385 195 L384 198 L384 201 L384 205 L385 209 L385 209 L384 209 L377 210 L369 211 L361 214 L353 219 L348 221 L343 225 L337 229 L337 230 L337 230 L335 232 L330 236 L328 237 L328 237 L328 235 L327 232 L326 229 L324 227 L323 224 L322 222 L318 214 L315 206 L311 195 L308 188 L308 188 L310 186 L313 183 L317 181 L319 181 L321 181 L322 180 L322 180 L323 179 L324 178 L324 177 L324 175 L324 174 L324 173 L325 172 L326 171 L327 170 L327 170 L329 169 L331 168 L334 168 L336 168 L338 170 L339 171 L340 171 L341 171 L342 171 L342 171 L343 173 L345 179 L346 181 L348 184 L349 185 L349 184 L350 183 L350 182 L351 181 L352 180 L353 180 L356 181 L357 181 L359 181 L360 181 L361 180 L362 180 L365 178 L366 176 L367 173 Z" fill="red" stroke="white" stroke-width="0.01">
 </path>
 <path d="M205 237 L199 238 L193 240 L190 242 L188 244 L183 246 L177 247 L170 246 L162 245 L159 245 L155 246 L155 246 L155 245 L154 242 L153 239 L151 236 L148 232 L146 229 L143 226 L136 221 L136 221 L138 220 L139 219 L141 218 L143 217 L148 216 L155 214 L165 211 L175 208 L183 202 L188 199 L191 195 L193 194 L193 194 L193 196 L196 202 L201 212 L202 217 L203 222 L203 227 L204 233 L204 236 L205 237 Z" fill="red" stroke="white" stroke-width="0.01">
 </path>
 <path d="M189 60 L190 60 L195 62 L201 64 L201 64 L201 64 L201 64 L202 64 L202 64 L203 64 L204 64 L205 64 L205 65 L206 65 L209 66 L213 66 L215 67 L216 68 L216 68 L216 68 L217 68 L217 70 L218 71 L218 72 L218 74 L218 75 L217 76 L217 77 L216 78 L215 79 L212 79 L210 80 L208 81 L206 85 L205 90 L205 92 L206 96 L206 98 L207 100 L207 101 L208 102 L208 103 L208 103 L209 104 L209 106 L211 109 L213 115 L214 118 L214 119 L214 121 L215 122 L215 123 L214 125 L214 126 L214 127 L214 128 L215 129 L215 129 L215 130 L216 131 L217 134 L219 140 L220 143 L220 145 L221 147 L222 149 L223 151 L226 153 L228 155 L228 156 L228 157 L228 158 L227 159 L226 160 L225 161 L225 161 L223 161 L217 163 L216 164 L215 164 L214 165 L208 168 L205 171 L201 173 L199 174 L199 174 L199 174 L198 174 L194 175 L189 176 L189 176 L188 174 L187 174 L185 171 L183 170 L183 168 L183 166 L184 163 L184 162 L183 159 L183 157 L183 155 L183 154 L182 153 L181 151 L179 150 L177 150 L174 149 L173 149 L171 148 L170 147 L168 146 L167 146 L166 146 L165 146 L164 147 L162 149 L161 150 L159 151 L158 152 L156 152 L155 151 L154 149 L151 147 L149 146 L148 145 L146 144 L145 143 L142 144 L137 144 L135 144 L133 143 L133 142 L133 140 L134 135 L136 131 L138 128 L140 126 L141 125 L143 123 L144 121 L145 120 L146 119 L147 118 L147 117 L147 116 L147 116 L146 116 L144 116 L143 116 L142 115 L141 115 L141 115 L141 115 L141 110 L141 106 L141 106 L141 106 L141 106 L144 106 L148 109 L155 114 L160 120 L166 125 L170 129 L173 133 L176 138 L178 141 L180 142 L181 143 L182 144 L185 146 L187 146 L190 145 L195 143 L198 142 L201 141 L202 141 L204 138 L204 136 L204 135 L203 135 L200 133 L199 132 L197 130 L196 128 L196 126 L197 123 L197 121 L195 119 L195 116 L195 115 L195 113 L195 111 L195 109 L193 105 L192 102 L192 98 L191 95 L190 89 L190 87 L187 84 L185 78 L184 75 L183 72 L184 67 L185 64 L187 62 L188 61 L189 60 L189 60 Z" fill="red" stroke="white" stroke-width="0.01">
 </path>
 <path d="M258 183 L257 183 L257 183 L255 184 L254 184 L253 185 L253 186 L253 186 L253 188 L253 191 L253 193 L255 198 L256 200 L256 201 L259 207 L262 213 L266 218 L268 223 L270 224 L271 225 L274 226 L277 228 L280 230 L283 230 L284 231 L286 233 L286 234 L286 234 L282 238 L277 241 L274 245 L272 250 L269 252 L267 253 L267 253 L267 252 L265 244 L264 240 L263 239 L262 237 L261 236 L259 235 L257 235 L255 235 L254 235 L252 235 L250 235 L248 234 L247 233 L243 232 L241 231 L236 230 L230 231 L221 232 L214 235 L205 237 L205 237 L205 237 L204 236 L204 233 L203 227 L203 222 L202 217 L201 212 L196 202 L193 196 L193 194 L193 194 L193 192 L193 189 L194 186 L195 182 L196 179 L196 178 L197 176 L199 174 L199 174 L199 174 L199 174 L201 173 L205 171 L208 168 L214 165 L215 164 L216 164 L217 163 L223 161 L225 161 L225 161 L225 161 L227 161 L227 162 L229 164 L229 164 L230 163 L232 162 L234 163 L234 163 L234 164 L234 165 L233 166 L233 167 L233 168 L235 169 L238 170 L240 171 L243 171 L243 171 L244 172 L244 174 L245 176 L247 178 L252 181 L254 181 L256 182 L257 182 L258 183 L258 183 Z" fill="red" stroke="white" stroke-width="0.01">
 </path>
 <path d="M259 126 L259 126 L260 129 L263 132 L267 137 L270 141 L271 143 L273 147 L275 153 L277 158 L278 160 L278 160 L278 161 L278 161 L278 161 L278 162 L278 163 L278 166 L278 169 L277 175 L276 178 L276 179 L276 180 L276 180 L276 180 L275 183 L274 185 L273 185 L272 186 L271 186 L269 186 L267 186 L265 185 L263 184 L262 184 L261 184 L258 183 L258 183 L258 183 L258 183 L257 182 L256 182 L254 181 L252 181 L247 178 L245 176 L244 174 L244 172 L243 171 L243 171 L240 171 L238 170 L235 169 L233 168 L233 167 L233 166 L234 165 L234 164 L234 163 L234 163 L232 162 L230 163 L229 164 L229 164 L227 162 L227 161 L225 161 L225 161 L225 161 L226 160 L227 159 L228 158 L228 157 L228 156 L228 155 L226 153 L223 151 L222 149 L221 147 L220 145 L220 143 L219 140 L217 134 L216 131 L215 130 L215 129 L215 129 L215 129 L217 129 L219 129 L220 128 L222 127 L222 127 L223 126 L224 126 L225 127 L227 127 L228 127 L232 128 L234 128 L235 128 L236 128 L241 126 L244 125 L246 126 L249 126 L250 127 L252 127 L254 126 L256 126 L259 126 Z" fill="red" stroke="white" stroke-width="0.01">
 </path>
 <path d="M246 49 L245 50 L242 50 L239 51 L235 51 L233 51 L231 52 L230 54 L230 55 L229 56 L229 56 L228 57 L229 58 L230 58 L230 59 L232 59 L233 60 L233 61 L235 61 L235 62 L236 63 L236 63 L235 64 L233 64 L229 63 L226 64 L222 64 L221 64 L220 65 L219 66 L218 66 L217 67 L216 68 L216 68 L216 68 L215 67 L213 66 L209 66 L206 65 L205 65 L205 64 L204 64 L203 64 L202 64 L202 64 L201 64 L201 64 L202 63 L202 62 L203 62 L204 62 L204 61 L205 61 L205 60 L205 59 L205 58 L206 58 L206 57 L205 57 L205 56 L205 56 L204 55 L203 55 L202 54 L202 54 L202 53 L203 53 L203 53 L204 54 L205 53 L205 52 L204 51 L205 50 L206 50 L207 50 L207 50 L207 48 L207 46 L206 45 L205 44 L204 42 L204 41 L202 41 L201 40 L195 38 L189 37 L184 37 L179 37 L179 37 L178 37 L174 37 L173 37 L173 37 L173 37 L173 36 L172 35 L172 34 L172 31 L172 30 L171 27 L170 24 L171 20 L171 17 L171 14 L172 12 L172 12 L177 13 L181 14 L189 16 L196 17 L200 17 L201 17 L205 16 L208 14 L209 13 L210 13 L212 11 L214 11 L215 10 L216 9 L217 8 L218 8 L219 7 L220 6 L220 6 L221 5 L222 5 L224 4 L226 3 L226 3 L226 3 L226 2 L226 2 L227 2 L228 1 L228 1 L228 1 L230 0 L230 0 L232 0 L233 0 L234 0 L235 0 L236 1 L236 1 L237 2 L238 2 L238 2 L239 3 L240 4 L241 5 L242 6 L242 6 L242 6 L243 7 L244 7 L245 8 L245 9 L245 10 L245 11 L245 12 L245 12 L243 13 L243 13 L242 13 L241 14 L241 14 L240 15 L240 15 L240 16 L240 17 L240 17 L240 19 L241 20 L241 20 L241 21 L242 21 L243 23 L244 24 L244 24 L244 25 L244 25 L245 26 L245 27 L245 28 L245 28 L246 29 L246 29 L245 30 L245 33 L245 34 L245 34 L245 35 L245 36 L245 37 L246 38 L246 39 L246 41 L246 43 L245 44 L245 45 L245 46 L245 47 L245 48 L245 48 L245 49 L246 49 Z" fill="red" stroke="white" stroke-width="0.01">
 </path>
 <path d="M140 79 L139 81 L137 82 L133 86 L129 89 L127 92 L125 95 L125 97 L126 99 L128 100 L128 101 L129 102 L131 102 L133 103 L134 105 L135 105 L137 106 L139 106 L141 106 L141 106 L141 106 L141 110 L141 115 L141 115 L141 115 L141 118 L139 120 L138 123 L136 126 L134 128 L133 130 L133 132 L133 134 L132 136 L130 138 L129 138 L129 139 L130 141 L130 142 L130 143 L128 143 L128 142 L127 141 L126 140 L126 139 L125 139 L124 140 L124 141 L122 143 L121 144 L120 144 L118 144 L117 143 L115 142 L113 140 L111 139 L110 139 L109 139 L108 139 L106 141 L104 143 L101 145 L96 147 L94 148 L91 150 L90 150 L89 150 L88 150 L87 149 L85 149 L84 149 L84 149 L83 148 L82 147 L81 147 L81 147 L80 147 L79 148 L78 149 L78 149 L78 149 L77 148 L76 146 L75 144 L75 144 L75 144 L77 143 L78 141 L78 139 L77 136 L75 132 L73 128 L72 125 L73 121 L75 119 L78 118 L82 117 L87 114 L92 109 L96 105 L98 100 L101 97 L104 93 L107 92 L111 90 L115 88 L121 84 L126 81 L129 79 L132 79 L134 78 L138 79 L140 79 Z" fill="red" stroke="white" stroke-width="0.01">
 </path>
 <path d="M475 335 L473 334 L468 332 L458 324 L446 316 L441 311 L434 305 L428 298 L423 295 L420 294 L418 294 L415 295 L412 297 L405 301 L397 307 L390 315 L385 323 L382 327 L378 331 L376 335 L375 337 L375 337 L374 337 L371 337 L368 336 L365 335 L363 332 L360 329 L358 328 L356 328 L353 327 L352 326 L351 325 L351 322 L351 322 L351 322 L352 321 L354 317 L354 314 L354 310 L354 307 L353 304 L351 299 L347 295 L344 292 L343 290 L343 289 L343 289 L344 288 L347 287 L354 284 L363 281 L367 279 L374 275 L380 272 L383 271 L383 271 L385 269 L389 267 L393 265 L397 263 L400 263 L402 264 L404 266 L406 267 L408 267 L410 266 L415 260 L419 254 L429 242 L432 238 L433 237 L434 233 L438 225 L443 218 L444 216 L445 213 L444 212 L443 210 L442 209 L441 209 L440 209 L440 209 L442 207 L445 205 L449 203 L453 202 L454 202 L454 202 L455 204 L455 205 L456 207 L457 210 L461 218 L464 222 L468 233 L470 240 L472 247 L475 252 L480 260 L485 268 L490 273 L495 276 L501 277 L509 278 L514 277 L521 276 L528 277 L532 279 L526 282 L516 291 L508 298 L502 303 L497 305 L496 306 L494 307 L491 310 L483 319 L478 327 L475 335 Z" fill="red" stroke="white" stroke-width="0.01">
 </path>
 <path d="M201 64 L201 64 L201 64 L195 62 L190 60 L189 60 L189 60 L189 59 L187 55 L186 51 L184 48 L184 46 L184 44 L182 42 L179 37 L179 37 L184 37 L189 37 L195 38 L201 40 L202 41 L204 41 L204 42 L205 44 L206 45 L207 46 L207 48 L207 50 L207 50 L206 50 L205 50 L204 51 L205 52 L205 53 L204 54 L203 53 L203 53 L202 53 L202 54 L202 54 L203 55 L204 55 L205 56 L205 56 L205 57 L206 57 L206 58 L205 58 L205 59 L205 60 L205 61 L204 61 L204 62 L203 62 L202 62 L202 63 L201 64 Z" fill="red" stroke="white" stroke-width="0.01">
 </path>
 <path d="M255 85 L255 85 L253 86 L252 86 L251 87 L248 87 L246 87 L244 86 L238 84 L233 83 L231 83 L230 84 L228 85 L228 86 L228 88 L228 91 L228 93 L229 95 L229 97 L229 99 L229 100 L228 100 L226 101 L222 101 L218 102 L213 103 L211 103 L208 103 L208 103 L208 102 L207 101 L207 100 L206 98 L206 96 L205 92 L205 90 L206 85 L208 81 L210 80 L212 79 L215 79 L216 78 L217 77 L217 76 L218 75 L218 74 L218 72 L218 71 L217 70 L217 68 L216 68 L216 68 L217 67 L218 66 L219 66 L220 65 L221 64 L222 64 L226 64 L229 63 L233 64 L235 64 L236 63 L236 63 L235 62 L235 61 L233 61 L233 60 L232 59 L230 59 L230 58 L229 58 L228 57 L229 56 L229 56 L230 55 L230 54 L231 52 L233 51 L235 51 L239 51 L242 50 L245 50 L246 49 L246 49 L246 50 L247 51 L247 52 L247 52 L247 53 L247 55 L247 57 L248 59 L248 60 L248 61 L248 63 L249 67 L249 70 L250 73 L251 78 L253 81 L254 83 L255 85 L255 85 Z" fill="red" stroke="white" stroke-width="0.01">
 </path>
 <path d="M343 289 L343 290 L344 292 L347 295 L351 299 L353 304 L354 307 L354 310 L354 314 L354 317 L352 321 L351 322 L351 322 L348 324 L342 328 L339 331 L338 333 L338 334 L340 338 L340 342 L341 347 L340 351 L338 356 L332 362 L330 366 L325 371 L321 374 L319 376 L318 377 L318 377 L318 377 L314 374 L312 371 L312 369 L310 367 L309 367 L308 368 L304 371 L300 371 L294 372 L291 372 L288 370 L285 369 L283 370 L282 371 L279 375 L279 376 L279 376 L279 374 L278 373 L277 370 L276 367 L276 365 L277 363 L279 359 L282 356 L284 354 L284 354 L286 352 L289 350 L296 344 L302 341 L304 337 L305 333 L306 324 L306 319 L305 313 L304 311 L303 310 L302 310 L301 311 L299 311 L298 311 L297 309 L296 309 L294 308 L292 307 L290 306 L290 304 L290 302 L289 300 L288 299 L288 298 L289 297 L289 296 L289 294 L289 293 L289 293 L288 292 L287 291 L284 290 L282 289 L279 288 L279 288 L280 285 L280 283 L280 282 L278 281 L278 281 L278 281 L279 281 L283 281 L283 281 L287 280 L290 280 L291 279 L291 279 L292 279 L293 279 L294 279 L297 281 L302 283 L306 283 L309 282 L311 282 L312 282 L314 282 L316 282 L317 282 L319 282 L322 282 L326 282 L329 282 L332 282 L334 283 L337 284 L341 287 L343 289 Z" fill="red" stroke="white" stroke-width="0.01">
 </path>
 <path d="M189 176 L185 176 L179 176 L176 177 L172 178 L164 180 L161 179 L159 178 L156 174 L155 171 L153 170 L150 169 L144 169 L137 169 L131 171 L129 171 L123 174 L113 182 L109 186 L108 187 L105 187 L101 186 L96 185 L93 185 L89 186 L82 189 L80 190 L80 190 L80 190 L79 189 L78 186 L77 181 L77 178 L77 175 L78 170 L79 164 L81 160 L81 158 L80 156 L78 152 L77 149 L78 149 L78 149 L78 149 L79 148 L80 147 L81 147 L81 147 L82 147 L83 148 L84 149 L84 149 L85 149 L87 149 L88 150 L89 150 L90 150 L91 150 L94 148 L96 147 L101 145 L104 143 L106 141 L108 139 L109 139 L110 139 L111 139 L113 140 L115 142 L117 143 L118 144 L120 144 L121 144 L122 143 L124 141 L124 140 L125 139 L126 139 L126 140 L127 141 L128 142 L128 143 L130 143 L130 142 L130 141 L129 139 L129 138 L130 138 L132 136 L133 134 L133 132 L133 130 L134 128 L136 126 L138 123 L139 120 L141 118 L141 115 L141 115 L142 115 L143 116 L144 116 L146 116 L147 116 L147 116 L147 117 L147 118 L146 119 L145 120 L144 121 L143 123 L141 125 L140 126 L138 128 L136 131 L134 135 L133 140 L133 142 L133 143 L135 144 L137 144 L142 144 L145 143 L146 144 L148 145 L149 146 L151 147 L154 149 L155 151 L156 152 L158 152 L159 151 L161 150 L162 149 L164 147 L165 146 L166 146 L167 146 L168 146 L170 147 L171 148 L173 149 L174 149 L177 150 L179 150 L181 151 L182 153 L183 154 L183 155 L183 157 L183 159 L184 162 L184 163 L183 166 L183 168 L183 170 L185 171 L187 174 L188 174 L189 176 Z" fill="red" stroke="white" stroke-width="0.01">
 </path>
 <path d="M75 144 L76 146 L77 148 L78 149 L78 149 L77 149 L78 152 L80 156 L81 158 L81 160 L79 164 L78 170 L77 175 L77 178 L77 181 L78 186 L79 189 L80 190 L80 190 L78 191 L74 192 L69 193 L61 192 L52 191 L50 191 L50 191 L48 189 L42 185 L32 183 L24 182 L20 182 L17 181 L17 180 L16 180 L12 180 L10 180 L9 181 L8 182 L8 182 L8 182 L3 176 L1 165 L1 161 L0 155 L0 155 L0 154 L3 146 L5 141 L8 135 L10 132 L14 127 L21 119 L23 117 L28 112 L29 110 L30 110 L35 108 L36 107 L38 106 L44 102 L44 102 L44 104 L44 106 L44 108 L44 110 L44 112 L45 114 L46 116 L47 121 L49 125 L52 128 L53 130 L56 132 L57 133 L59 135 L60 137 L62 140 L64 142 L66 144 L67 145 L69 145 L71 145 L73 145 L75 144 Z" fill="red" stroke="white" stroke-width="0.01">
 </path>
 <path d="M359 127 L359 128 L358 131 L354 134 L347 139 L341 142 L337 145 L332 149 L325 154 L323 156 L320 159 L319 161 L318 164 L318 166 L319 167 L322 169 L324 170 L327 170 L327 170 L326 171 L325 172 L324 173 L324 174 L324 175 L324 177 L324 178 L323 179 L322 180 L322 180 L321 181 L319 181 L317 181 L313 183 L310 186 L308 188 L308 188 L307 182 L303 170 L300 161 L298 158 L295 155 L293 151 L288 143 L286 139 L284 133 L282 126 L282 126 L282 125 L282 125 L282 125 L282 123 L281 122 L281 121 L282 120 L284 117 L286 116 L289 116 L297 112 L299 110 L302 106 L303 104 L303 104 L303 104 L304 104 L305 104 L308 104 L311 102 L313 102 L317 101 L319 101 L322 101 L326 103 L329 104 L331 105 L332 106 L335 109 L336 110 L339 113 L344 117 L350 121 L354 123 L356 124 L358 125 L359 127 Z" fill="red" stroke="white" stroke-width="0.01">
 </path>
 <path d="M407 121 L407 123 L406 125 L405 127 L404 127 L403 129 L402 131 L401 132 L401 133 L400 134 L398 134 L398 135 L397 136 L397 137 L397 139 L396 140 L395 140 L394 141 L394 143 L394 144 L394 146 L394 147 L393 149 L391 149 L390 150 L388 150 L385 151 L381 152 L379 154 L376 158 L372 164 L368 171 L367 173 L367 173 L366 176 L365 178 L362 180 L361 180 L360 181 L359 181 L357 181 L356 181 L353 180 L352 180 L351 181 L350 182 L350 183 L349 184 L349 185 L348 184 L346 181 L345 179 L343 173 L342 171 L342 171 L341 171 L340 171 L339 171 L338 170 L336 168 L334 168 L331 168 L329 169 L327 170 L327 170 L324 170 L322 169 L319 167 L318 166 L318 164 L319 161 L320 159 L323 156 L325 154 L332 149 L337 145 L341 142 L347 139 L354 134 L358 131 L359 128 L359 127 L359 127 L360 126 L362 123 L365 121 L369 118 L370 117 L371 115 L373 114 L374 114 L385 112 L395 112 L400 114 L402 115 L405 116 L405 117 L406 118 L407 120 L407 121 Z" fill="red" stroke="white" stroke-width="0.01">
 </path>
 <path d="M179 37 L182 42 L184 44 L184 46 L184 48 L186 51 L187 55 L189 59 L189 60 L189 60 L189 60 L188 61 L187 62 L185 64 L184 67 L183 72 L184 75 L185 78 L187 84 L190 87 L190 89 L191 95 L192 98 L192 102 L193 105 L195 109 L195 111 L195 113 L195 115 L195 116 L195 119 L197 121 L197 123 L196 126 L196 128 L197 130 L199 132 L200 133 L203 135 L204 135 L204 136 L204 138 L202 141 L201 141 L198 142 L195 143 L190 145 L187 146 L185 146 L182 144 L181 143 L180 142 L178 141 L176 138 L173 133 L170 129 L166 125 L160 120 L155 114 L148 109 L144 106 L141 106 L141 106 L141 106 L139 106 L137 106 L135 105 L134 105 L133 103 L131 102 L129 102 L128 101 L128 100 L126 99 L125 97 L125 95 L127 92 L129 89 L133 86 L137 82 L139 81 L140 79 L140 79 L141 79 L145 79 L150 78 L154 75 L158 71 L158 69 L158 66 L158 62 L158 60 L159 58 L162 54 L164 51 L167 46 L169 42 L170 40 L172 38 L173 38 L173 37 L173 37 L174 37 L178 37 L179 37 Z" fill="red" stroke="white" stroke-width="0.01">
 </path>
 <path d="M255 85 L255 85 L255 86 L256 88 L258 94 L260 103 L260 104 L260 107 L260 108 L260 110 L260 114 L259 120 L259 124 L259 126 L259 126 L256 126 L254 126 L252 127 L250 127 L249 126 L246 126 L244 125 L241 126 L236 128 L235 128 L234 128 L232 128 L228 127 L227 127 L225 127 L224 126 L223 126 L222 127 L222 127 L220 128 L219 129 L217 129 L215 129 L215 129 L215 129 L214 128 L214 127 L214 126 L214 125 L215 123 L215 122 L214 121 L214 119 L214 118 L213 115 L211 109 L209 106 L209 104 L208 103 L208 103 L211 103 L213 103 L218 102 L222 101 L226 101 L228 100 L229 100 L229 99 L229 97 L229 95 L228 93 L228 91 L228 88 L228 86 L228 85 L230 84 L231 83 L233 83 L238 84 L244 86 L246 87 L248 87 L251 87 L252 86 L253 86 L255 85 L255 85 Z" fill="red" stroke="white" stroke-width="0.01">
 </path>
 <path d="M136 221 L143 226 L146 229 L148 232 L151 236 L153 239 L154 242 L155 245 L155 246 L155 246 L151 247 L148 248 L143 249 L143 249 L137 249 L133 249 L129 249 L125 249 L124 249 L117 253 L110 256 L107 257 L100 261 L99 262 L96 263 L95 261 L94 257 L90 244 L90 244 L90 244 L86 229 L83 220 L81 216 L78 210 L73 207 L71 205 L71 205 L73 204 L76 202 L80 201 L85 200 L93 202 L100 204 L104 206 L107 207 L110 209 L112 210 L114 211 L115 211 L117 211 L118 211 L119 210 L120 210 L121 210 L123 211 L125 212 L127 213 L130 215 L131 216 L133 218 L135 220 L136 221 Z" fill="red" stroke="white" stroke-width="0.01">
 </path>
 <path d="M440 209 L441 209 L442 209 L443 210 L444 212 L445 213 L444 216 L443 218 L438 225 L434 233 L433 237 L432 238 L429 242 L419 254 L415 260 L410 266 L408 267 L406 267 L404 266 L402 264 L400 263 L397 263 L393 265 L389 267 L385 269 L383 271 L383 271 L382 268 L383 266 L383 262 L383 259 L382 258 L380 256 L375 252 L371 248 L367 244 L366 242 L363 240 L360 239 L357 238 L352 237 L349 236 L343 235 L341 234 L337 231 L337 230 L337 230 L337 229 L343 225 L348 221 L353 219 L361 214 L369 211 L377 210 L384 209 L385 209 L385 209 L387 209 L394 209 L405 208 L417 208 L428 208 L439 209 L440 209 Z" fill="red" stroke="white" stroke-width="0.01">
 </path>
 <path d="M172 12 L171 14 L171 17 L171 20 L170 24 L171 27 L172 30 L172 31 L172 34 L172 35 L173 36 L173 37 L173 37 L173 37 L173 38 L172 38 L170 40 L169 42 L167 46 L164 51 L162 54 L159 58 L158 60 L158 62 L158 66 L158 69 L158 71 L154 75 L150 78 L145 79 L141 79 L140 79 L140 79 L138 79 L134 78 L132 79 L129 79 L126 81 L121 84 L115 88 L111 90 L107 92 L104 93 L101 97 L98 100 L96 105 L92 109 L87 114 L82 117 L78 118 L75 119 L73 121 L72 125 L73 128 L75 132 L77 136 L78 139 L78 141 L77 143 L75 144 L75 144 L75 144 L73 145 L71 145 L69 145 L67 145 L66 144 L64 142 L62 140 L60 137 L59 135 L57 133 L56 132 L53 130 L52 128 L49 125 L47 121 L46 116 L45 114 L44 112 L44 110 L44 108 L44 106 L44 104 L44 102 L44 102 L50 98 L55 94 L57 91 L60 84 L61 81 L62 79 L62 76 L62 71 L60 62 L58 57 L58 55 L58 53 L58 51 L58 50 L58 48 L60 45 L61 42 L64 37 L65 36 L65 36 L69 31 L75 24 L77 23 L80 19 L80 19 L80 20 L80 20 L83 22 L85 22 L88 21 L92 20 L93 19 L96 18 L98 16 L102 12 L103 12 L103 11 L106 9 L107 9 L108 8 L108 8 L109 8 L110 8 L111 7 L111 6 L111 6 L112 6 L113 5 L115 5 L121 3 L123 3 L123 3 L124 3 L127 3 L129 4 L131 5 L133 6 L135 6 L136 6 L136 6 L137 5 L139 4 L140 3 L143 3 L144 3 L146 3 L147 3 L148 5 L150 8 L151 10 L151 10 L153 10 L154 10 L157 10 L159 10 L160 10 L160 10 L168 11 L172 12 Z" fill="red" stroke="white" stroke-width="0.01">
 </path>
 <path d="M284 354 L281 354 L276 354 L270 354 L265 354 L261 353 L258 353 L256 352 L253 352 L251 352 L249 351 L246 351 L245 350 L243 350 L240 350 L238 350 L236 350 L231 350 L227 350 L225 349 L223 349 L221 348 L220 347 L219 346 L217 345 L216 344 L215 343 L214 342 L210 337 L209 337 L208 336 L205 334 L205 334 L207 331 L212 327 L214 326 L221 323 L227 321 L228 320 L238 317 L242 313 L249 308 L251 305 L256 301 L260 297 L267 295 L273 294 L279 290 L279 288 L279 288 L279 288 L282 289 L284 290 L287 291 L288 292 L289 293 L289 293 L289 294 L289 296 L289 297 L288 298 L288 299 L289 300 L290 302 L290 304 L290 306 L292 307 L294 308 L296 309 L297 309 L298 311 L299 311 L301 311 L302 310 L303 310 L304 311 L305 313 L306 319 L306 324 L305 333 L304 337 L302 341 L296 344 L289 350 L286 352 L284 354 Z" fill="red" stroke="white" stroke-width="0.01">
 </path>
 <path d="M284 354 L282 356 L279 359 L277 363 L276 365 L276 367 L277 370 L278 373 L279 374 L279 376 L279 376 L278 379 L279 382 L280 388 L279 391 L278 392 L277 393 L275 393 L273 392 L271 392 L262 391 L257 392 L255 392 L253 393 L247 394 L243 395 L239 395 L228 395 L223 396 L220 396 L218 397 L216 398 L213 399 L213 399 L203 401 L202 401 L202 401 L200 389 L199 381 L190 367 L190 366 L189 364 L189 363 L188 362 L193 355 L203 338 L205 334 L205 334 L208 336 L209 337 L210 337 L214 342 L215 343 L216 344 L217 345 L219 346 L220 347 L221 348 L223 349 L225 349 L227 350 L231 350 L236 350 L238 350 L240 350 L243 350 L245 350 L246 351 L249 351 L251 352 L253 352 L256 352 L258 353 L261 353 L265 354 L270 354 L276 354 L281 354 L284 354 Z" fill="red" stroke="white" stroke-width="0.01">
 </path>
 <path d="M427 109 L426 109 L423 109 L419 109 L416 110 L414 112 L412 115 L411 118 L410 119 L409 120 L408 121 L407 121 L407 121 L407 120 L406 118 L405 117 L405 116 L402 115 L400 114 L395 112 L385 112 L374 114 L373 114 L371 115 L370 117 L369 118 L365 121 L362 123 L360 126 L359 127 L359 127 L358 125 L356 124 L354 123 L350 121 L344 117 L339 113 L336 110 L335 109 L332 106 L331 105 L329 104 L326 103 L322 101 L319 101 L317 101 L313 102 L311 102 L308 104 L305 104 L304 104 L303 104 L303 104 L302 101 L301 97 L301 94 L304 95 L305 95 L306 94 L309 91 L312 90 L316 88 L321 85 L325 80 L330 77 L333 76 L336 75 L337 75 L342 74 L347 72 L348 72 L352 71 L355 71 L358 71 L358 71 L362 74 L366 76 L369 77 L371 78 L373 78 L375 79 L377 80 L381 83 L384 84 L386 84 L395 88 L400 90 L408 92 L414 94 L416 95 L416 95 L418 97 L420 101 L423 104 L426 108 L427 109 Z" fill="red" stroke="white" stroke-width="0.01">
 </path>
 <path d="M383 271 L380 272 L374 275 L367 279 L363 281 L354 284 L347 287 L344 288 L343 289 L343 289 L341 287 L337 284 L334 283 L332 282 L329 282 L326 282 L322 282 L319 282 L317 282 L316 282 L314 282 L312 282 L311 282 L309 282 L306 283 L302 283 L297 281 L294 279 L293 279 L292 279 L291 279 L291 279 L290 280 L287 280 L283 281 L283 281 L279 281 L278 281 L278 281 L275 279 L274 276 L272 274 L271 274 L269 273 L268 271 L267 269 L267 266 L267 266 L267 264 L267 262 L267 262 L267 260 L267 256 L267 255 L267 254 L267 253 L267 253 L269 252 L272 250 L274 245 L277 241 L282 238 L286 234 L286 234 L287 236 L288 239 L290 244 L292 248 L294 250 L298 250 L300 250 L303 250 L305 249 L305 249 L308 250 L309 250 L311 250 L313 249 L317 248 L317 248 L317 248 L318 247 L321 246 L323 244 L326 241 L328 238 L328 237 L328 237 L330 236 L335 232 L337 230 L337 230 L337 231 L341 234 L343 235 L349 236 L352 237 L357 238 L360 239 L363 240 L366 242 L367 244 L371 248 L375 252 L380 256 L382 258 L383 259 L383 262 L383 266 L382 268 L383 271 Z" fill="red" stroke="white" stroke-width="0.01">
 </path>
 <path d="M472 491 L472 491 L473 494 L473 496 L473 502 L474 508 L475 509 L477 511 L480 513 L481 516 L480 520 L477 523 L474 525 L473 527 L473 530 L470 533 L467 537 L465 539 L465 541 L465 541 L465 541 L464 543 L464 543 L463 544 L461 545 L460 546 L458 546 L458 546 L458 546 L456 544 L452 543 L443 541 L438 540 L436 538 L436 538 L434 537 L432 536 L432 536 L430 537 L429 537 L426 537 L422 534 L418 532 L416 530 L414 527 L414 527 L414 527 L414 525 L414 521 L414 514 L415 510 L417 508 L420 500 L420 496 L421 493 L420 491 L421 489 L421 487 L422 486 L423 485 L423 485 L423 485 L424 485 L430 484 L438 484 L446 486 L452 486 L463 489 L469 490 L472 491 Z" fill="red" stroke="white" stroke-width="0.01">
 </path>
 <path d="M495 639 L495 641 L495 646 L494 657 L494 663 L494 665 L494 665 L492 673 L491 678 L489 682 L489 687 L489 692 L488 695 L488 695 L486 692 L484 689 L482 685 L480 677 L479 673 L479 669 L479 664 L480 658 L480 653 L481 648 L482 648 L482 647 L482 647 L483 647 L484 647 L490 642 L493 640 L495 639 L495 639 L495 639 Z" fill="red" stroke="white" stroke-width="0.01">
 </path>
 <path d="M548 724 L546 722 L544 720 L541 719 L539 717 L536 716 L533 715 L531 715 L527 714 L527 714 L531 709 L539 701 L542 699 L544 697 L544 696 L544 696 L550 698 L557 699 L566 700 L572 701 L573 701 L573 705 L573 705 L573 711 L572 717 L571 718 L569 718 L567 718 L564 718 L560 718 L557 718 L553 721 L549 723 L548 724 L548 724 Z" fill="red" stroke="white" stroke-width="0.01">
 </path>
 <path d="M543 540 L544 540 L544 540 L545 540 L545 540 L546 541 L547 541 L549 542 L550 543 L550 544 L552 545 L552 546 L552 547 L552 549 L552 550 L550 553 L548 554 L547 554 L544 553 L542 552 L540 550 L539 547 L538 546 L537 546 L535 547 L534 548 L532 548 L529 549 L526 549 L522 548 L518 546 L513 543 L510 543 L510 543 L510 541 L512 534 L514 528 L517 519 L521 512 L524 508 L525 505 L527 504 L528 503 L529 501 L529 500 L529 498 L530 497 L530 496 L533 493 L535 492 L535 492 L535 493 L535 496 L535 499 L535 501 L537 508 L537 512 L537 514 L537 517 L537 520 L539 531 L541 539 L542 541 L542 541 L543 540 L543 540 Z" fill="red" stroke="white" stroke-width="0.01">
 </path>
 <path d="M458 546 L460 549 L461 554 L462 559 L463 564 L465 572 L465 573 L465 573 L464 572 L463 573 L461 573 L460 574 L459 576 L458 578 L458 580 L459 584 L459 585 L459 587 L459 588 L455 591 L454 593 L453 594 L453 597 L452 599 L451 602 L450 604 L448 606 L444 608 L442 612 L442 612 L442 612 L438 611 L436 610 L431 607 L429 604 L428 603 L428 602 L429 601 L429 593 L429 587 L430 582 L430 577 L430 574 L430 572 L430 569 L431 566 L433 564 L434 563 L435 562 L435 561 L434 560 L433 560 L432 560 L431 561 L430 561 L429 560 L429 559 L431 551 L433 548 L434 545 L434 543 L435 540 L436 538 L436 538 L438 540 L443 541 L452 543 L456 544 L458 546 L458 546 Z" fill="red" stroke="white" stroke-width="0.01">
 </path>
 <path d="M403 855 L405 860 L406 865 L406 868 L406 869 L406 870 L405 870 L404 871 L402 870 L397 871 L391 872 L389 871 L387 871 L384 867 L382 866 L382 866 L382 866 L382 866 L381 864 L378 863 L376 862 L375 862 L374 862 L373 862 L371 862 L369 862 L367 860 L366 859 L365 858 L362 856 L361 856 L359 855 L357 853 L356 852 L355 850 L354 850 L354 850 L354 850 L354 850 L354 849 L353 846 L353 844 L354 841 L354 840 L355 837 L357 836 L359 834 L370 827 L374 824 L375 822 L376 821 L377 820 L378 820 L378 820 L379 820 L383 818 L389 814 L391 813 L391 813 L391 815 L392 820 L393 823 L394 827 L397 838 L397 839 L397 841 L398 843 L399 846 L403 852 L403 855 Z" fill="red" stroke="white" stroke-width="0.01">
 </path>
 <path d="M335 973 L327 969 L321 968 L316 967 L305 968 L296 970 L295 971 L280 976 L272 980 L271 980 L271 980 L271 979 L271 978 L273 976 L274 973 L274 971 L274 968 L274 967 L274 965 L274 964 L273 963 L273 962 L273 960 L273 959 L274 958 L275 957 L277 956 L279 955 L282 955 L284 955 L287 957 L288 958 L290 961 L291 965 L292 965 L294 964 L298 963 L304 963 L314 963 L321 963 L328 964 L332 965 L332 965 L335 961 L337 958 L337 956 L337 955 L337 953 L338 952 L341 949 L342 949 L343 947 L344 946 L344 946 L344 949 L344 954 L345 956 L345 959 L345 962 L344 962 L343 962 L342 962 L341 963 L341 964 L342 965 L344 966 L345 966 L346 967 L346 968 L346 968 L345 969 L342 970 L338 971 L335 973 L335 973 Z" fill="red" stroke="white" stroke-width="0.01">
 </path>
 <path d="M634 467 L630 469 L626 470 L623 471 L622 471 L622 471 L621 468 L620 456 L620 454 L621 452 L622 450 L622 449 L621 448 L619 447 L618 446 L617 445 L617 444 L617 444 L617 442 L617 442 L618 440 L619 437 L621 435 L621 434 L621 434 L624 429 L630 421 L639 410 L642 404 L643 403 L643 403 L644 401 L648 396 L650 390 L653 383 L654 381 L654 381 L656 382 L658 382 L662 382 L667 383 L672 384 L675 385 L678 390 L680 391 L682 393 L681 393 L680 395 L678 395 L677 396 L677 400 L677 401 L677 401 L677 404 L674 413 L673 416 L668 421 L664 424 L659 429 L654 433 L654 433 L653 434 L650 438 L647 442 L646 443 L646 443 L644 445 L644 446 L640 449 L635 452 L634 454 L634 455 L634 458 L634 465 L634 467 Z" fill="red" stroke="white" stroke-width="0.01">
 </path>
 <path d="M558 763 L557 765 L553 771 L553 772 L553 773 L553 775 L553 775 L553 775 L549 775 L538 775 L528 776 L524 776 L522 777 L521 777 L521 777 L521 777 L519 778 L517 778 L516 778 L514 778 L513 778 L513 777 L513 775 L513 773 L513 769 L513 767 L513 761 L513 759 L513 758 L514 757 L515 756 L515 756 L515 756 L516 756 L519 756 L527 756 L533 756 L546 758 L553 761 L558 763 Z" fill="red" stroke="white" stroke-width="0.01">
 </path>
 <path d="M354 456 L354 456 L354 460 L355 464 L356 478 L356 485 L356 487 L355 489 L354 491 L355 492 L357 493 L358 495 L357 499 L357 499 L356 499 L354 499 L350 500 L344 501 L339 504 L335 505 L330 505 L326 505 L324 505 L324 505 L324 503 L324 498 L325 489 L326 483 L327 479 L328 476 L328 474 L328 473 L324 471 L321 468 L318 464 L316 462 L314 460 L314 460 L312 460 L311 461 L310 461 L309 462 L308 463 L306 463 L305 462 L305 460 L304 459 L303 457 L301 456 L299 455 L296 453 L294 452 L294 451 L294 449 L294 449 L294 449 L295 449 L298 450 L306 451 L312 451 L318 451 L322 452 L326 451 L328 450 L331 449 L335 449 L341 450 L350 453 L353 455 L354 456 Z" fill="red" stroke="white" stroke-width="0.01">
 </path>
 <path d="M291 448 L291 449 L291 452 L291 458 L291 461 L289 464 L284 471 L278 477 L277 479 L276 481 L277 484 L277 488 L277 490 L277 493 L274 498 L270 501 L267 504 L265 506 L265 506 L265 505 L263 501 L263 499 L263 499 L253 487 L250 485 L248 484 L239 478 L227 467 L223 462 L218 457 L216 453 L216 453 L219 451 L222 450 L227 448 L237 446 L244 444 L250 444 L260 446 L267 448 L271 449 L274 450 L276 449 L279 447 L283 444 L285 443 L285 443 L285 444 L286 446 L289 447 L291 448 Z" fill="red" stroke="white" stroke-width="0.01">
 </path>
 <path d="M521 687 L523 689 L522 691 L521 693 L519 695 L519 695 L518 696 L516 697 L514 697 L512 698 L509 698 L507 697 L506 697 L504 698 L502 698 L501 700 L499 704 L497 708 L494 711 L492 712 L490 712 L489 712 L489 712 L489 711 L489 709 L490 706 L490 704 L490 702 L488 700 L487 700 L487 700 L488 696 L488 695 L488 695 L489 692 L489 687 L489 682 L491 678 L492 673 L494 665 L494 665 L496 668 L504 675 L516 684 L521 687 Z" fill="red" stroke="white" stroke-width="0.01">
 </path>
 <path d="M530 645 L530 645 L529 647 L529 648 L530 651 L531 658 L531 661 L529 667 L526 675 L524 681 L522 685 L521 687 L521 687 L516 684 L504 675 L496 668 L494 665 L494 665 L494 663 L494 657 L495 646 L495 641 L495 639 L495 639 L496 639 L496 640 L497 640 L498 641 L500 643 L501 643 L503 644 L504 644 L505 644 L508 643 L512 642 L519 639 L525 637 L530 636 L531 635 L534 633 L536 631 L538 631 L538 631 L538 631 L536 636 L532 642 L530 644 L530 645 L530 645 Z" fill="red" stroke="white" stroke-width="0.01">
 </path>
 <path d="M639 498 L639 499 L637 501 L636 502 L635 502 L633 504 L633 507 L633 509 L633 510 L632 512 L632 512 L631 514 L629 515 L629 515 L628 518 L628 520 L629 523 L632 524 L640 527 L646 529 L649 532 L649 532 L650 533 L651 536 L650 540 L650 540 L649 541 L644 541 L638 541 L632 540 L623 537 L613 534 L606 533 L600 533 L595 534 L591 536 L587 539 L585 541 L585 541 L582 539 L578 538 L575 536 L572 535 L569 535 L567 535 L562 534 L559 534 L557 534 L554 534 L549 536 L545 538 L543 539 L543 540 L543 540 L543 540 L542 541 L542 541 L541 539 L539 531 L537 520 L537 517 L537 514 L537 512 L537 508 L535 501 L535 499 L535 496 L535 493 L535 492 L535 492 L535 492 L535 490 L535 488 L536 487 L536 487 L539 488 L543 489 L548 488 L552 487 L555 488 L557 489 L561 494 L564 496 L569 497 L572 497 L574 498 L575 499 L576 500 L577 500 L588 499 L592 497 L593 496 L593 494 L593 493 L594 491 L595 490 L595 490 L597 490 L599 491 L602 495 L603 497 L603 499 L603 501 L604 502 L605 502 L613 500 L620 497 L623 498 L628 499 L630 499 L634 499 L637 498 L639 498 Z" fill="red" stroke="white" stroke-width="0.01">
 </path>
 <path d="M268 610 L267 611 L265 612 L264 613 L263 614 L263 615 L263 617 L263 618 L263 621 L263 622 L265 622 L267 623 L268 623 L268 625 L266 628 L263 632 L260 636 L258 637 L255 637 L254 637 L253 637 L252 637 L251 637 L250 639 L249 641 L248 644 L248 646 L251 648 L253 654 L254 658 L254 660 L255 662 L255 662 L256 662 L256 662 L256 661 L257 658 L258 657 L258 656 L259 656 L259 657 L261 659 L263 662 L269 668 L271 672 L273 682 L274 689 L274 689 L273 689 L265 690 L257 691 L254 691 L248 693 L246 693 L246 692 L246 692 L246 690 L243 681 L242 669 L240 665 L239 663 L237 662 L236 662 L235 661 L233 661 L230 661 L226 659 L224 657 L219 649 L212 638 L209 633 L204 627 L199 620 L196 616 L194 614 L192 612 L191 611 L191 611 L197 608 L202 605 L208 602 L218 600 L225 599 L230 599 L234 598 L236 598 L239 597 L243 594 L243 594 L246 598 L248 599 L255 603 L265 608 L268 610 Z" fill="red" stroke="white" stroke-width="0.01">
 </path>
 <path d="M384 781 L384 782 L383 783 L379 787 L374 793 L373 793 L371 793 L365 791 L362 791 L360 792 L358 792 L357 793 L355 796 L354 797 L353 798 L351 800 L349 802 L346 803 L339 805 L331 805 L328 806 L325 808 L324 810 L323 811 L321 812 L320 813 L318 814 L317 814 L316 814 L314 814 L311 813 L308 814 L304 816 L299 817 L297 817 L295 815 L294 813 L293 810 L292 805 L291 804 L288 802 L285 801 L283 800 L283 800 L286 799 L287 797 L287 795 L285 789 L282 780 L281 776 L281 774 L283 773 L284 773 L286 772 L288 772 L292 772 L298 771 L310 768 L321 765 L329 764 L339 760 L349 758 L355 757 L357 756 L358 755 L358 754 L357 753 L357 753 L358 753 L357 752 L357 751 L357 750 L357 748 L358 747 L359 745 L360 744 L361 744 L362 743 L364 743 L364 744 L365 743 L365 743 L366 744 L367 745 L368 750 L369 752 L369 753 L369 754 L370 755 L370 755 L371 755 L372 756 L373 757 L373 758 L372 760 L371 761 L370 762 L370 763 L370 763 L372 764 L373 764 L373 765 L374 765 L375 765 L376 764 L377 763 L378 763 L378 764 L378 766 L378 767 L378 771 L380 774 L382 777 L383 779 L384 781 Z" fill="red" stroke="white" stroke-width="0.01">
 </path>
 <path d="M393 774 L393 774 L392 776 L391 778 L390 781 L388 787 L387 791 L386 796 L386 800 L387 802 L388 804 L391 808 L393 812 L392 812 L391 813 L391 813 L389 814 L383 818 L379 820 L378 820 L378 820 L377 820 L376 821 L375 822 L374 824 L370 827 L359 834 L357 836 L355 837 L354 840 L354 841 L353 844 L353 846 L354 849 L354 850 L354 850 L354 850 L348 850 L345 851 L341 853 L339 853 L338 853 L336 853 L334 852 L330 851 L329 850 L328 849 L327 849 L324 847 L320 845 L313 844 L307 844 L302 843 L299 844 L298 844 L296 844 L296 844 L296 844 L297 843 L296 839 L294 833 L293 832 L289 830 L279 824 L278 822 L273 814 L270 811 L270 811 L274 808 L275 807 L276 806 L277 806 L278 804 L279 802 L281 800 L283 800 L283 800 L285 801 L288 802 L291 804 L292 805 L293 810 L294 813 L295 815 L297 817 L299 817 L304 816 L308 814 L311 813 L314 814 L316 814 L317 814 L318 814 L320 813 L321 812 L323 811 L324 810 L325 808 L328 806 L331 805 L339 805 L346 803 L349 802 L351 800 L353 798 L354 797 L355 796 L357 793 L358 792 L360 792 L362 791 L365 791 L371 793 L373 793 L374 793 L379 787 L383 783 L384 782 L384 781 L384 781 L385 781 L387 779 L389 776 L390 774 L391 774 L392 773 L393 774 Z" fill="red" stroke="white" stroke-width="0.01">
 </path>
 <path d="M650 540 L650 542 L649 546 L649 548 L648 550 L646 553 L644 555 L642 557 L640 558 L638 558 L634 557 L631 555 L626 554 L622 554 L618 553 L614 553 L612 553 L610 553 L608 554 L607 554 L606 554 L605 555 L604 556 L603 557 L603 559 L602 561 L601 565 L600 567 L598 571 L597 573 L597 574 L597 576 L598 578 L598 582 L599 585 L599 588 L599 592 L598 602 L597 605 L595 608 L595 612 L595 615 L595 615 L593 615 L585 616 L578 615 L572 615 L570 614 L567 613 L565 613 L563 614 L562 613 L561 612 L559 611 L558 612 L558 613 L557 613 L555 614 L555 614 L555 616 L555 617 L555 617 L552 614 L552 612 L551 610 L551 607 L552 605 L552 600 L554 597 L555 596 L556 596 L556 595 L556 594 L556 593 L555 592 L554 592 L553 591 L553 588 L553 585 L552 583 L552 581 L551 580 L551 580 L551 580 L550 579 L550 577 L550 575 L550 575 L551 574 L556 576 L560 577 L561 577 L562 577 L562 576 L560 574 L560 572 L559 571 L559 569 L558 568 L557 568 L557 568 L556 568 L554 568 L553 568 L552 567 L550 566 L550 564 L550 563 L551 562 L552 562 L556 561 L560 559 L561 560 L563 559 L565 559 L567 557 L568 556 L570 553 L572 547 L573 546 L576 545 L578 545 L580 544 L582 543 L584 542 L585 541 L585 541 L585 541 L587 539 L591 536 L595 534 L600 533 L606 533 L613 534 L623 537 L632 540 L638 541 L644 541 L649 541 L650 540 Z" fill="red" stroke="white" stroke-width="0.01">
 </path>
 <path d="M595 615 L595 616 L597 617 L598 617 L601 617 L602 617 L604 616 L608 616 L609 617 L609 617 L606 620 L605 621 L603 623 L601 626 L598 629 L594 632 L586 638 L582 641 L580 644 L580 647 L580 650 L580 652 L580 652 L578 652 L576 652 L574 651 L570 650 L563 647 L555 645 L548 646 L543 647 L543 647 L543 647 L538 647 L534 647 L532 646 L531 646 L530 645 L530 645 L530 645 L530 644 L532 642 L536 636 L538 631 L538 631 L538 631 L540 628 L542 627 L543 625 L545 624 L549 622 L553 621 L555 619 L555 617 L555 617 L555 617 L555 616 L555 614 L555 614 L557 613 L558 613 L558 612 L559 611 L561 612 L562 613 L563 614 L565 613 L567 613 L570 614 L572 615 L578 615 L585 616 L593 615 L595 615 Z" fill="red" stroke="white" stroke-width="0.01">
 </path>
 <path d="M621 434 L621 435 L619 437 L618 440 L617 442 L617 442 L617 444 L617 444 L617 445 L618 446 L619 447 L621 448 L622 449 L622 450 L621 452 L620 454 L620 456 L621 468 L622 471 L622 471 L621 470 L619 470 L617 470 L615 470 L615 471 L615 472 L615 473 L614 474 L613 474 L612 474 L611 474 L604 472 L593 470 L590 470 L588 471 L587 472 L586 472 L583 474 L581 475 L577 475 L572 474 L568 472 L566 470 L565 469 L564 469 L563 468 L560 469 L559 470 L557 471 L555 471 L550 470 L547 469 L546 469 L545 470 L542 473 L540 479 L540 480 L540 480 L537 478 L532 475 L527 474 L524 475 L522 476 L521 476 L520 476 L520 475 L519 474 L518 471 L516 469 L515 469 L511 469 L510 469 L509 469 L507 469 L506 468 L505 465 L505 461 L505 455 L505 455 L506 455 L507 451 L509 446 L513 441 L516 437 L518 436 L518 436 L520 437 L522 439 L525 440 L532 442 L538 445 L550 451 L554 454 L557 456 L558 456 L559 456 L559 455 L561 454 L572 444 L580 438 L593 435 L606 434 L619 434 L621 434 Z" fill="red" stroke="white" stroke-width="0.01">
 </path>
 <path d="M639 498 L637 498 L634 499 L630 499 L628 499 L623 498 L620 497 L613 500 L605 502 L604 502 L603 501 L603 499 L603 497 L602 495 L599 491 L597 490 L595 490 L595 490 L594 491 L593 493 L593 494 L593 496 L592 497 L588 499 L577 500 L576 500 L575 499 L574 498 L572 497 L569 497 L564 496 L561 494 L557 489 L555 488 L552 487 L548 488 L543 489 L539 488 L536 487 L536 487 L537 485 L537 484 L539 481 L540 480 L540 480 L540 479 L542 473 L545 470 L546 469 L547 469 L550 470 L555 471 L557 471 L559 470 L560 469 L563 468 L564 469 L565 469 L566 470 L568 472 L572 474 L577 475 L581 475 L583 474 L586 472 L587 472 L588 471 L590 470 L593 470 L604 472 L611 474 L612 474 L613 474 L614 474 L615 473 L615 472 L615 471 L615 470 L617 470 L619 470 L621 470 L622 471 L622 471 L623 471 L626 470 L630 469 L634 467 L634 467 L634 473 L635 475 L637 477 L639 478 L641 480 L642 482 L642 484 L642 489 L642 492 L641 494 L640 497 L639 498 Z" fill="red" stroke="white" stroke-width="0.01">
 </path>
 <path d="M505 455 L505 461 L505 465 L506 468 L507 469 L509 469 L510 469 L511 469 L515 469 L516 469 L518 471 L519 474 L520 475 L520 476 L521 476 L522 476 L524 475 L527 474 L532 475 L537 478 L540 480 L540 480 L539 481 L537 484 L537 485 L536 487 L536 487 L535 488 L535 490 L535 492 L535 492 L535 492 L533 493 L530 496 L530 497 L529 498 L529 500 L529 501 L528 503 L527 504 L525 505 L524 508 L521 512 L517 519 L514 528 L512 534 L510 541 L510 543 L510 543 L509 543 L508 543 L505 544 L503 546 L502 547 L501 549 L499 551 L493 552 L488 553 L486 553 L485 551 L483 547 L478 543 L476 541 L470 540 L466 541 L465 541 L465 541 L465 539 L467 537 L470 533 L473 530 L473 527 L474 525 L477 523 L480 520 L481 516 L480 513 L477 511 L475 509 L474 508 L473 502 L473 496 L473 494 L472 491 L472 491 L472 491 L474 490 L477 486 L478 481 L479 474 L478 469 L477 466 L475 463 L473 461 L473 459 L473 458 L474 458 L474 458 L474 458 L476 457 L477 456 L481 456 L483 455 L483 455 L485 455 L495 455 L505 455 Z" fill="red" stroke="white" stroke-width="0.01">
 </path>
 <path d="M382 866 L382 867 L381 870 L381 872 L383 873 L384 874 L384 876 L383 876 L382 877 L382 879 L382 881 L383 883 L384 885 L386 888 L388 890 L389 892 L392 895 L397 902 L400 905 L402 906 L402 906 L402 907 L401 909 L402 912 L402 916 L402 918 L401 919 L400 918 L398 918 L397 917 L393 917 L390 917 L382 918 L377 920 L371 922 L369 923 L368 924 L368 924 L368 926 L368 927 L370 928 L372 930 L372 931 L370 937 L369 938 L369 938 L369 938 L367 939 L363 940 L361 940 L359 940 L357 941 L356 941 L354 942 L352 942 L349 943 L347 943 L347 943 L347 943 L345 940 L344 938 L342 936 L334 929 L326 923 L324 919 L323 918 L323 918 L323 918 L324 916 L325 909 L326 906 L325 902 L325 896 L325 894 L326 892 L326 891 L327 889 L329 887 L337 884 L341 881 L346 876 L347 874 L348 871 L349 869 L349 866 L350 863 L351 860 L351 858 L351 856 L351 855 L352 853 L353 851 L353 851 L354 850 L354 850 L355 850 L356 852 L357 853 L359 855 L361 856 L362 856 L365 858 L366 859 L367 860 L369 862 L371 862 L373 862 L374 862 L375 862 L376 862 L378 863 L381 864 L382 866 L382 866 Z" fill="red" stroke="white" stroke-width="0.01">
 </path>
 <path d="M151 640 L150 644 L149 657 L148 668 L148 672 L150 677 L152 682 L156 686 L159 688 L164 690 L169 691 L171 690 L173 689 L175 688 L178 688 L180 688 L181 689 L182 691 L183 693 L184 695 L185 698 L186 700 L187 701 L190 702 L195 702 L200 701 L201 701 L201 701 L200 702 L200 704 L200 707 L200 709 L200 710 L200 711 L200 711 L197 710 L193 709 L190 708 L188 706 L186 706 L184 708 L181 713 L179 715 L178 716 L176 716 L172 713 L167 712 L154 708 L141 704 L134 702 L129 703 L126 703 L124 703 L120 701 L111 696 L108 694 L105 692 L102 691 L99 691 L98 692 L96 692 L93 692 L88 691 L82 689 L77 688 L74 687 L74 686 L74 685 L76 682 L79 678 L82 671 L86 666 L87 663 L87 663 L85 662 L84 661 L84 661 L90 655 L95 651 L104 649 L105 649 L110 648 L119 647 L121 647 L126 647 L131 646 L139 645 L151 640 L151 640 Z" fill="red" stroke="white" stroke-width="0.01">
 </path>
 <path d="M455 827 L456 829 L459 831 L462 832 L463 834 L464 835 L465 835 L466 835 L467 835 L469 835 L470 836 L471 837 L471 837 L471 838 L471 839 L470 840 L469 841 L468 842 L468 843 L469 845 L470 846 L470 847 L469 848 L470 849 L470 849 L471 849 L471 848 L472 847 L472 846 L473 844 L473 843 L474 842 L475 841 L476 841 L478 840 L479 841 L479 841 L481 841 L483 841 L485 841 L487 840 L488 840 L489 840 L492 840 L492 841 L492 841 L493 842 L495 843 L500 847 L508 851 L509 852 L509 853 L504 857 L497 863 L491 866 L488 867 L487 868 L486 871 L486 873 L486 875 L488 876 L488 879 L486 890 L486 892 L483 894 L482 897 L481 898 L480 899 L476 898 L474 898 L471 898 L469 898 L466 899 L464 900 L462 900 L460 899 L459 899 L458 899 L455 900 L454 901 L453 902 L452 902 L450 903 L450 903 L448 902 L446 901 L444 901 L443 902 L443 903 L442 905 L442 906 L442 906 L441 906 L437 907 L434 907 L433 907 L432 909 L432 910 L431 912 L429 912 L427 913 L426 913 L424 913 L422 914 L421 915 L420 915 L419 916 L417 916 L415 915 L412 914 L409 912 L406 910 L402 907 L402 906 L402 906 L400 905 L397 902 L392 895 L389 892 L388 890 L386 888 L384 885 L383 883 L382 881 L382 879 L382 877 L383 876 L384 876 L384 874 L383 873 L381 872 L381 870 L382 867 L382 866 L382 866 L382 866 L384 867 L387 871 L389 871 L391 872 L397 871 L402 870 L404 871 L405 870 L406 870 L406 869 L406 868 L406 865 L405 860 L403 855 L403 855 L405 854 L407 853 L413 853 L415 852 L417 851 L417 850 L418 849 L418 847 L418 846 L418 844 L419 844 L420 842 L421 840 L423 839 L423 835 L423 832 L423 830 L424 829 L425 828 L427 827 L429 827 L431 827 L433 826 L435 824 L436 823 L437 822 L439 823 L440 824 L441 825 L445 827 L447 828 L450 828 L455 827 Z" fill="red" stroke="white" stroke-width="0.01">
 </path>
 <path d="M584 854 L580 860 L580 860 L568 871 L555 886 L544 896 L541 900 L540 900 L536 902 L528 903 L519 906 L515 906 L511 907 L508 908 L506 909 L505 910 L503 912 L502 913 L501 914 L501 915 L500 916 L498 918 L493 922 L488 925 L485 929 L485 930 L485 930 L484 928 L482 927 L479 925 L474 926 L470 926 L468 925 L466 923 L465 920 L465 919 L461 919 L454 919 L449 919 L446 917 L445 916 L445 916 L444 915 L443 912 L442 908 L442 906 L442 906 L442 905 L443 903 L443 902 L444 901 L446 901 L448 902 L450 903 L450 903 L452 902 L453 902 L454 901 L455 900 L458 899 L459 899 L460 899 L462 900 L464 900 L466 899 L469 898 L471 898 L474 898 L476 898 L480 899 L481 898 L482 897 L483 894 L486 892 L486 890 L488 879 L488 876 L486 875 L486 873 L486 871 L487 868 L488 867 L491 866 L497 863 L504 857 L509 853 L509 852 L508 851 L500 847 L495 843 L493 842 L492 841 L492 841 L494 841 L496 840 L497 839 L500 839 L506 840 L512 841 L521 845 L523 846 L525 846 L531 844 L534 844 L536 844 L537 844 L538 844 L539 843 L541 841 L546 837 L550 835 L554 835 L560 836 L563 836 L566 836 L571 834 L573 833 L574 833 L574 832 L574 832 L575 833 L576 836 L576 842 L578 846 L584 854 Z" fill="red" stroke="white" stroke-width="0.01">
 </path>
 <path d="M323 918 L324 919 L326 923 L334 929 L342 936 L344 938 L345 940 L347 943 L347 943 L346 944 L344 945 L344 946 L344 946 L344 946 L343 947 L342 949 L341 949 L338 952 L337 953 L337 955 L337 956 L337 958 L335 961 L332 965 L332 965 L328 964 L321 963 L314 963 L304 963 L298 963 L294 964 L292 965 L291 965 L290 961 L288 958 L287 957 L284 955 L282 955 L279 955 L277 956 L275 957 L274 958 L273 959 L273 960 L273 962 L273 963 L274 964 L274 965 L274 967 L274 968 L274 971 L274 973 L273 976 L271 978 L271 979 L271 980 L271 980 L262 982 L254 982 L251 980 L248 977 L248 976 L246 974 L246 974 L248 973 L249 971 L250 969 L249 966 L248 961 L249 958 L251 955 L252 955 L254 954 L256 954 L258 955 L260 955 L263 955 L265 954 L267 952 L268 951 L268 950 L267 947 L267 946 L266 944 L266 942 L266 940 L267 939 L268 935 L272 930 L276 924 L282 919 L285 918 L286 917 L291 918 L295 919 L303 919 L308 919 L314 919 L321 919 L323 918 Z" fill="red" stroke="white" stroke-width="0.01">
 </path>
 <path d="M354 850 L354 850 L354 850 L353 851 L353 851 L352 853 L351 855 L351 856 L351 858 L351 860 L350 863 L349 866 L349 869 L348 871 L347 874 L346 876 L341 881 L337 884 L329 887 L327 889 L326 891 L326 892 L325 894 L325 896 L325 902 L326 906 L325 909 L324 916 L323 918 L323 918 L323 918 L321 919 L314 919 L308 919 L303 919 L295 919 L291 918 L286 917 L285 918 L282 919 L276 924 L272 930 L268 935 L267 939 L266 940 L266 942 L266 944 L267 946 L267 947 L268 950 L268 951 L267 952 L265 954 L263 955 L260 955 L258 955 L256 954 L254 954 L252 955 L251 955 L249 958 L248 961 L249 966 L250 969 L249 971 L248 973 L246 974 L246 974 L246 974 L246 971 L246 971 L246 970 L246 970 L245 966 L245 964 L245 961 L246 959 L243 949 L240 938 L237 927 L236 924 L233 912 L232 911 L231 907 L231 906 L231 904 L231 902 L231 901 L232 900 L235 895 L241 891 L251 884 L252 883 L267 875 L279 868 L283 865 L288 860 L292 855 L294 852 L294 852 L295 849 L296 849 L296 847 L296 845 L296 844 L296 844 L298 844 L299 844 L302 843 L307 844 L313 844 L320 845 L324 847 L327 849 L328 849 L329 850 L330 851 L334 852 L336 853 L338 853 L339 853 L341 853 L345 851 L348 850 L354 850 L354 850 Z" fill="red" stroke="white" stroke-width="0.01">
 </path>
 <path d="M465 573 L465 574 L464 576 L465 578 L467 580 L469 582 L471 583 L473 584 L477 587 L481 590 L485 595 L487 601 L487 602 L486 604 L485 606 L484 608 L484 609 L484 611 L484 613 L485 614 L485 615 L485 615 L486 615 L488 614 L491 612 L494 612 L495 612 L497 612 L498 613 L498 613 L498 613 L499 615 L501 618 L500 621 L498 625 L497 630 L496 639 L495 639 L495 639 L495 639 L495 639 L493 640 L490 642 L484 647 L483 647 L482 647 L482 647 L482 647 L482 647 L481 646 L479 643 L477 643 L475 642 L472 643 L472 643 L472 643 L470 641 L468 638 L465 637 L457 634 L453 634 L450 633 L446 631 L445 630 L445 630 L444 629 L443 628 L440 625 L439 623 L439 621 L439 620 L439 618 L442 612 L442 612 L442 612 L444 608 L448 606 L450 604 L451 602 L452 599 L453 597 L453 594 L454 593 L455 591 L459 588 L459 587 L459 585 L459 584 L458 580 L458 578 L459 576 L460 574 L461 573 L463 573 L464 572 L465 573 Z" fill="red" stroke="white" stroke-width="0.01">
 </path>
 <path d="M293 616 L293 617 L298 618 L304 618 L311 618 L311 618 L311 619 L312 622 L313 623 L315 627 L316 631 L317 635 L317 637 L318 640 L320 642 L322 644 L324 647 L325 648 L326 651 L326 652 L325 653 L321 655 L318 657 L317 657 L317 657 L316 656 L314 652 L307 645 L303 643 L302 641 L301 641 L301 642 L301 643 L302 645 L303 646 L305 649 L306 651 L309 656 L311 659 L312 663 L312 665 L311 669 L309 675 L306 681 L304 683 L303 683 L302 684 L302 684 L301 684 L296 686 L292 687 L292 687 L292 686 L291 686 L290 686 L287 686 L285 687 L284 687 L274 689 L274 689 L273 682 L271 672 L269 668 L263 662 L261 659 L259 657 L259 656 L258 656 L258 657 L257 658 L256 661 L256 662 L256 662 L255 662 L255 662 L254 660 L254 658 L253 654 L251 648 L248 646 L248 644 L249 641 L250 639 L251 637 L252 637 L253 637 L254 637 L255 637 L258 637 L260 636 L263 632 L266 628 L268 625 L268 623 L267 623 L265 622 L263 622 L263 621 L263 618 L263 617 L263 615 L263 614 L264 613 L265 612 L267 611 L268 610 L268 610 L268 610 L271 611 L274 611 L276 612 L279 612 L282 612 L286 613 L289 615 L293 616 Z" fill="red" stroke="white" stroke-width="0.01">
 </path>
 <path d="M246 692 L243 691 L240 688 L240 687 L240 685 L240 683 L239 681 L238 680 L236 680 L234 681 L233 682 L233 684 L233 685 L232 688 L231 690 L230 691 L230 693 L230 693 L228 693 L227 693 L225 694 L224 695 L223 697 L223 699 L222 700 L221 700 L221 700 L221 700 L220 698 L220 696 L218 695 L215 694 L214 695 L213 695 L212 696 L211 697 L209 697 L207 697 L203 699 L201 701 L201 701 L200 701 L195 702 L190 702 L187 701 L186 700 L185 698 L184 695 L183 693 L182 691 L181 689 L180 688 L178 688 L175 688 L173 689 L171 690 L169 691 L164 690 L159 688 L156 686 L152 682 L150 677 L148 672 L148 668 L149 657 L150 644 L151 640 L151 640 L159 634 L164 630 L170 626 L173 622 L173 622 L174 621 L177 618 L179 616 L182 616 L184 615 L185 615 L187 614 L191 611 L191 611 L192 612 L194 614 L196 616 L199 620 L204 627 L209 633 L212 638 L219 649 L224 657 L226 659 L230 661 L233 661 L235 661 L236 662 L237 662 L239 663 L240 665 L242 669 L243 681 L246 690 L246 692 Z" fill="red" stroke="white" stroke-width="0.01">
 </path>
 <path d="M246 692 L246 693 L248 693 L254 691 L257 691 L265 690 L273 689 L274 689 L274 689 L284 687 L285 687 L287 686 L290 686 L291 686 L292 686 L292 687 L292 687 L293 688 L293 689 L293 691 L292 692 L290 695 L288 698 L285 699 L284 700 L284 702 L284 703 L284 707 L283 713 L282 719 L279 725 L279 726 L279 726 L278 727 L277 728 L276 729 L274 730 L273 731 L271 733 L271 734 L270 736 L269 739 L268 743 L268 745 L264 751 L261 756 L256 761 L252 764 L249 765 L249 765 L248 765 L246 760 L245 757 L245 755 L245 754 L245 753 L244 753 L242 753 L240 753 L238 753 L237 752 L235 752 L235 751 L233 750 L232 748 L231 746 L230 744 L231 742 L231 740 L232 738 L233 737 L233 737 L233 736 L233 735 L233 734 L232 733 L231 733 L227 730 L225 729 L224 728 L223 727 L223 724 L224 723 L224 722 L228 717 L229 714 L229 712 L229 710 L229 708 L228 706 L228 705 L228 703 L228 701 L228 699 L229 697 L229 694 L230 693 L230 693 L230 691 L231 690 L232 688 L233 685 L233 684 L233 682 L234 681 L236 680 L238 680 L239 681 L240 683 L240 685 L240 687 L240 688 L243 691 L246 692 Z" fill="red" stroke="white" stroke-width="0.01">
 </path>
 <path d="M201 701 L203 699 L207 697 L209 697 L211 697 L212 696 L213 695 L214 695 L215 694 L218 695 L220 696 L220 698 L221 700 L221 700 L219 704 L215 709 L208 716 L200 725 L189 735 L183 741 L178 746 L176 747 L175 747 L172 747 L167 744 L163 743 L161 742 L160 742 L158 742 L158 742 L157 743 L157 745 L157 749 L157 752 L157 756 L155 760 L153 765 L152 769 L150 772 L148 774 L139 777 L136 778 L132 779 L129 780 L127 781 L124 784 L121 787 L120 789 L118 791 L116 794 L114 797 L114 797 L114 796 L113 793 L112 790 L111 785 L110 773 L110 770 L109 766 L105 754 L99 740 L87 722 L81 716 L78 715 L61 712 L58 711 L55 708 L54 707 L53 706 L53 705 L53 703 L55 700 L56 699 L60 689 L65 681 L65 681 L70 676 L73 673 L82 665 L84 661 L84 661 L85 662 L87 663 L87 663 L86 666 L82 671 L79 678 L76 682 L74 685 L74 686 L74 687 L77 688 L82 689 L88 691 L93 692 L96 692 L98 692 L99 691 L102 691 L105 692 L108 694 L111 696 L120 701 L124 703 L126 703 L129 703 L134 702 L141 704 L154 708 L167 712 L172 713 L176 716 L178 716 L179 715 L181 713 L184 708 L186 706 L188 706 L190 708 L193 709 L197 710 L200 711 L200 711 L200 710 L200 709 L200 707 L200 704 L200 702 L201 701 Z" fill="red" stroke="white" stroke-width="0.01">
 </path>
 <path d="M395 567 L395 572 L395 577 L393 586 L392 598 L390 614 L388 625 L387 632 L387 637 L385 640 L385 640 L384 643 L381 647 L380 649 L380 649 L380 649 L379 649 L376 649 L374 650 L373 650 L371 651 L370 651 L368 651 L367 650 L366 649 L365 647 L364 646 L363 646 L362 646 L361 646 L361 646 L360 646 L360 646 L359 645 L358 645 L357 645 L356 645 L354 644 L351 641 L347 637 L343 634 L336 629 L330 625 L323 621 L317 620 L315 618 L311 618 L311 618 L304 618 L298 618 L293 617 L293 616 L293 616 L295 612 L298 607 L299 601 L300 592 L301 584 L304 579 L305 577 L307 576 L310 575 L314 573 L317 572 L318 571 L319 571 L320 569 L321 567 L321 565 L320 561 L320 558 L319 557 L319 554 L319 554 L325 554 L336 555 L342 556 L345 557 L349 558 L352 560 L354 563 L358 567 L360 570 L364 573 L366 574 L368 575 L369 576 L371 576 L372 575 L373 574 L373 573 L374 572 L376 571 L379 569 L384 568 L388 567 L391 567 L395 567 L395 567 Z" fill="red" stroke="white" stroke-width="0.01">
 </path>
 <path d="M654 381 L653 383 L650 390 L648 396 L644 401 L643 403 L643 403 L639 401 L637 400 L630 399 L619 398 L617 398 L615 398 L611 398 L609 398 L605 399 L595 401 L588 402 L582 403 L576 403 L573 403 L572 402 L571 400 L570 397 L568 392 L567 387 L566 385 L565 384 L563 384 L563 384 L561 382 L560 376 L559 370 L558 368 L558 368 L559 368 L564 365 L569 362 L572 358 L574 355 L576 351 L583 346 L592 342 L600 339 L600 339 L600 340 L601 345 L602 347 L603 351 L607 354 L615 358 L621 361 L629 365 L639 373 L649 379 L653 381 L654 381 Z" fill="red" stroke="white" stroke-width="0.01">
 </path>
 <path d="M558 368 L559 370 L560 376 L561 382 L563 384 L563 384 L565 384 L566 385 L567 387 L568 392 L570 397 L571 400 L572 402 L573 403 L576 403 L582 403 L588 402 L595 401 L605 399 L609 398 L611 398 L615 398 L617 398 L619 398 L630 399 L637 400 L639 401 L643 403 L643 403 L642 404 L639 410 L630 421 L624 429 L621 434 L621 434 L619 434 L606 434 L593 435 L580 438 L572 444 L561 454 L559 455 L559 456 L558 456 L557 456 L554 454 L550 451 L538 445 L532 442 L525 440 L522 439 L520 437 L518 436 L518 436 L522 434 L524 432 L528 427 L533 421 L534 417 L534 413 L535 411 L533 406 L532 401 L532 401 L532 401 L532 400 L531 396 L530 393 L531 391 L533 389 L538 384 L542 380 L545 378 L545 378 L548 375 L554 369 L556 367 L557 368 L558 368 Z" fill="red" stroke="white" stroke-width="0.01">
 </path>
 <path d="M555 617 L555 617 L555 619 L553 621 L549 622 L545 624 L543 625 L542 627 L540 628 L538 631 L538 631 L536 631 L534 633 L531 635 L530 636 L525 637 L519 639 L512 642 L508 643 L505 644 L504 644 L503 644 L501 643 L500 643 L498 641 L497 640 L496 640 L496 639 L495 639 L495 639 L496 639 L497 630 L498 625 L500 621 L501 618 L499 615 L498 613 L498 613 L498 613 L499 612 L500 613 L501 613 L502 614 L503 615 L504 616 L506 616 L506 616 L506 615 L507 613 L508 612 L508 610 L508 608 L509 605 L510 604 L511 604 L512 604 L513 604 L515 604 L516 603 L517 602 L519 600 L520 599 L521 598 L523 597 L525 597 L527 597 L528 597 L529 597 L530 596 L530 595 L531 594 L532 592 L533 590 L534 590 L535 590 L537 590 L538 591 L539 591 L539 590 L540 589 L540 587 L539 584 L540 583 L541 582 L542 582 L543 582 L544 585 L545 587 L546 589 L547 590 L547 591 L549 591 L549 591 L550 591 L550 589 L550 588 L550 587 L550 585 L550 584 L550 583 L551 581 L551 580 L551 580 L551 580 L552 581 L552 583 L553 585 L553 588 L553 591 L554 592 L555 592 L556 593 L556 594 L556 595 L556 596 L555 596 L554 597 L552 600 L552 605 L551 607 L551 610 L552 612 L552 614 L555 617 Z" fill="red" stroke="white" stroke-width="0.01">
 </path>
 <path d="M585 541 L585 541 L584 542 L582 543 L580 544 L578 545 L576 545 L573 546 L572 547 L570 553 L568 556 L567 557 L565 559 L563 559 L561 560 L560 559 L556 561 L552 562 L551 562 L550 563 L550 564 L550 566 L552 567 L553 568 L554 568 L556 568 L557 568 L557 568 L558 568 L559 569 L559 571 L560 572 L560 574 L562 576 L562 577 L561 577 L560 577 L556 576 L551 574 L550 575 L550 575 L550 577 L550 579 L551 580 L551 580 L551 580 L551 580 L551 581 L550 583 L550 584 L550 585 L550 587 L550 588 L550 589 L550 591 L549 591 L549 591 L547 591 L547 590 L546 589 L545 587 L544 585 L543 582 L542 582 L541 582 L540 583 L539 584 L540 587 L540 589 L539 590 L539 591 L538 591 L537 590 L535 590 L534 590 L533 590 L532 592 L531 594 L530 595 L530 596 L529 597 L528 597 L527 597 L525 597 L523 597 L521 598 L520 599 L519 600 L517 602 L516 603 L515 604 L513 604 L512 604 L511 604 L510 604 L509 605 L508 608 L508 610 L508 612 L507 613 L506 615 L506 616 L506 616 L504 616 L503 615 L502 614 L501 613 L500 613 L499 612 L498 613 L498 613 L497 612 L495 612 L494 612 L491 612 L488 614 L486 615 L485 615 L485 615 L485 614 L484 613 L484 611 L484 609 L484 608 L485 606 L486 604 L487 602 L487 601 L485 595 L481 590 L477 587 L473 584 L471 583 L469 582 L467 580 L465 578 L464 576 L465 574 L465 573 L465 573 L465 572 L463 564 L462 559 L461 554 L460 549 L458 546 L458 546 L460 546 L461 545 L463 544 L464 543 L464 543 L465 541 L465 541 L465 541 L466 541 L470 540 L476 541 L478 543 L483 547 L485 551 L486 553 L488 553 L493 552 L499 551 L501 549 L502 547 L503 546 L505 544 L508 543 L509 543 L510 543 L510 543 L513 543 L518 546 L522 548 L526 549 L529 549 L532 548 L534 548 L535 547 L537 546 L538 546 L539 547 L540 550 L542 552 L544 553 L547 554 L548 554 L550 553 L552 550 L552 549 L552 547 L552 546 L552 545 L550 544 L550 543 L549 542 L547 541 L546 541 L545 540 L545 540 L544 540 L544 540 L543 540 L543 540 L543 539 L545 538 L549 536 L554 534 L557 534 L559 534 L562 534 L567 535 L569 535 L572 535 L575 536 L578 538 L582 539 L585 541 Z" fill="red" stroke="white" stroke-width="0.01">
 </path>
 <path d="M487 700 L488 700 L490 702 L490 704 L490 706 L489 709 L489 711 L489 712 L489 712 L489 713 L488 714 L487 715 L487 715 L488 717 L490 718 L495 719 L499 720 L501 721 L504 725 L507 732 L508 735 L506 744 L504 747 L504 747 L504 747 L500 756 L496 761 L489 768 L484 772 L480 775 L478 776 L476 774 L476 774 L475 774 L474 775 L474 777 L474 780 L473 782 L473 784 L472 785 L471 787 L469 788 L468 789 L468 789 L466 790 L461 791 L455 792 L451 793 L450 793 L449 792 L448 790 L448 786 L448 784 L449 780 L450 777 L453 775 L456 770 L458 768 L460 765 L461 763 L462 761 L462 759 L460 756 L458 754 L457 753 L456 752 L455 750 L455 748 L455 741 L455 736 L454 734 L453 733 L453 733 L454 732 L456 731 L459 727 L467 721 L471 718 L473 716 L474 715 L475 714 L476 712 L476 710 L476 707 L476 705 L476 703 L475 700 L475 697 L475 695 L476 695 L476 695 L479 696 L484 698 L487 700 Z" fill="red" stroke="white" stroke-width="0.01">
 </path>
 <path d="M468 789 L468 789 L466 790 L464 791 L462 793 L460 800 L458 811 L456 818 L454 822 L454 824 L455 827 L455 827 L455 827 L450 828 L447 828 L445 827 L441 825 L440 824 L439 823 L437 822 L436 823 L435 824 L433 826 L431 827 L429 827 L427 827 L425 828 L424 829 L423 830 L423 832 L423 835 L423 839 L421 840 L420 842 L419 844 L418 844 L418 846 L418 847 L418 849 L417 850 L417 851 L415 852 L413 853 L407 853 L405 854 L403 855 L403 855 L403 852 L399 846 L398 843 L397 841 L397 839 L397 838 L394 827 L393 823 L392 820 L391 815 L391 813 L391 813 L392 812 L393 812 L391 808 L388 804 L387 802 L386 800 L386 796 L387 791 L388 787 L390 781 L391 778 L392 776 L393 774 L393 774 L393 774 L394 773 L396 774 L399 775 L404 775 L404 775 L405 773 L411 763 L418 753 L424 745 L426 743 L427 742 L431 741 L436 741 L441 741 L444 740 L445 739 L449 736 L452 734 L453 733 L453 733 L454 734 L455 736 L455 741 L455 748 L455 750 L456 752 L457 753 L458 754 L460 756 L462 759 L462 761 L461 763 L460 765 L458 768 L456 770 L453 775 L450 777 L449 780 L448 784 L448 786 L448 790 L449 792 L450 793 L451 793 L455 792 L461 791 L466 790 L468 789 Z" fill="red" stroke="white" stroke-width="0.01">
 </path>
 <path d="M380 649 L381 649 L382 650 L383 651 L384 653 L386 657 L391 660 L396 664 L398 666 L400 669 L400 671 L402 674 L403 676 L404 678 L405 680 L405 682 L405 684 L405 684 L405 684 L405 685 L404 687 L402 689 L400 691 L398 691 L396 691 L394 693 L392 696 L391 698 L389 699 L388 700 L383 700 L380 701 L373 704 L369 708 L364 712 L358 715 L355 715 L354 715 L353 715 L352 716 L352 716 L353 717 L354 718 L355 720 L355 721 L356 722 L356 723 L356 725 L357 728 L358 733 L359 735 L359 737 L359 739 L358 740 L359 741 L360 742 L360 742 L362 742 L363 742 L364 743 L365 743 L365 743 L365 743 L364 744 L364 743 L362 743 L361 744 L360 744 L359 745 L358 747 L357 748 L357 750 L357 751 L357 752 L358 753 L357 753 L357 753 L357 753 L357 753 L356 752 L355 752 L354 752 L353 752 L352 752 L352 751 L352 750 L353 748 L354 745 L355 743 L356 741 L356 739 L356 737 L356 735 L355 734 L354 732 L352 732 L352 732 L351 732 L351 733 L349 734 L349 735 L347 736 L346 736 L346 736 L346 736 L345 735 L343 732 L342 729 L341 728 L341 726 L339 724 L337 723 L337 722 L337 720 L337 719 L338 718 L342 714 L346 711 L349 708 L350 707 L350 705 L350 704 L350 703 L350 702 L348 702 L346 702 L344 702 L340 702 L337 702 L335 702 L332 703 L331 704 L328 704 L326 705 L324 705 L322 706 L322 706 L320 704 L319 704 L319 702 L319 701 L319 700 L318 700 L317 699 L316 700 L313 701 L311 701 L310 702 L309 702 L307 701 L305 700 L305 699 L302 698 L301 697 L301 696 L302 693 L302 688 L302 686 L302 684 L302 684 L302 684 L303 683 L304 683 L306 681 L309 675 L311 669 L312 665 L312 663 L311 659 L309 656 L306 651 L305 649 L303 646 L302 645 L301 643 L301 642 L301 641 L302 641 L303 643 L307 645 L314 652 L316 656 L317 657 L317 657 L318 657 L321 655 L325 653 L326 652 L326 651 L325 648 L324 647 L322 644 L320 642 L318 640 L317 637 L317 635 L316 631 L315 627 L313 623 L312 622 L311 619 L311 618 L311 618 L315 618 L317 620 L323 621 L330 625 L336 629 L343 634 L347 637 L351 641 L354 644 L356 645 L357 645 L358 645 L359 645 L360 646 L360 646 L361 646 L361 646 L362 646 L363 646 L364 646 L365 647 L366 649 L367 650 L368 651 L370 651 L371 651 L373 650 L374 650 L376 649 L379 649 L380 649 L380 649 Z" fill="red" stroke="white" stroke-width="0.01">
 </path>
 <path d="M302 684 L302 684 L302 686 L302 688 L302 693 L301 696 L301 697 L302 698 L305 699 L305 700 L307 701 L309 702 L310 702 L311 701 L313 701 L316 700 L317 699 L318 700 L319 700 L319 701 L319 702 L319 704 L320 704 L322 706 L322 706 L324 705 L326 705 L328 704 L331 704 L332 703 L335 702 L337 702 L340 702 L344 702 L346 702 L348 702 L350 702 L350 703 L350 704 L350 705 L350 707 L349 708 L346 711 L342 714 L338 718 L337 719 L337 720 L337 722 L337 723 L339 724 L341 726 L341 728 L342 729 L343 732 L345 735 L346 736 L346 736 L342 735 L338 733 L334 732 L331 729 L329 727 L328 725 L327 724 L327 723 L326 722 L326 720 L326 719 L326 718 L326 717 L325 717 L324 716 L323 717 L323 718 L322 719 L322 720 L321 720 L320 721 L320 721 L319 722 L320 724 L320 726 L319 727 L317 728 L316 729 L313 731 L312 732 L310 734 L309 735 L307 735 L306 736 L305 737 L304 739 L304 740 L303 741 L302 740 L299 738 L295 736 L292 735 L290 733 L287 731 L282 727 L280 726 L279 726 L279 726 L279 725 L282 719 L283 713 L284 707 L284 703 L284 702 L284 700 L285 699 L288 698 L290 695 L292 692 L293 691 L293 689 L293 688 L292 687 L292 687 L296 686 L301 684 L302 684 Z" fill="red" stroke="white" stroke-width="0.01">
 </path>
 <path d="M294 449 L294 449 L294 451 L294 452 L296 453 L299 455 L301 456 L303 457 L304 459 L305 460 L305 462 L306 463 L308 463 L309 462 L310 461 L311 461 L312 460 L314 460 L314 460 L316 462 L318 464 L321 468 L324 471 L328 473 L328 474 L328 476 L327 479 L326 483 L325 489 L324 498 L324 503 L324 505 L324 505 L324 505 L324 507 L322 508 L317 510 L313 512 L310 515 L308 518 L307 523 L306 526 L304 533 L307 537 L305 539 L302 538 L295 532 L294 537 L300 542 L299 544 L298 548 L298 548 L298 548 L296 547 L296 547 L294 547 L291 547 L289 547 L286 547 L284 547 L283 548 L281 548 L280 548 L278 546 L275 545 L271 544 L269 543 L268 541 L266 539 L265 538 L264 538 L263 538 L263 538 L262 537 L262 537 L262 536 L260 534 L260 531 L262 527 L264 521 L264 519 L265 517 L265 514 L265 509 L265 506 L265 506 L267 504 L270 501 L274 498 L277 493 L277 490 L277 488 L277 484 L276 481 L277 479 L278 477 L284 471 L289 464 L291 461 L291 458 L291 452 L291 449 L291 448 L291 448 L292 448 L294 449 Z" fill="red" stroke="white" stroke-width="0.01">
 </path>
 <path d="M346 736 L346 736 L347 736 L349 735 L349 734 L351 733 L351 732 L352 732 L352 732 L354 732 L355 734 L356 735 L356 737 L356 739 L356 741 L355 743 L354 745 L353 748 L352 750 L352 751 L352 752 L353 752 L354 752 L355 752 L356 752 L357 753 L357 753 L357 753 L357 753 L358 754 L358 755 L357 756 L355 757 L349 758 L339 760 L329 764 L321 765 L310 768 L298 771 L292 772 L288 772 L286 772 L284 773 L283 773 L281 774 L281 776 L282 780 L285 789 L287 795 L287 797 L286 799 L283 800 L283 800 L281 800 L279 802 L278 804 L277 806 L276 806 L275 807 L274 808 L270 811 L270 811 L263 804 L257 799 L257 799 L258 788 L258 788 L256 780 L256 777 L255 774 L255 772 L254 770 L252 769 L251 768 L249 766 L249 765 L249 765 L252 764 L256 761 L261 756 L264 751 L268 745 L268 743 L269 739 L270 736 L271 734 L271 733 L273 731 L274 730 L276 729 L277 728 L278 727 L279 726 L279 726 L280 726 L282 727 L287 731 L290 733 L292 735 L295 736 L299 738 L302 740 L303 741 L304 740 L304 739 L305 737 L306 736 L307 735 L309 735 L310 734 L312 732 L313 731 L316 729 L317 728 L319 727 L320 726 L320 724 L319 722 L320 721 L320 721 L321 720 L322 720 L322 719 L323 718 L323 717 L324 716 L325 717 L326 717 L326 718 L326 719 L326 720 L326 722 L327 723 L327 724 L328 725 L329 727 L331 729 L334 732 L338 733 L342 735 L346 736 Z" fill="red" stroke="white" stroke-width="0.01">
 </path>
 <path d="M321 385 L321 388 L318 390 L313 392 L309 392 L304 391 L298 391 L295 393 L290 393 L284 391 L279 391 L279 391 L279 388 L279 382 L278 379 L279 376 L279 375 L282 371 L283 370 L285 369 L288 370 L291 372 L294 372 L300 371 L304 371 L308 368 L309 367 L310 367 L312 369 L312 371 L314 374 L318 377 L318 377 L320 378 L321 380 L320 383 L321 385 Z" fill="red" stroke="white" stroke-width="0.01">
 </path>
 <path d="M271 392 L270 395 L269 398 L269 405 L269 407 L269 409 L271 412 L275 417 L278 418 L279 420 L280 423 L281 425 L280 428 L282 434 L283 438 L284 442 L285 443 L285 443 L283 444 L279 447 L276 449 L274 450 L271 449 L267 448 L260 446 L250 444 L244 444 L237 446 L227 448 L222 450 L219 451 L216 453 L216 453 L207 440 L206 438 L206 437 L205 435 L205 435 L204 434 L201 427 L201 425 L201 419 L202 417 L202 415 L202 415 L202 415 L204 408 L202 401 L203 401 L213 399 L213 399 L216 398 L218 397 L220 396 L223 395 L228 395 L239 395 L243 395 L247 394 L253 393 L255 392 L257 392 L262 391 L271 392 Z" fill="red" stroke="white" stroke-width="0.01">
 </path>
 <path d="M548 724 L548 725 L548 729 L549 732 L550 734 L553 737 L556 738 L557 739 L558 748 L559 751 L559 757 L560 759 L560 759 L558 763 L558 763 L553 761 L546 758 L533 756 L527 756 L519 756 L516 756 L515 756 L515 756 L516 756 L518 754 L518 753 L518 752 L517 750 L516 749 L516 747 L515 744 L516 736 L517 731 L521 722 L524 716 L527 714 L527 714 L531 715 L533 715 L536 716 L539 717 L541 719 L544 720 L546 722 L548 724 Z" fill="red" stroke="white" stroke-width="0.01">
 </path>
 <path d="M445 916 L444 916 L442 918 L442 920 L442 922 L443 924 L443 926 L445 927 L446 930 L447 933 L447 933 L446 933 L445 933 L444 933 L442 932 L438 932 L437 932 L436 932 L434 932 L432 931 L431 930 L429 930 L426 929 L425 929 L424 929 L422 930 L421 931 L420 933 L418 936 L415 940 L413 944 L412 946 L411 947 L411 949 L412 951 L412 953 L412 957 L411 962 L410 965 L408 969 L407 969 L407 971 L407 971 L406 971 L404 972 L404 972 L398 976 L394 976 L390 977 L387 980 L385 984 L385 984 L381 980 L376 975 L372 971 L367 968 L367 967 L367 965 L367 964 L367 963 L367 962 L367 962 L366 961 L366 959 L367 959 L368 958 L370 958 L370 957 L371 956 L370 952 L371 948 L371 945 L369 939 L369 938 L369 938 L369 938 L370 937 L372 931 L372 930 L370 928 L368 927 L368 926 L368 924 L368 924 L369 923 L371 922 L377 920 L382 918 L390 917 L393 917 L397 917 L398 918 L400 918 L401 919 L402 918 L402 916 L402 912 L401 909 L402 907 L402 906 L402 906 L402 907 L406 910 L409 912 L412 914 L415 915 L417 916 L419 916 L420 915 L421 915 L422 914 L424 913 L426 913 L427 913 L429 912 L431 912 L432 910 L432 909 L433 907 L434 907 L437 907 L441 906 L442 906 L442 906 L442 908 L443 912 L444 915 L445 916 Z" fill="red" stroke="white" stroke-width="0.01">
 </path>
 <path d="M385 984 L384 985 L383 991 L380 998 L379 1000 L372 994 L353 983 L341 976 L336 973 L335 973 L335 973 L335 973 L338 971 L342 970 L345 969 L346 968 L346 968 L346 967 L345 966 L344 966 L342 965 L341 964 L341 963 L342 962 L343 962 L344 962 L345 962 L345 959 L345 956 L344 954 L344 949 L344 946 L344 946 L344 946 L344 945 L346 944 L347 943 L347 943 L347 943 L349 943 L352 942 L354 942 L356 941 L357 941 L359 940 L361 940 L363 940 L367 939 L369 938 L369 938 L369 939 L371 945 L371 948 L370 952 L371 956 L370 957 L370 958 L368 958 L367 959 L366 959 L366 961 L367 962 L367 962 L367 963 L367 964 L367 965 L367 967 L367 968 L372 971 L376 975 L381 980 L385 984 Z" fill="red" stroke="white" stroke-width="0.01">
 </path>
 <path d="M230 693 L229 694 L229 697 L228 699 L228 701 L228 703 L228 705 L228 706 L229 708 L229 710 L229 712 L229 714 L228 717 L224 722 L224 723 L223 724 L223 727 L224 728 L225 729 L227 730 L231 733 L232 733 L233 734 L233 735 L233 736 L233 737 L233 737 L232 738 L231 740 L231 742 L230 744 L231 746 L232 748 L233 750 L235 751 L235 752 L237 752 L238 753 L240 753 L242 753 L244 753 L245 753 L245 754 L245 755 L245 757 L246 760 L248 765 L249 765 L249 765 L249 766 L251 768 L252 769 L254 770 L255 772 L255 774 L256 777 L256 780 L258 788 L258 788 L257 799 L257 799 L256 799 L252 797 L251 797 L247 798 L243 797 L239 797 L235 796 L233 796 L231 796 L230 796 L227 797 L218 798 L215 798 L210 799 L209 798 L208 798 L207 798 L206 799 L206 799 L204 800 L189 798 L184 798 L179 798 L158 800 L143 802 L134 802 L130 803 L122 802 L114 797 L114 797 L114 797 L116 794 L118 791 L120 789 L121 787 L124 784 L127 781 L129 780 L132 779 L136 778 L139 777 L148 774 L150 772 L152 769 L153 765 L155 760 L157 756 L157 752 L157 749 L157 745 L157 743 L158 742 L158 742 L160 742 L161 742 L163 743 L167 744 L172 747 L175 747 L176 747 L178 746 L183 741 L189 735 L200 725 L208 716 L215 709 L219 704 L221 700 L221 700 L221 700 L222 700 L223 699 L223 697 L224 695 L225 694 L227 693 L228 693 L230 693 Z" fill="red" stroke="white" stroke-width="0.01">
 </path>
 <path d="M357 499 L357 502 L359 510 L360 514 L364 522 L367 526 L372 532 L377 537 L379 538 L381 538 L382 538 L383 537 L386 536 L389 535 L393 536 L398 538 L400 538 L400 538 L400 538 L401 539 L401 542 L401 543 L401 544 L403 546 L403 547 L404 548 L403 550 L402 552 L402 553 L402 554 L402 555 L403 558 L405 563 L406 564 L406 565 L404 565 L401 566 L398 566 L396 567 L395 567 L395 567 L395 567 L391 567 L388 567 L384 568 L379 569 L376 571 L374 572 L373 573 L373 574 L372 575 L371 576 L369 576 L368 575 L366 574 L364 573 L360 570 L358 567 L354 563 L352 560 L349 558 L345 557 L342 556 L336 555 L325 554 L319 554 L319 554 L318 554 L311 553 L306 552 L302 550 L299 549 L298 548 L298 548 L299 544 L300 542 L294 537 L295 532 L302 538 L305 539 L307 537 L304 533 L306 526 L307 523 L308 518 L310 515 L313 512 L317 510 L322 508 L324 507 L324 505 L324 505 L324 505 L326 505 L330 505 L335 505 L339 504 L344 501 L350 500 L354 499 L356 499 L357 499 Z" fill="red" stroke="white" stroke-width="0.01">
 </path>
 <path d="M515 756 L515 756 L514 757 L513 758 L513 759 L513 761 L513 767 L513 769 L513 773 L513 775 L513 777 L513 778 L514 778 L516 778 L517 778 L519 778 L521 777 L521 777 L521 777 L522 779 L522 782 L521 787 L521 788 L520 788 L519 789 L517 789 L516 790 L515 790 L515 792 L515 794 L516 795 L516 797 L517 800 L517 803 L516 806 L514 807 L510 811 L509 813 L507 814 L506 816 L504 817 L503 819 L502 819 L500 820 L499 820 L498 820 L496 820 L495 820 L493 820 L491 820 L489 821 L487 822 L485 824 L481 828 L480 833 L479 841 L479 841 L478 840 L476 841 L475 841 L474 842 L473 843 L473 844 L472 846 L472 847 L471 848 L471 849 L470 849 L470 849 L469 848 L470 847 L470 846 L469 845 L468 843 L468 842 L469 841 L470 840 L471 839 L471 838 L471 837 L471 837 L470 836 L469 835 L467 835 L466 835 L465 835 L464 835 L463 834 L462 832 L459 831 L456 829 L455 827 L455 827 L455 827 L454 824 L454 822 L456 818 L458 811 L460 800 L462 793 L464 791 L466 790 L468 789 L468 789 L468 789 L469 788 L471 787 L472 785 L473 784 L473 782 L474 780 L474 777 L474 775 L475 774 L476 774 L476 774 L478 776 L480 775 L484 772 L489 768 L496 761 L500 756 L504 747 L504 747 L505 748 L507 749 L508 749 L510 751 L512 754 L513 755 L514 756 L515 756 Z" fill="red" stroke="white" stroke-width="0.01">
 </path>
 <path d="M595 767 L596 768 L603 770 L606 771 L611 773 L614 775 L621 775 L627 775 L632 776 L633 777 L636 779 L639 783 L640 784 L643 792 L643 794 L643 794 L641 797 L639 799 L636 801 L630 808 L625 815 L621 821 L616 824 L607 828 L604 830 L600 833 L598 834 L588 848 L584 854 L584 854 L578 846 L576 842 L576 836 L575 833 L574 832 L574 832 L575 832 L575 832 L576 830 L575 829 L574 828 L573 827 L568 825 L567 824 L567 822 L567 820 L568 819 L568 818 L569 815 L569 813 L571 807 L572 803 L572 800 L572 797 L571 795 L570 793 L568 790 L561 786 L558 782 L555 780 L554 778 L553 776 L553 775 L553 775 L553 775 L553 773 L553 772 L553 771 L557 765 L558 763 L558 763 L560 759 L560 759 L560 759 L562 756 L566 755 L571 755 L583 762 L595 767 Z" fill="red" stroke="white" stroke-width="0.01">
 </path>
 <path d="M574 832 L574 833 L573 833 L571 834 L566 836 L563 836 L560 836 L554 835 L550 835 L546 837 L541 841 L539 843 L538 844 L537 844 L536 844 L534 844 L531 844 L525 846 L523 846 L521 845 L512 841 L506 840 L500 839 L497 839 L496 840 L494 841 L492 841 L492 841 L492 840 L489 840 L488 840 L487 840 L485 841 L483 841 L481 841 L479 841 L479 841 L480 833 L481 828 L485 824 L487 822 L489 821 L491 820 L493 820 L495 820 L496 820 L498 820 L499 820 L500 820 L502 819 L503 819 L504 817 L506 816 L507 814 L509 813 L510 811 L514 807 L516 806 L517 803 L517 800 L516 797 L516 795 L515 794 L515 792 L515 790 L516 790 L517 789 L519 789 L520 788 L521 788 L521 787 L522 782 L522 779 L521 777 L521 777 L522 777 L524 776 L528 776 L538 775 L549 775 L553 775 L553 775 L553 776 L554 778 L555 780 L558 782 L561 786 L568 790 L570 793 L571 795 L572 797 L572 800 L572 803 L571 807 L569 813 L569 815 L568 818 L568 819 L567 820 L567 822 L567 824 L568 825 L573 827 L574 828 L575 829 L576 830 L575 832 L575 832 L574 832 Z" fill="red" stroke="white" stroke-width="0.01">
 </path>
 <path d="M545 378 L542 380 L538 384 L533 389 L531 391 L530 393 L531 396 L532 400 L532 401 L532 401 L530 400 L526 398 L519 395 L512 393 L509 392 L500 392 L494 393 L491 394 L490 396 L490 397 L490 400 L489 402 L488 404 L487 406 L486 407 L485 408 L485 409 L484 411 L482 414 L480 415 L478 415 L476 416 L476 416 L476 414 L475 413 L474 411 L473 410 L471 410 L470 409 L467 409 L466 410 L464 411 L462 413 L461 414 L457 415 L454 415 L445 414 L438 413 L430 414 L428 416 L426 416 L426 415 L425 412 L425 408 L425 406 L424 401 L424 396 L426 393 L427 390 L427 388 L427 388 L428 388 L432 388 L435 386 L437 385 L438 384 L441 379 L446 372 L448 368 L452 363 L456 360 L460 355 L461 353 L464 351 L467 349 L469 344 L472 341 L474 336 L475 335 L478 327 L483 319 L491 310 L494 307 L496 306 L496 306 L496 309 L496 312 L497 317 L497 319 L498 321 L498 324 L501 326 L502 327 L505 327 L507 327 L509 328 L512 330 L514 331 L516 334 L518 337 L520 341 L523 347 L524 350 L529 361 L532 368 L532 371 L532 373 L533 374 L536 375 L541 377 L545 378 Z" fill="red" stroke="white" stroke-width="0.01">
 </path>
 <path d="M532 401 L532 401 L533 406 L535 411 L534 413 L534 417 L533 421 L528 427 L524 432 L522 434 L518 436 L518 436 L516 437 L513 441 L509 446 L507 451 L506 455 L505 455 L505 455 L495 455 L485 455 L483 455 L483 455 L481 452 L478 441 L477 428 L477 423 L476 419 L476 417 L476 416 L476 416 L478 415 L480 415 L482 414 L484 411 L485 409 L485 408 L486 407 L487 406 L488 404 L489 402 L490 400 L490 397 L490 396 L491 394 L494 393 L500 392 L509 392 L512 393 L519 395 L526 398 L530 400 L532 401 Z" fill="red" stroke="white" stroke-width="0.01">
 </path>
 <path d="M474 458 L473 458 L473 459 L473 461 L475 463 L477 466 L478 469 L479 474 L478 481 L477 486 L474 490 L472 491 L472 491 L469 490 L463 489 L452 486 L446 486 L438 484 L430 484 L424 485 L423 485 L423 485 L423 484 L422 482 L421 478 L421 475 L422 470 L422 469 L422 469 L424 469 L427 470 L428 471 L429 471 L430 471 L431 471 L433 471 L434 473 L435 473 L436 472 L439 470 L442 470 L443 470 L444 468 L444 468 L445 467 L447 466 L450 466 L451 466 L452 466 L455 465 L459 464 L462 463 L463 462 L464 461 L464 460 L465 459 L465 458 L467 457 L470 456 L472 456 L473 456 L474 458 Z" fill="red" stroke="white" stroke-width="0.01">
 </path>
 <path d="M427 388 L427 390 L426 393 L424 396 L424 401 L425 406 L425 408 L425 412 L426 415 L426 416 L428 416 L430 414 L438 413 L445 414 L454 415 L457 415 L461 414 L462 413 L464 411 L466 410 L467 409 L470 409 L471 410 L473 410 L474 411 L475 413 L476 414 L476 416 L476 416 L476 417 L476 419 L477 423 L477 428 L478 441 L481 452 L483 455 L483 455 L481 456 L477 456 L476 457 L474 458 L474 458 L474 458 L473 456 L472 456 L470 456 L467 457 L465 458 L465 459 L464 460 L464 461 L463 462 L462 463 L459 464 L455 465 L452 466 L451 466 L450 466 L447 466 L445 467 L444 468 L444 468 L443 470 L442 470 L439 470 L436 472 L435 473 L434 473 L433 471 L431 471 L430 471 L429 471 L428 471 L427 470 L424 469 L422 469 L422 469 L422 469 L421 467 L419 465 L413 462 L408 460 L403 458 L398 453 L396 449 L393 446 L392 445 L391 444 L389 444 L386 444 L384 444 L382 442 L380 440 L378 440 L377 439 L375 439 L373 439 L371 439 L369 439 L369 439 L370 437 L376 427 L381 417 L383 406 L386 395 L389 389 L391 385 L391 385 L391 385 L394 384 L397 384 L399 384 L401 384 L405 384 L409 385 L411 385 L416 387 L423 388 L425 389 L427 388 Z" fill="red" stroke="white" stroke-width="0.01">
 </path>
 <path d="M298 548 L299 549 L302 550 L306 552 L311 553 L318 554 L319 554 L319 554 L319 557 L320 558 L320 561 L321 565 L321 567 L320 569 L319 571 L318 571 L317 572 L314 573 L310 575 L307 576 L305 577 L304 579 L301 584 L300 592 L299 601 L298 607 L295 612 L293 616 L293 616 L289 615 L286 613 L282 612 L279 612 L276 612 L274 611 L271 611 L268 610 L268 610 L268 610 L265 608 L255 603 L248 599 L246 598 L243 594 L243 594 L247 592 L249 588 L254 580 L256 577 L258 565 L264 556 L266 551 L268 546 L266 542 L263 538 L263 538 L264 538 L265 538 L266 539 L268 541 L269 543 L271 544 L275 545 L278 546 L280 548 L281 548 L283 548 L284 547 L286 547 L289 547 L291 547 L294 547 L296 547 L296 547 L298 548 L298 548 Z" fill="red" stroke="white" stroke-width="0.01">
 </path>
 <path d="M422 469 L422 470 L421 475 L421 478 L422 482 L423 484 L423 485 L423 485 L423 485 L422 486 L421 487 L421 489 L420 491 L421 493 L420 496 L420 500 L417 508 L415 510 L414 514 L414 521 L414 525 L414 527 L414 527 L414 527 L413 528 L411 529 L407 532 L404 536 L402 537 L401 538 L400 538 L400 538 L400 538 L398 538 L393 536 L389 535 L386 536 L383 537 L382 538 L381 538 L379 538 L377 537 L372 532 L367 526 L364 522 L360 514 L359 510 L357 502 L357 499 L357 499 L358 495 L357 493 L355 492 L354 491 L355 489 L356 487 L356 485 L356 478 L355 464 L354 460 L354 456 L354 456 L354 456 L356 454 L360 450 L367 442 L369 439 L369 439 L371 439 L373 439 L375 439 L377 439 L378 440 L380 440 L382 442 L384 444 L386 444 L389 444 L391 444 L392 445 L393 446 L396 449 L398 453 L403 458 L408 460 L413 462 L419 465 L421 467 L422 469 L422 469 Z" fill="red" stroke="white" stroke-width="0.01">
 </path>
 <path d="M580 652 L582 653 L594 655 L598 657 L600 657 L600 658 L600 658 L600 658 L600 660 L600 663 L599 669 L598 678 L596 685 L596 685 L594 690 L591 700 L590 715 L590 718 L590 721 L592 721 L592 721 L592 721 L593 723 L593 728 L594 732 L595 734 L594 739 L595 742 L595 746 L595 750 L595 754 L595 756 L595 759 L595 761 L595 764 L595 767 L595 767 L583 762 L571 755 L566 755 L562 756 L560 759 L560 759 L560 759 L559 757 L559 751 L558 748 L557 739 L556 738 L553 737 L550 734 L549 732 L548 729 L548 725 L548 724 L548 724 L548 724 L549 723 L553 721 L557 718 L560 718 L564 718 L567 718 L569 718 L571 718 L572 717 L573 711 L573 705 L573 705 L573 701 L572 701 L566 700 L557 699 L550 698 L544 696 L544 696 L544 696 L538 693 L532 690 L531 690 L533 686 L536 681 L538 677 L538 677 L540 675 L541 674 L542 671 L544 669 L544 666 L546 665 L546 661 L546 658 L546 655 L545 653 L544 651 L543 649 L543 647 L543 647 L543 647 L548 646 L555 645 L563 647 L570 650 L574 651 L576 652 L578 652 L580 652 Z" fill="red" stroke="white" stroke-width="0.01">
 </path>
 <path d="M543 647 L543 649 L544 651 L545 653 L546 655 L546 658 L546 661 L546 665 L544 666 L544 669 L542 671 L541 674 L540 675 L538 677 L538 677 L536 681 L533 686 L531 690 L532 690 L538 693 L544 696 L544 696 L544 696 L544 697 L542 699 L539 701 L531 709 L527 714 L527 714 L524 716 L521 722 L517 731 L516 736 L515 744 L516 747 L516 749 L517 750 L518 752 L518 753 L518 754 L516 756 L515 756 L515 756 L514 756 L513 755 L512 754 L510 751 L508 749 L507 749 L505 748 L504 747 L504 747 L504 747 L506 744 L508 735 L507 732 L504 725 L501 721 L499 720 L495 719 L490 718 L488 717 L487 715 L487 715 L488 714 L489 713 L489 712 L489 712 L490 712 L492 712 L494 711 L497 708 L499 704 L501 700 L502 698 L504 698 L506 697 L507 697 L509 698 L512 698 L514 697 L516 697 L518 696 L519 695 L519 695 L521 693 L522 691 L523 689 L521 687 L521 687 L522 685 L524 681 L526 675 L529 667 L531 661 L531 658 L530 651 L529 648 L529 647 L530 645 L530 645 L530 645 L531 646 L532 646 L534 647 L538 647 L543 647 Z" fill="red" stroke="white" stroke-width="0.01">
 </path>
 <path d="M731 690 L730 692 L730 695 L730 702 L731 712 L731 721 L731 727 L731 728 L730 728 L730 728 L730 732 L729 734 L728 742 L723 759 L721 769 L719 775 L716 780 L714 783 L713 784 L711 786 L708 789 L703 791 L693 793 L682 794 L667 793 L667 793 L670 790 L674 784 L680 773 L682 768 L684 761 L689 754 L691 748 L693 744 L693 742 L693 742 L692 741 L692 741 L691 741 L690 741 L688 741 L686 741 L684 739 L683 736 L683 735 L683 733 L683 732 L684 727 L686 723 L688 722 L688 721 L688 720 L687 718 L686 716 L685 714 L684 712 L683 709 L683 706 L682 702 L682 702 L682 702 L683 702 L685 703 L690 705 L691 705 L692 705 L692 704 L692 702 L691 700 L691 697 L689 692 L687 686 L688 686 L688 685 L690 686 L693 687 L695 688 L697 688 L698 689 L700 690 L703 690 L705 690 L707 690 L708 691 L712 693 L714 693 L715 693 L720 691 L722 690 L724 690 L728 690 L731 690 Z" fill="red" stroke="white" stroke-width="0.01">
 </path>
 <path d="M731 690 L728 690 L724 690 L722 690 L720 691 L715 693 L714 693 L712 693 L708 691 L707 690 L705 690 L703 690 L700 690 L698 689 L697 688 L695 688 L693 687 L690 686 L688 685 L688 686 L687 686 L689 692 L691 697 L691 700 L692 702 L692 704 L692 705 L691 705 L690 705 L685 703 L683 702 L682 702 L682 702 L682 701 L676 699 L669 698 L664 698 L662 699 L662 699 L661 701 L661 702 L660 703 L658 703 L652 704 L646 707 L643 708 L641 709 L639 709 L638 709 L637 709 L635 708 L635 708 L635 708 L636 705 L639 700 L642 691 L643 687 L644 684 L643 683 L643 683 L642 684 L640 684 L638 684 L636 683 L636 683 L635 683 L632 685 L630 688 L629 689 L629 689 L628 689 L627 688 L626 687 L626 686 L625 686 L623 686 L622 687 L621 688 L620 688 L619 688 L617 686 L616 685 L614 685 L612 685 L610 686 L609 688 L608 690 L608 691 L607 692 L606 692 L605 692 L603 691 L602 689 L601 688 L600 686 L598 685 L597 685 L596 685 L596 685 L598 678 L599 669 L600 663 L600 660 L600 658 L600 658 L600 658 L600 658 L602 657 L608 657 L618 658 L627 659 L638 659 L647 659 L649 659 L650 659 L651 658 L651 657 L652 652 L652 641 L653 637 L654 635 L654 635 L654 636 L657 641 L663 644 L674 651 L682 654 L692 657 L704 659 L710 659 L716 659 L722 660 L727 662 L732 667 L736 674 L737 678 L737 680 L736 683 L733 686 L732 688 L732 688 L731 690 Z" fill="red" stroke="white" stroke-width="0.01">
 </path>
 <path d="M682 702 L682 702 L683 706 L683 709 L684 712 L685 714 L686 716 L687 718 L688 720 L688 721 L688 722 L686 723 L684 727 L683 732 L683 733 L683 735 L683 736 L684 739 L686 741 L688 741 L690 741 L691 741 L692 741 L692 741 L693 742 L693 742 L693 744 L691 748 L689 754 L684 761 L682 768 L680 773 L674 784 L670 790 L667 793 L667 793 L664 793 L648 792 L646 792 L645 792 L643 794 L643 794 L643 794 L643 792 L640 784 L639 783 L636 779 L633 777 L632 776 L627 775 L621 775 L614 775 L611 773 L606 771 L603 770 L596 768 L595 767 L595 767 L595 764 L595 761 L595 759 L595 756 L595 754 L595 750 L595 746 L595 742 L594 739 L595 734 L594 732 L593 728 L593 723 L592 721 L592 721 L593 721 L594 721 L596 721 L599 721 L601 721 L603 721 L605 720 L608 721 L615 720 L624 718 L628 718 L632 717 L634 716 L634 716 L635 714 L635 711 L635 708 L635 708 L635 708 L637 709 L638 709 L639 709 L641 709 L643 708 L646 707 L652 704 L658 703 L660 703 L661 702 L661 701 L662 699 L662 699 L664 698 L669 698 L676 699 L682 701 L682 702 Z" fill="red" stroke="white" stroke-width="0.01">
 </path>
 <path d="M654 635 L653 637 L652 641 L652 652 L651 657 L651 658 L650 659 L649 659 L647 659 L638 659 L627 659 L618 658 L608 657 L602 657 L600 658 L600 658 L600 658 L600 657 L598 657 L594 655 L582 653 L580 652 L580 652 L580 650 L580 647 L580 644 L582 641 L586 638 L594 632 L598 629 L601 626 L603 623 L605 621 L606 620 L609 617 L609 617 L610 617 L614 618 L619 620 L621 622 L624 623 L626 623 L629 622 L631 622 L635 621 L638 622 L644 623 L649 624 L651 625 L651 627 L652 629 L652 631 L653 633 L654 635 L654 635 Z" fill="red" stroke="white" stroke-width="0.01">
 </path>
 <path d="M635 708 L635 708 L635 711 L635 714 L634 716 L634 716 L632 717 L628 718 L624 718 L615 720 L608 721 L605 720 L603 721 L601 721 L599 721 L596 721 L594 721 L593 721 L592 721 L592 721 L592 721 L590 721 L590 718 L590 715 L591 700 L594 690 L596 685 L596 685 L597 685 L598 685 L600 686 L601 688 L602 689 L603 691 L605 692 L606 692 L607 692 L608 691 L608 690 L609 688 L610 686 L612 685 L614 685 L616 685 L617 686 L619 688 L620 688 L621 688 L622 687 L623 686 L625 686 L626 686 L626 687 L627 688 L628 689 L629 689 L629 689 L630 688 L632 685 L635 683 L636 683 L636 683 L638 684 L640 684 L642 684 L643 683 L643 683 L644 684 L643 687 L642 691 L639 700 L636 705 L635 708 L635 708 Z" fill="red" stroke="white" stroke-width="0.01">
 </path>
 <path d="M391 385 L389 389 L386 395 L383 406 L381 417 L376 427 L370 437 L369 439 L369 439 L367 442 L360 450 L356 454 L354 456 L354 456 L353 455 L350 453 L341 450 L335 449 L331 449 L328 450 L326 451 L322 452 L318 451 L312 451 L306 451 L298 450 L295 449 L294 449 L294 449 L292 448 L291 448 L291 448 L289 447 L286 446 L285 444 L285 443 L285 443 L284 442 L283 438 L282 434 L280 428 L281 425 L280 423 L279 420 L278 418 L275 417 L271 412 L269 409 L269 407 L269 405 L269 398 L270 395 L271 392 L271 392 L273 392 L275 393 L277 393 L278 392 L279 391 L279 391 L284 391 L290 393 L295 393 L298 391 L304 391 L309 392 L313 392 L318 390 L321 388 L321 385 L321 385 L323 387 L326 390 L326 390 L329 391 L335 393 L344 395 L352 397 L359 397 L365 396 L369 395 L374 393 L382 390 L388 387 L391 385 Z" fill="red" stroke="white" stroke-width="0.01">
 </path>
 <path d="M414 527 L414 527 L416 530 L418 532 L422 534 L426 537 L429 537 L430 537 L432 536 L432 536 L434 537 L436 538 L436 538 L435 540 L434 543 L434 545 L433 548 L431 551 L429 559 L429 560 L430 561 L431 561 L432 560 L433 560 L434 560 L435 561 L435 562 L434 563 L433 564 L431 566 L430 569 L430 572 L430 574 L430 577 L430 582 L429 587 L429 593 L429 601 L428 602 L428 603 L429 604 L431 607 L436 610 L438 611 L442 612 L442 612 L439 618 L439 620 L439 621 L439 623 L440 625 L443 628 L444 629 L445 630 L445 630 L444 631 L442 633 L438 635 L431 637 L428 638 L426 638 L425 639 L425 639 L425 641 L424 641 L424 642 L423 642 L420 642 L415 642 L408 642 L400 641 L397 641 L388 640 L385 640 L385 640 L387 637 L387 632 L388 625 L390 614 L392 598 L393 586 L395 577 L395 572 L395 567 L395 567 L396 567 L398 566 L401 566 L404 565 L406 565 L406 564 L405 563 L403 558 L402 555 L402 554 L402 553 L402 552 L403 550 L404 548 L403 547 L403 546 L401 544 L401 543 L401 542 L401 539 L400 538 L400 538 L401 538 L402 537 L404 536 L407 532 L411 529 L413 528 L414 527 L414 527 Z" fill="red" stroke="white" stroke-width="0.01">
 </path>
 <path d="M485 930 L485 934 L484 936 L484 937 L481 943 L479 948 L475 951 L473 952 L470 954 L465 957 L461 958 L457 959 L456 959 L450 957 L447 957 L445 956 L444 956 L443 957 L443 958 L443 960 L443 960 L440 962 L436 963 L433 963 L430 965 L426 966 L424 968 L418 969 L418 969 L417 969 L416 970 L415 971 L415 971 L412 971 L411 971 L410 971 L407 971 L407 971 L407 969 L408 969 L410 965 L411 962 L412 957 L412 953 L412 951 L411 949 L411 947 L412 946 L413 944 L415 940 L418 936 L420 933 L421 931 L422 930 L424 929 L425 929 L426 929 L429 930 L431 930 L432 931 L434 932 L436 932 L437 932 L438 932 L442 932 L444 933 L445 933 L446 933 L447 933 L447 933 L446 930 L445 927 L443 926 L443 924 L442 922 L442 920 L442 918 L444 916 L445 916 L445 916 L446 917 L449 919 L454 919 L461 919 L465 919 L465 920 L466 923 L468 925 L470 926 L474 926 L479 925 L482 927 L484 928 L485 930 Z" fill="red" stroke="white" stroke-width="0.01">
 </path>
 <path d="M600 339 L592 342 L583 346 L576 351 L574 355 L572 358 L569 362 L564 365 L559 368 L558 368 L558 368 L557 368 L556 367 L554 369 L548 375 L545 378 L545 378 L541 377 L536 375 L533 374 L532 373 L532 371 L532 368 L529 361 L524 350 L523 347 L520 341 L518 337 L516 334 L514 331 L512 330 L509 328 L507 327 L505 327 L502 327 L501 326 L498 324 L498 321 L497 319 L497 317 L496 312 L496 309 L496 306 L496 306 L497 305 L502 303 L508 298 L516 291 L526 282 L532 279 L532 279 L532 279 L532 279 L541 281 L550 280 L558 278 L562 277 L565 278 L571 279 L581 281 L593 282 L605 282 L611 283 L615 284 L615 284 L622 284 L624 284 L625 284 L626 284 L627 286 L627 286 L627 288 L625 290 L620 295 L618 297 L613 303 L609 310 L606 316 L603 318 L601 320 L601 322 L601 323 L602 324 L603 325 L604 326 L603 330 L601 335 L600 339 Z" fill="red" stroke="white" stroke-width="0.01">
 </path>
 <path d="M482 647 L482 648 L481 648 L480 653 L480 658 L479 664 L479 669 L479 673 L480 677 L482 685 L484 689 L486 692 L488 695 L488 695 L488 696 L487 700 L487 700 L484 698 L479 696 L476 695 L476 695 L472 694 L466 692 L451 689 L447 688 L445 688 L443 688 L441 688 L440 689 L438 689 L436 690 L434 691 L432 691 L431 690 L431 689 L431 688 L430 686 L430 686 L429 686 L428 685 L426 685 L425 684 L423 683 L423 681 L423 681 L423 681 L423 679 L423 678 L424 676 L426 664 L427 661 L429 656 L430 654 L431 653 L432 651 L433 650 L435 650 L437 650 L441 649 L444 648 L451 647 L457 646 L465 645 L470 644 L472 643 L472 643 L472 643 L475 642 L477 643 L479 643 L481 646 L482 647 L482 647 L482 647 Z" fill="red" stroke="white" stroke-width="0.01">
 </path>
 <path d="M472 643 L470 644 L465 645 L457 646 L451 647 L444 648 L441 649 L437 650 L435 650 L433 650 L432 651 L431 653 L430 654 L429 656 L427 661 L426 664 L424 676 L423 678 L423 679 L423 681 L423 681 L419 682 L414 682 L410 682 L408 683 L406 684 L405 684 L405 684 L405 684 L405 682 L405 680 L404 678 L403 676 L402 674 L400 671 L400 669 L398 666 L396 664 L391 660 L386 657 L384 653 L383 651 L382 650 L381 649 L380 649 L380 649 L381 647 L384 643 L385 640 L385 640 L388 640 L397 641 L400 641 L408 642 L415 642 L420 642 L423 642 L424 642 L424 641 L425 641 L425 639 L425 639 L426 638 L428 638 L431 637 L438 635 L442 633 L444 631 L445 630 L445 630 L446 631 L450 633 L453 634 L457 634 L465 637 L468 638 L470 641 L472 643 Z" fill="red" stroke="white" stroke-width="0.01">
 </path>
 <path d="M476 695 L475 695 L475 697 L475 700 L476 703 L476 705 L476 707 L476 710 L476 712 L475 714 L474 715 L473 716 L471 718 L467 721 L459 727 L456 731 L454 732 L453 733 L453 733 L452 734 L449 736 L445 739 L444 740 L441 741 L436 741 L431 741 L427 742 L426 743 L424 745 L418 753 L411 763 L405 773 L404 775 L404 775 L399 775 L396 774 L394 773 L393 774 L393 774 L392 773 L391 774 L390 774 L389 776 L387 779 L385 781 L384 781 L384 781 L383 779 L382 777 L380 774 L378 771 L378 767 L378 766 L378 764 L378 763 L377 763 L376 764 L375 765 L374 765 L373 765 L373 764 L372 764 L370 763 L370 763 L370 762 L371 761 L372 760 L373 758 L373 757 L372 756 L371 755 L370 755 L370 755 L369 754 L369 753 L369 752 L368 750 L367 745 L366 744 L365 743 L365 743 L365 743 L364 743 L363 742 L362 742 L360 742 L360 742 L359 741 L358 740 L359 739 L359 737 L359 735 L358 733 L357 728 L356 725 L356 723 L356 722 L355 721 L355 720 L354 718 L353 717 L352 716 L352 716 L353 715 L354 715 L355 715 L358 715 L364 712 L369 708 L373 704 L380 701 L383 700 L388 700 L389 699 L391 698 L392 696 L394 693 L396 691 L398 691 L400 691 L402 689 L404 687 L405 685 L405 684 L405 684 L406 684 L408 683 L410 682 L414 682 L419 682 L423 681 L423 681 L423 681 L423 683 L425 684 L426 685 L428 685 L429 686 L430 686 L430 686 L431 688 L431 689 L431 690 L432 691 L434 691 L436 690 L438 689 L440 689 L441 688 L443 688 L445 688 L447 688 L451 689 L466 692 L472 694 L476 695 Z" fill="red" stroke="white" stroke-width="0.01">
 </path>
</svg>