<svg height="1000" width="1493.4972015312542" xmlns="http://www.w3.org/2000/svg">
 <path d="M602 675 L597 682 L593 688 L590 692 L590 694 L586 697 L583 701 L587 704 L589 712 L596 716 L601 716 L614 722 L636 719 L648 721 L656 725 L657 726 L657 726 L654 729 L652 732 L653 737 L653 743 L653 744 L651 747 L651 747 L649 747 L646 746 L644 745 L643 745 L642 744 L640 745 L639 745 L639 746 L636 747 L632 746 L629 747 L629 747 L627 748 L624 750 L615 750 L613 749 L611 748 L609 748 L607 748 L606 749 L606 749 L605 750 L603 750 L598 751 L591 751 L587 750 L584 747 L576 747 L575 746 L571 743 L569 742 L566 741 L565 740 L562 734 L557 731 L554 726 L547 723 L546 721 L543 720 L536 714 L526 710 L522 713 L522 713 L517 706 L517 705 L517 705 L519 703 L531 691 L568 665 L569 665 L569 665 L569 664 L569 664 L569 664 L588 672 L591 673 L602 675 Z" fill="red" stroke="white" stroke-width="0.01">
 </path>
 <path d="M1385 582 L1370 588 L1346 595 L1331 605 L1323 612 L1320 621 L1315 629 L1304 635 L1296 635 L1288 637 L1285 637 L1283 636 L1281 636 L1279 637 L1271 634 L1269 638 L1266 639 L1261 640 L1256 640 L1255 636 L1248 636 L1246 634 L1241 633 L1235 637 L1230 633 L1226 637 L1222 639 L1220 639 L1216 642 L1208 641 L1208 647 L1205 650 L1205 650 L1201 648 L1193 647 L1184 646 L1179 648 L1172 651 L1167 652 L1150 663 L1144 665 L1144 665 L1143 663 L1143 663 L1142 661 L1139 652 L1131 619 L1127 614 L1125 610 L1125 609 L1125 606 L1127 605 L1130 603 L1132 602 L1137 594 L1147 584 L1153 577 L1156 573 L1157 571 L1159 568 L1161 568 L1163 568 L1167 564 L1169 557 L1171 555 L1172 551 L1170 545 L1168 541 L1166 538 L1165 538 L1169 530 L1168 529 L1166 527 L1165 525 L1164 522 L1162 519 L1162 517 L1164 509 L1164 505 L1162 502 L1162 501 L1160 501 L1155 502 L1154 501 L1152 498 L1149 497 L1148 495 L1148 493 L1149 491 L1151 490 L1152 490 L1158 491 L1159 491 L1161 490 L1165 483 L1167 476 L1167 474 L1167 474 L1173 477 L1177 480 L1180 484 L1181 485 L1183 491 L1185 497 L1186 498 L1189 500 L1191 502 L1193 502 L1196 500 L1206 489 L1217 489 L1233 494 L1246 503 L1263 513 L1274 521 L1286 528 L1294 534 L1307 539 L1319 542 L1326 545 L1328 548 L1338 552 L1340 555 L1357 561 L1357 566 L1359 567 L1359 567 L1365 571 L1371 573 L1376 575 L1385 582 Z" fill="red" stroke="white" stroke-width="0.01">
 </path>
 <path d="M772 609 L772 611 L769 614 L769 616 L770 626 L771 633 L771 633 L767 636 L764 638 L762 641 L760 644 L754 646 L749 650 L741 650 L737 651 L732 652 L728 654 L726 657 L726 662 L722 666 L722 666 L722 664 L722 663 L722 663 L702 651 L701 651 L699 651 L698 651 L697 650 L697 650 L696 651 L694 655 L694 656 L694 656 L692 658 L689 662 L685 667 L681 670 L681 670 L680 665 L676 662 L676 656 L679 653 L679 653 L682 647 L686 638 L689 629 L694 621 L702 614 L713 607 L713 607 L713 617 L713 617 L713 619 L713 620 L716 621 L732 619 L744 615 L746 614 L750 613 L756 612 L762 609 L769 609 L772 609 Z" fill="red" stroke="white" stroke-width="0.01">
 </path>
 <path d="M821 417 L815 426 L812 434 L811 444 L811 457 L808 476 L804 490 L803 495 L803 495 L799 500 L797 501 L795 502 L793 504 L790 506 L787 510 L780 516 L780 516 L778 516 L773 514 L770 514 L766 511 L761 511 L759 509 L751 505 L742 504 L737 503 L733 503 L729 502 L720 501 L720 501 L721 495 L721 495 L720 490 L720 486 L720 483 L719 480 L719 475 L719 470 L719 469 L721 469 L723 469 L724 468 L728 468 L729 468 L729 463 L733 462 L740 459 L744 453 L747 449 L754 444 L754 439 L751 440 L751 435 L753 431 L757 431 L757 431 L760 430 L763 427 L764 425 L767 421 L771 419 L778 420 L780 422 L785 415 L788 408 L793 402 L793 402 L793 406 L795 408 L802 413 L805 416 L810 418 L813 416 L817 415 L821 417 Z" fill="red" stroke="white" stroke-width="0.01">
 </path>
 <path d="M940 225 L940 228 L937 234 L934 235 L930 239 L927 239 L924 239 L921 239 L916 241 L912 243 L907 245 L905 246 L905 246 L901 246 L897 245 L891 245 L882 242 L874 241 L868 240 L858 235 L854 235 L848 236 L848 236 L843 234 L840 232 L838 229 L834 230 L832 233 L830 238 L827 239 L827 239 L826 237 L825 233 L827 229 L827 224 L830 222 L833 221 L832 218 L839 216 L839 216 L840 218 L841 220 L842 222 L844 223 L846 223 L851 222 L855 222 L863 223 L864 223 L866 223 L868 223 L870 222 L870 219 L867 213 L867 212 L872 207 L874 208 L877 209 L881 215 L884 218 L886 219 L887 218 L888 217 L886 207 L887 206 L889 205 L892 206 L902 212 L910 214 L913 214 L915 214 L918 215 L922 216 L924 217 L926 219 L928 222 L930 225 L932 227 L934 226 L938 225 L940 225 L940 225 Z" fill="red" stroke="white" stroke-width="0.01">
 </path>
 <path d="M700 503 L699 505 L700 508 L701 512 L702 514 L709 514 L717 514 L725 514 L723 508 L720 505 L720 503 L720 501 L720 501 L729 502 L733 503 L737 503 L742 504 L751 505 L759 509 L761 511 L766 511 L770 514 L773 514 L778 516 L780 516 L780 516 L776 523 L774 533 L774 537 L774 537 L746 542 L728 548 L729 560 L729 560 L718 560 L700 561 L700 561 L706 557 L705 553 L703 549 L703 545 L703 540 L699 534 L696 530 L695 525 L694 518 L686 511 L679 505 L676 502 L676 502 L680 498 L685 497 L692 498 L696 501 L700 503 Z" fill="red" stroke="white" stroke-width="0.01">
 </path>
 <path d="M292 343 L293 353 L293 365 L289 372 L289 372 L279 374 L270 373 L261 378 L256 385 L250 385 L243 386 L240 386 L237 381 L233 381 L234 386 L232 387 L232 392 L228 389 L225 391 L223 394 L223 394 L220 388 L216 388 L213 384 L211 383 L208 379 L206 376 L204 374 L199 370 L193 368 L187 368 L179 368 L176 362 L176 362 L176 356 L174 349 L172 340 L169 333 L165 327 L162 322 L160 318 L156 310 L162 309 L165 305 L165 305 L168 303 L174 302 L174 302 L174 305 L179 308 L182 315 L184 319 L185 324 L188 329 L191 337 L194 344 L199 349 L206 354 L215 347 L218 352 L225 360 L227 365 L230 368 L234 360 L245 358 L253 353 L260 350 L264 351 L273 351 L282 349 L289 346 L292 343 Z" fill="red" stroke="white" stroke-width="0.01">
 </path>
 <path d="M277 266 L283 279 L286 285 L286 285 L274 282 L274 289 L276 294 L274 300 L274 306 L269 308 L265 305 L263 301 L260 297 L257 293 L253 291 L249 289 L245 287 L244 289 L234 289 L227 289 L223 288 L215 289 L216 290 L220 302 L220 304 L214 309 L207 308 L202 305 L200 299 L200 299 L197 294 L199 285 L200 280 L200 276 L198 269 L199 266 L203 264 L204 261 L198 258 L194 250 L186 241 L181 236 L180 232 L175 227 L175 227 L185 219 L193 212 L196 210 L211 199 L212 198 L215 195 L218 195 L221 195 L225 197 L227 199 L228 201 L235 204 L241 211 L244 223 L246 236 L248 242 L252 246 L257 250 L264 252 L267 253 L267 253 L268 253 L269 253 L270 255 L272 259 L275 264 L277 266 Z" fill="red" stroke="white" stroke-width="0.01">
 </path>
 <path d="M651 747 L650 757 L651 765 L655 772 L662 783 L662 789 L660 796 L658 800 L654 805 L649 820 L649 820 L637 823 L629 820 L626 821 L624 821 L617 817 L608 817 L601 814 L595 812 L593 811 L593 811 L592 810 L593 810 L598 799 L603 773 L606 749 L606 749 L607 748 L609 748 L611 748 L613 749 L615 750 L624 750 L627 748 L629 747 L629 747 L632 746 L636 747 L639 746 L639 745 L640 745 L642 744 L643 745 L644 745 L646 746 L649 747 L651 747 Z" fill="red" stroke="white" stroke-width="0.01">
 </path>
 <path d="M606 749 L603 773 L598 799 L593 810 L592 810 L593 811 L593 811 L586 819 L584 820 L581 825 L578 827 L575 828 L575 828 L574 823 L574 823 L572 818 L569 815 L568 813 L566 808 L562 803 L557 800 L555 797 L553 792 L552 789 L547 783 L543 779 L539 777 L538 776 L537 774 L534 770 L530 766 L526 761 L525 758 L523 754 L522 752 L522 749 L517 736 L519 731 L522 726 L522 724 L523 724 L523 721 L523 717 L522 713 L522 713 L526 710 L536 714 L543 720 L546 721 L547 723 L554 726 L557 731 L562 734 L565 740 L566 741 L569 742 L571 743 L575 746 L576 747 L584 747 L587 750 L591 751 L598 751 L603 750 L605 750 L606 749 Z" fill="red" stroke="white" stroke-width="0.01">
 </path>
 <path d="M638 857 L638 858 L639 861 L640 864 L640 867 L632 879 L629 883 L628 888 L629 893 L631 896 L634 901 L640 906 L642 910 L641 914 L639 917 L637 919 L632 923 L623 926 L619 927 L618 929 L617 938 L617 938 L617 938 L614 938 L612 940 L609 941 L608 942 L604 944 L600 947 L597 950 L595 950 L590 948 L588 948 L586 949 L584 949 L582 947 L580 946 L578 945 L577 945 L570 944 L568 943 L566 941 L564 938 L561 936 L559 935 L557 935 L556 935 L552 933 L547 932 L546 931 L547 930 L548 929 L549 928 L549 928 L550 927 L549 925 L547 924 L545 923 L543 922 L543 919 L541 918 L539 917 L537 916 L537 916 L531 916 L529 914 L528 912 L528 908 L527 905 L526 901 L526 898 L526 896 L528 894 L533 890 L536 887 L538 884 L539 880 L541 877 L541 876 L541 876 L554 881 L550 897 L551 897 L556 897 L558 897 L563 896 L566 894 L570 892 L573 889 L576 884 L579 877 L577 865 L577 863 L577 863 L597 862 L609 861 L612 860 L614 858 L616 856 L618 856 L621 855 L628 856 L631 856 L634 857 L638 857 Z" fill="red" stroke="white" stroke-width="0.01">
 </path>
 <path d="M883 69 L860 81 L857 83 L851 88 L839 95 L803 117 L800 118 L799 120 L797 121 L795 121 L792 121 L787 122 L785 123 L784 125 L784 125 L784 125 L777 123 L772 123 L769 124 L763 125 L762 124 L760 123 L759 121 L757 118 L755 114 L755 114 L753 110 L752 106 L751 104 L748 103 L736 102 L733 101 L730 97 L728 94 L724 88 L723 86 L725 83 L724 81 L723 80 L722 80 L721 80 L709 79 L706 77 L705 76 L704 73 L703 71 L704 68 L706 67 L709 66 L711 64 L712 63 L712 63 L712 63 L718 61 L719 61 L720 61 L722 61 L730 63 L735 62 L738 62 L740 61 L740 58 L743 54 L746 53 L754 50 L759 49 L762 48 L764 49 L765 49 L765 49 L767 49 L768 50 L770 51 L772 51 L773 52 L776 52 L777 52 L783 55 L784 56 L785 56 L788 58 L795 62 L798 62 L809 64 L814 64 L821 65 L826 64 L830 64 L834 63 L844 62 L844 62 L850 60 L861 58 L869 59 L877 61 L881 64 L881 64 L882 66 L883 68 L883 69 Z" fill="red" stroke="white" stroke-width="0.01">
 </path>
 <path d="M905 246 L903 252 L901 258 L895 263 L890 267 L884 270 L885 278 L885 281 L882 289 L881 292 L880 296 L880 303 L879 307 L875 309 L870 309 L867 310 L865 316 L862 321 L858 320 L858 320 L856 320 L856 320 L856 319 L850 317 L850 315 L853 306 L856 295 L856 291 L856 290 L856 290 L858 289 L861 284 L863 282 L865 278 L865 276 L861 271 L860 268 L857 261 L856 258 L855 251 L855 244 L853 243 L850 240 L848 236 L848 236 L854 235 L858 235 L868 240 L874 241 L882 242 L891 245 L897 245 L901 246 L905 246 Z" fill="red" stroke="white" stroke-width="0.01">
 </path>
 <path d="M633 530 L634 530 L635 533 L641 535 L643 543 L643 554 L640 560 L640 569 L640 569 L636 571 L633 573 L627 578 L625 581 L625 581 L620 585 L612 593 L603 607 L594 616 L592 622 L591 630 L590 634 L588 646 L588 654 L585 657 L582 660 L579 662 L574 664 L569 664 L569 664 L542 646 L535 642 L515 634 L514 633 L514 633 L514 633 L515 632 L515 631 L519 626 L530 614 L530 614 L530 614 L536 611 L544 608 L552 606 L564 606 L571 603 L575 601 L577 595 L577 585 L576 581 L576 581 L582 575 L584 565 L586 559 L583 554 L585 548 L585 548 L592 549 L596 552 L601 552 L606 548 L608 545 L609 538 L610 533 L621 530 L627 532 L631 532 L633 530 Z" fill="red" stroke="white" stroke-width="0.01">
 </path>
 <path d="M99 286 L93 287 L88 287 L88 287 L84 288 L72 287 L51 287 L36 291 L18 290 L18 290 L18 290 L20 286 L21 283 L21 282 L21 279 L20 274 L20 268 L21 264 L23 260 L26 256 L29 252 L32 247 L33 246 L33 246 L35 243 L36 240 L38 239 L41 239 L44 239 L51 240 L56 241 L56 241 L58 240 L61 234 L62 234 L65 229 L68 228 L70 227 L71 227 L73 228 L74 230 L77 234 L80 236 L81 236 L82 236 L82 234 L82 231 L82 226 L82 223 L84 221 L86 219 L90 219 L90 219 L95 225 L98 234 L99 244 L102 253 L98 260 L95 266 L95 272 L96 275 L97 280 L100 282 L99 286 Z" fill="red" stroke="white" stroke-width="0.01">
 </path>
 <path d="M585 548 L583 554 L586 559 L584 565 L582 575 L576 581 L576 581 L573 572 L572 561 L572 556 L571 553 L567 544 L564 532 L559 523 L553 517 L544 507 L520 474 L520 474 L520 467 L522 462 L532 458 L533 455 L542 460 L546 462 L552 464 L562 467 L567 467 L574 459 L574 459 L580 457 L589 454 L589 454 L590 454 L593 471 L596 480 L601 489 L605 496 L601 507 L596 514 L590 514 L597 520 L598 528 L598 531 L599 539 L596 542 L589 543 L585 546 L585 548 Z" fill="red" stroke="white" stroke-width="0.01">
 </path>
 <path d="M1143 663 L1144 665 L1144 665 L1148 670 L1144 675 L1135 682 L1135 697 L1148 701 L1153 712 L1158 731 L1165 739 L1161 742 L1163 744 L1170 744 L1170 751 L1181 769 L1182 778 L1181 837 L1181 837 L1181 837 L1162 845 L1133 855 L1112 863 L1087 875 L1056 889 L1049 890 L1029 892 L1014 894 L1008 894 L998 896 L991 896 L991 896 L988 892 L989 889 L991 883 L992 874 L994 864 L996 857 L999 848 L998 842 L1002 835 L1004 826 L1003 820 L1009 810 L1015 803 L1014 794 L1020 782 L1021 765 L1023 763 L1024 761 L1024 756 L1024 752 L1026 749 L1027 744 L1026 742 L1028 739 L1029 737 L1031 733 L1034 730 L1034 729 L1033 728 L1032 728 L1030 730 L1028 730 L1027 730 L1027 729 L1028 728 L1029 727 L1037 720 L1038 718 L1038 717 L1038 716 L1037 716 L1033 717 L1032 718 L1031 719 L1030 720 L1029 720 L1028 720 L1028 716 L1026 713 L1026 711 L1025 710 L1025 710 L1024 709 L1021 708 L1017 705 L1013 703 L1010 702 L1007 703 L1000 702 L996 702 L987 701 L984 700 L984 700 L982 699 L981 698 L979 694 L979 694 L985 693 L992 689 L995 683 L998 680 L1001 675 L1004 672 L1008 669 L1012 663 L1014 657 L1022 646 L1028 642 L1032 638 L1037 632 L1042 626 L1047 619 L1051 614 L1051 614 L1061 617 L1070 620 L1081 624 L1086 625 L1089 628 L1089 631 L1087 638 L1086 641 L1089 642 L1094 644 L1104 651 L1109 654 L1115 656 L1121 658 L1125 660 L1126 663 L1123 670 L1122 673 L1128 671 L1135 667 L1142 663 L1143 663 Z" fill="red" stroke="white" stroke-width="0.01">
 </path>
 <path d="M688 720 L682 721 L678 723 L677 728 L679 732 L682 735 L682 740 L681 746 L683 749 L688 754 L694 758 L700 763 L700 766 L702 770 L702 777 L702 787 L706 798 L712 800 L707 804 L707 804 L702 818 L699 821 L699 827 L697 835 L695 844 L695 847 L693 847 L691 846 L690 845 L688 846 L689 848 L690 850 L689 852 L687 852 L685 853 L685 855 L686 858 L685 860 L684 863 L683 865 L685 869 L689 874 L691 876 L692 880 L693 883 L696 885 L697 886 L695 888 L694 890 L697 892 L697 894 L695 895 L690 896 L689 897 L689 897 L687 899 L685 899 L682 900 L681 900 L680 899 L676 897 L673 898 L667 900 L665 900 L663 901 L663 903 L663 906 L657 926 L655 930 L655 933 L656 936 L658 940 L658 941 L658 943 L657 944 L657 944 L654 945 L651 946 L649 960 L649 966 L648 970 L646 976 L645 979 L646 988 L646 988 L638 993 L624 1000 L623 999 L622 999 L622 999 L619 997 L618 995 L618 995 L617 994 L612 988 L610 984 L609 981 L609 977 L609 974 L610 969 L610 969 L611 961 L611 958 L613 952 L616 943 L617 938 L617 938 L617 938 L618 929 L619 927 L623 926 L632 923 L637 919 L639 917 L641 914 L642 910 L640 906 L634 901 L631 896 L629 893 L628 888 L629 883 L632 879 L640 867 L640 864 L639 861 L638 858 L638 857 L638 857 L638 855 L638 854 L640 847 L642 843 L643 834 L646 828 L649 820 L649 820 L654 805 L658 800 L660 796 L662 789 L662 783 L655 772 L651 765 L650 757 L651 747 L651 747 L653 744 L653 743 L653 737 L652 732 L654 729 L657 726 L657 726 L659 724 L659 724 L661 719 L662 709 L663 702 L663 697 L664 692 L664 690 L665 686 L665 686 L667 683 L676 675 L678 673 L678 673 L682 676 L690 679 L699 682 L702 683 L703 688 L699 694 L693 700 L689 706 L686 711 L686 717 L688 720 Z" fill="red" stroke="white" stroke-width="0.01">
 </path>
 <path d="M856 320 L858 320 L858 320 L861 329 L867 337 L872 351 L874 357 L874 357 L874 363 L874 363 L871 364 L863 367 L853 377 L845 387 L845 387 L842 380 L839 373 L834 370 L828 372 L823 372 L818 372 L811 369 L802 369 L800 369 L792 367 L789 363 L789 361 L788 360 L787 358 L787 357 L786 356 L786 354 L786 351 L785 348 L784 346 L782 344 L780 343 L779 339 L779 340 L779 340 L778 341 L772 337 L772 337 L771 327 L767 312 L767 300 L773 294 L780 293 L780 293 L787 294 L792 296 L792 298 L801 306 L808 312 L820 316 L833 318 L845 320 L851 320 L856 320 L856 320 Z" fill="red" stroke="white" stroke-width="0.01">
 </path>
 <path d="M848 236 L850 240 L853 243 L855 244 L855 251 L856 258 L857 261 L860 268 L861 271 L865 276 L865 278 L863 282 L861 284 L858 289 L856 290 L856 290 L854 283 L846 276 L839 270 L836 262 L833 260 L830 256 L829 251 L828 244 L828 244 L827 239 L827 239 L830 238 L832 233 L834 230 L838 229 L840 232 L843 234 L848 236 Z" fill="red" stroke="white" stroke-width="0.01">
 </path>
 <path d="M1375 269 L1365 270 L1350 271 L1341 273 L1339 273 L1338 274 L1334 273 L1331 273 L1329 274 L1325 277 L1322 278 L1314 279 L1312 279 L1308 279 L1281 288 L1273 290 L1260 296 L1248 301 L1215 323 L1213 321 L1209 318 L1208 318 L1202 317 L1187 319 L1165 321 L1154 321 L1146 326 L1142 330 L1139 332 L1136 337 L1136 337 L1133 329 L1126 306 L1116 295 L1099 276 L1070 244 L1042 218 L1032 209 L1032 209 L1037 200 L1041 195 L1042 191 L1041 189 L1040 186 L1040 183 L1040 181 L1041 180 L1047 176 L1052 173 L1057 167 L1060 166 L1065 165 L1067 163 L1072 156 L1080 148 L1087 139 L1090 141 L1090 141 L1094 141 L1094 141 L1101 139 L1119 139 L1132 137 L1150 134 L1155 132 L1173 122 L1178 115 L1182 109 L1193 83 L1193 83 L1194 83 L1202 85 L1211 86 L1225 90 L1234 105 L1240 109 L1257 124 L1270 139 L1281 151 L1281 152 L1279 159 L1276 162 L1273 167 L1270 178 L1275 190 L1287 201 L1293 206 L1300 215 L1302 219 L1315 233 L1319 236 L1333 244 L1342 247 L1346 247 L1356 245 L1361 246 L1365 247 L1367 250 L1367 250 L1367 250 L1368 250 L1371 254 L1375 262 L1375 267 L1375 267 L1375 269 L1375 269 Z" fill="red" stroke="white" stroke-width="0.01">
 </path>
 <path d="M767 235 L768 235 L774 236 L775 238 L776 241 L778 243 L779 244 L779 249 L780 251 L787 248 L798 251 L792 255 L793 260 L795 264 L805 264 L809 262 L810 258 L817 257 L822 255 L828 244 L828 244 L829 251 L830 256 L833 260 L836 262 L839 270 L846 276 L854 283 L856 290 L856 290 L856 291 L856 295 L853 306 L850 315 L850 317 L856 319 L856 320 L856 320 L856 320 L851 320 L845 320 L833 318 L820 316 L808 312 L801 306 L792 298 L792 296 L787 294 L780 293 L780 293 L783 284 L784 276 L781 272 L781 267 L778 261 L770 248 L766 238 L762 235 L762 235 L767 235 Z" fill="red" stroke="white" stroke-width="0.01">
 </path>
 <path d="M303 383 L300 390 L296 395 L296 399 L300 407 L303 410 L305 409 L310 412 L314 414 L317 415 L314 418 L315 421 L315 425 L309 425 L306 430 L306 432 L306 435 L307 439 L309 443 L310 448 L310 451 L308 455 L313 455 L316 459 L317 462 L326 463 L331 460 L333 465 L333 471 L333 474 L336 477 L337 481 L339 486 L342 490 L342 496 L342 496 L340 510 L340 515 L340 515 L340 525 L340 525 L339 525 L339 525 L338 525 L335 524 L334 524 L333 524 L319 520 L299 518 L291 518 L287 519 L287 519 L285 516 L283 511 L273 508 L269 510 L260 511 L257 504 L260 498 L258 494 L254 492 L252 489 L248 483 L248 483 L251 482 L251 475 L253 465 L241 461 L237 458 L231 451 L226 440 L223 432 L222 421 L222 420 L223 419 L223 419 L225 418 L225 415 L224 406 L224 395 L224 395 L223 394 L223 394 L225 391 L228 389 L232 392 L232 387 L234 386 L233 381 L237 381 L240 386 L243 386 L250 385 L256 385 L261 378 L270 373 L279 374 L289 372 L289 372 L295 370 L300 367 L303 373 L303 383 Z" fill="red" stroke="white" stroke-width="0.01">
 </path>
 <path d="M780 585 L779 587 L779 589 L778 593 L775 599 L775 603 L773 605 L772 608 L772 609 L772 609 L769 609 L762 609 L756 612 L750 613 L746 614 L744 615 L732 619 L716 621 L713 620 L713 619 L713 617 L713 617 L713 607 L713 607 L715 606 L730 597 L734 593 L739 590 L745 586 L747 585 L747 585 L748 585 L748 585 L753 585 L769 587 L778 586 L780 585 Z" fill="red" stroke="white" stroke-width="0.01">
 </path>
 <path d="M350 432 L353 437 L360 440 L363 441 L368 448 L370 451 L376 449 L379 446 L381 443 L383 445 L384 443 L386 443 L388 442 L391 441 L393 444 L401 448 L408 448 L411 449 L414 449 L414 446 L417 446 L418 443 L420 442 L421 444 L423 442 L425 442 L432 439 L442 431 L442 431 L450 435 L454 439 L459 443 L465 448 L473 450 L477 455 L483 456 L488 459 L488 459 L487 460 L482 462 L479 468 L479 470 L479 472 L477 473 L477 473 L475 474 L475 475 L474 476 L472 478 L470 480 L470 485 L469 486 L465 488 L463 488 L461 488 L460 489 L457 492 L456 493 L454 493 L451 493 L451 494 L450 496 L447 499 L441 504 L436 506 L435 507 L433 509 L431 511 L430 511 L425 510 L408 506 L404 505 L400 496 L393 494 L382 492 L377 489 L371 488 L362 493 L358 494 L352 494 L342 496 L342 496 L342 490 L339 486 L337 481 L336 477 L333 474 L333 471 L333 465 L331 460 L326 463 L317 462 L316 459 L313 455 L308 455 L310 451 L310 448 L309 443 L307 439 L306 435 L306 432 L306 430 L309 425 L315 425 L315 421 L314 418 L317 415 L314 414 L310 412 L305 409 L303 410 L300 407 L296 399 L296 395 L300 390 L303 383 L303 383 L307 386 L308 390 L312 395 L319 398 L319 403 L322 405 L325 407 L329 412 L334 418 L337 423 L338 429 L342 432 L350 432 Z" fill="red" stroke="white" stroke-width="0.01">
 </path>
 <path d="M490 576 L465 572 L452 565 L448 564 L446 564 L443 557 L440 553 L434 550 L431 554 L427 552 L424 552 L420 552 L414 546 L406 537 L400 536 L400 539 L398 537 L396 533 L392 532 L382 528 L372 525 L365 520 L357 520 L347 515 L340 515 L340 515 L340 510 L342 496 L342 496 L352 494 L358 494 L362 493 L371 488 L377 489 L382 492 L393 494 L400 496 L404 505 L408 506 L425 510 L430 511 L431 511 L433 509 L435 507 L436 506 L441 504 L447 499 L450 496 L451 494 L451 493 L454 493 L456 493 L457 492 L460 489 L461 488 L463 488 L465 488 L469 486 L470 485 L470 480 L472 478 L474 476 L475 475 L475 474 L477 473 L477 473 L479 477 L479 479 L481 480 L483 480 L484 480 L487 479 L490 481 L493 485 L495 486 L497 486 L498 484 L500 488 L502 492 L502 494 L501 496 L501 498 L501 499 L505 507 L507 513 L507 524 L508 527 L509 531 L511 534 L512 538 L514 544 L513 547 L507 549 L505 548 L504 548 L504 548 L502 550 L500 551 L498 551 L496 551 L495 553 L494 556 L492 557 L488 558 L487 560 L487 562 L489 565 L492 569 L491 570 L490 571 L488 571 L486 570 L484 571 L487 574 L490 576 Z" fill="red" stroke="white" stroke-width="0.01">
 </path>
 <path d="M1007 130 L1000 136 L989 146 L985 152 L981 159 L979 167 L978 172 L975 177 L973 181 L972 187 L971 193 L967 203 L965 208 L962 211 L954 215 L949 218 L945 220 L943 223 L942 225 L942 225 L942 225 L940 225 L940 225 L940 225 L938 225 L934 226 L932 227 L930 225 L928 222 L926 219 L924 217 L922 216 L918 215 L915 214 L913 214 L910 214 L902 212 L892 206 L889 205 L887 206 L886 207 L888 217 L887 218 L886 219 L884 218 L881 215 L877 209 L874 208 L872 207 L867 212 L867 213 L870 219 L870 222 L868 223 L866 223 L864 223 L863 223 L855 222 L851 222 L846 223 L844 223 L842 222 L841 220 L840 218 L839 216 L839 216 L839 216 L838 214 L837 214 L835 213 L834 212 L834 211 L834 210 L834 210 L836 205 L837 199 L838 194 L840 189 L841 184 L840 180 L839 178 L836 176 L834 176 L831 175 L830 172 L829 171 L826 170 L815 169 L810 168 L808 166 L809 164 L811 163 L814 161 L813 159 L811 158 L809 158 L803 160 L800 159 L800 159 L799 159 L798 157 L798 157 L798 155 L798 153 L799 151 L803 149 L812 143 L814 141 L813 139 L811 138 L809 138 L805 138 L802 140 L787 147 L780 149 L779 148 L778 148 L776 145 L775 143 L775 140 L777 135 L780 131 L784 128 L785 126 L784 125 L784 125 L785 123 L787 122 L792 121 L795 121 L797 121 L799 120 L800 118 L803 117 L839 95 L851 88 L857 83 L860 81 L883 69 L883 69 L884 70 L886 72 L887 73 L887 73 L888 73 L889 74 L890 75 L892 76 L893 79 L893 79 L894 81 L895 82 L895 82 L896 83 L896 84 L897 85 L899 86 L901 88 L902 89 L902 89 L902 90 L904 92 L905 93 L907 94 L914 100 L916 101 L918 102 L918 102 L919 102 L922 104 L929 109 L936 114 L936 114 L937 115 L940 116 L941 116 L945 120 L949 121 L957 123 L961 123 L968 122 L971 121 L974 121 L983 124 L991 126 L1000 129 L1007 130 Z" fill="red" stroke="white" stroke-width="0.01">
 </path>
 <path d="M834 210 L834 211 L834 212 L835 213 L837 214 L838 214 L839 216 L839 216 L839 216 L832 218 L833 221 L830 222 L827 224 L827 229 L825 233 L826 237 L827 239 L827 239 L828 244 L828 244 L822 255 L817 257 L810 258 L809 262 L805 264 L795 264 L793 260 L792 255 L798 251 L787 248 L780 251 L779 249 L779 244 L778 243 L776 241 L775 238 L774 236 L768 235 L767 235 L767 235 L767 230 L765 226 L762 222 L762 217 L765 211 L766 208 L777 204 L777 204 L786 206 L801 208 L825 209 L834 210 Z" fill="red" stroke="white" stroke-width="0.01">
 </path>
 <path d="M520 271 L530 282 L530 283 L530 283 L530 283 L529 283 L525 306 L523 318 L524 352 L524 352 L501 352 L458 350 L426 347 L426 347 L422 347 L418 346 L409 346 L403 345 L398 342 L395 341 L395 341 L392 341 L389 341 L386 340 L383 339 L377 338 L375 337 L371 335 L365 333 L362 332 L355 328 L351 326 L348 325 L344 325 L339 325 L326 327 L324 327 L323 329 L315 329 L308 329 L305 325 L302 319 L302 319 L298 311 L294 300 L288 291 L286 285 L286 285 L305 290 L310 289 L309 289 L310 289 L310 289 L316 288 L320 285 L320 285 L323 282 L325 281 L327 280 L332 279 L361 280 L363 282 L366 285 L371 292 L375 295 L377 298 L380 299 L393 300 L394 300 L409 300 L416 293 L423 282 L422 279 L423 279 L426 279 L428 278 L428 275 L428 272 L425 271 L424 269 L424 266 L424 262 L427 257 L429 256 L432 255 L434 252 L437 248 L439 246 L446 244 L451 240 L452 239 L452 239 L452 240 L454 242 L470 258 L470 259 L474 262 L476 263 L477 265 L480 266 L482 267 L483 268 L483 270 L486 270 L504 267 L512 268 L517 269 L520 271 Z" fill="red" stroke="white" stroke-width="0.01">
 </path>
 <path d="M881 619 L887 630 L887 630 L887 630 L889 634 L890 636 L901 649 L901 649 L886 651 L884 650 L880 649 L876 649 L872 650 L866 647 L860 649 L858 652 L856 653 L854 657 L853 664 L850 672 L845 679 L839 682 L839 682 L839 679 L838 672 L836 665 L833 660 L825 653 L824 651 L823 648 L825 640 L825 635 L823 629 L822 625 L818 619 L811 611 L811 609 L810 608 L810 608 L811 608 L811 608 L812 608 L814 608 L822 608 L828 607 L836 606 L840 606 L844 607 L850 609 L854 610 L869 611 L872 612 L875 614 L881 619 Z" fill="red" stroke="white" stroke-width="0.01">
 </path>
 <path d="M753 749 L757 757 L764 770 L767 768 L767 768 L768 768 L768 768 L768 769 L770 774 L772 777 L773 780 L774 783 L773 787 L774 789 L775 790 L779 794 L782 798 L787 804 L790 808 L793 811 L794 815 L794 815 L783 822 L781 830 L776 836 L765 836 L756 835 L749 835 L748 840 L742 845 L736 847 L731 847 L731 842 L732 835 L733 828 L736 823 L737 817 L734 812 L731 810 L726 808 L724 805 L719 803 L714 803 L707 804 L707 804 L712 800 L706 798 L702 787 L702 777 L702 770 L700 766 L700 763 L694 758 L688 754 L683 749 L681 746 L682 740 L682 735 L679 732 L677 728 L678 723 L682 721 L688 720 L688 720 L690 722 L695 726 L700 731 L708 734 L715 737 L722 739 L729 743 L732 745 L744 748 L753 749 Z" fill="red" stroke="white" stroke-width="0.01">
 </path>
 <path d="M1193 83 L1182 109 L1178 115 L1173 122 L1155 132 L1150 134 L1132 137 L1119 139 L1101 139 L1094 141 L1094 141 L1090 141 L1090 141 L1087 139 L1080 148 L1072 156 L1067 163 L1065 165 L1060 166 L1057 167 L1052 173 L1047 176 L1041 180 L1040 181 L1040 183 L1040 186 L1041 189 L1042 191 L1041 195 L1037 200 L1032 209 L1032 209 L1013 241 L1009 249 L1001 262 L998 264 L994 265 L986 268 L984 268 L973 272 L973 272 L972 272 L971 274 L969 277 L968 281 L966 286 L965 286 L965 286 L952 288 L945 291 L945 291 L944 287 L946 281 L948 276 L952 274 L956 269 L942 267 L937 266 L937 266 L937 262 L937 252 L937 249 L936 244 L937 238 L938 235 L941 231 L943 229 L943 227 L942 225 L942 225 L943 223 L945 220 L949 218 L954 215 L962 211 L965 208 L967 203 L971 193 L972 187 L973 181 L975 177 L978 172 L979 167 L981 159 L985 152 L989 146 L1000 136 L1007 130 L1007 130 L1012 130 L1016 131 L1017 131 L1018 131 L1020 132 L1020 131 L1028 132 L1033 131 L1037 128 L1044 123 L1048 117 L1050 114 L1051 109 L1053 98 L1054 91 L1059 84 L1064 77 L1069 70 L1075 63 L1079 56 L1081 48 L1086 39 L1087 30 L1086 21 L1085 16 L1085 16 L1086 14 L1086 11 L1088 6 L1089 4 L1091 1 L1093 0 L1107 14 L1112 20 L1115 23 L1117 24 L1118 25 L1119 28 L1120 30 L1120 33 L1122 36 L1123 36 L1124 37 L1126 40 L1130 43 L1131 44 L1156 61 L1163 66 L1170 69 L1174 73 L1186 81 L1193 83 Z" fill="red" stroke="white" stroke-width="0.01">
 </path>
 <path d="M520 474 L544 507 L553 517 L559 523 L564 532 L567 544 L571 553 L572 556 L572 561 L573 572 L576 581 L576 581 L577 585 L577 595 L575 601 L571 603 L564 606 L552 606 L544 608 L536 611 L530 614 L530 614 L530 613 L529 610 L517 599 L514 596 L514 594 L515 593 L517 589 L513 589 L510 589 L505 586 L494 579 L492 577 L490 576 L490 576 L487 574 L484 571 L486 570 L488 571 L490 571 L491 570 L492 569 L489 565 L487 562 L487 560 L488 558 L492 557 L494 556 L495 553 L496 551 L498 551 L500 551 L502 550 L504 548 L504 548 L505 548 L507 549 L513 547 L514 544 L512 538 L511 534 L509 531 L508 527 L507 524 L507 513 L505 507 L501 499 L501 498 L501 496 L502 494 L502 492 L500 488 L498 484 L497 486 L495 486 L493 485 L490 481 L487 479 L484 480 L483 480 L481 480 L479 479 L479 477 L477 473 L477 473 L479 472 L479 470 L479 468 L482 462 L487 460 L488 459 L488 459 L492 457 L496 454 L497 453 L501 455 L507 459 L507 459 L520 474 Z" fill="red" stroke="white" stroke-width="0.01">
 </path>
 <path d="M634 284 L627 288 L619 295 L613 301 L613 306 L613 306 L609 306 L599 303 L595 302 L594 302 L588 300 L580 297 L574 294 L571 294 L570 293 L567 294 L555 296 L551 295 L546 293 L544 292 L535 285 L530 283 L530 283 L530 282 L520 271 L520 271 L523 264 L529 260 L542 250 L551 242 L554 239 L555 243 L559 246 L563 248 L569 245 L573 244 L581 247 L588 252 L590 258 L593 264 L597 268 L602 273 L609 277 L621 283 L634 284 Z" fill="red" stroke="white" stroke-width="0.01">
 </path>
 <path d="M287 519 L291 518 L299 518 L319 520 L333 524 L334 524 L335 524 L338 525 L339 525 L339 525 L339 525 L337 527 L329 535 L317 553 L316 557 L312 571 L312 573 L312 575 L316 578 L322 583 L324 585 L328 589 L337 596 L342 600 L346 608 L348 610 L352 614 L354 615 L355 616 L356 618 L360 620 L370 624 L383 632 L386 633 L389 634 L395 633 L408 631 L410 631 L412 631 L412 630 L410 626 L411 625 L412 624 L415 627 L417 630 L418 630 L423 629 L425 629 L428 630 L444 629 L469 628 L514 633 L514 633 L514 633 L515 634 L535 642 L542 646 L569 664 L569 664 L569 664 L569 664 L569 664 L569 665 L569 665 L568 665 L531 691 L519 703 L517 705 L517 705 L514 709 L505 713 L472 695 L466 695 L445 702 L440 704 L428 712 L425 714 L423 715 L417 715 L416 715 L415 717 L415 719 L418 725 L419 728 L419 731 L418 733 L395 752 L395 752 L393 752 L392 751 L391 751 L390 750 L386 749 L384 748 L384 748 L384 748 L383 746 L382 744 L382 744 L378 738 L377 736 L377 736 L374 733 L368 726 L365 723 L363 721 L358 718 L358 718 L352 713 L352 713 L352 712 L349 707 L346 700 L346 698 L345 698 L345 697 L344 695 L342 693 L338 689 L338 689 L334 683 L331 676 L326 668 L325 660 L325 658 L324 657 L323 653 L323 651 L323 651 L321 648 L320 647 L316 642 L313 639 L312 639 L312 639 L312 639 L309 637 L306 634 L305 634 L301 632 L298 631 L297 630 L295 629 L294 629 L294 628 L294 627 L291 621 L291 620 L290 618 L289 617 L288 616 L287 616 L279 615 L276 615 L274 614 L273 614 L270 611 L263 605 L258 602 L256 601 L251 597 L251 597 L248 595 L247 594 L242 588 L240 585 L239 584 L239 584 L237 579 L236 577 L234 573 L234 572 L234 572 L234 570 L233 564 L232 562 L232 562 L232 562 L231 560 L231 560 L228 558 L226 558 L221 557 L219 556 L217 555 L215 553 L209 544 L206 540 L201 533 L198 531 L196 530 L195 529 L194 528 L194 528 L208 523 L220 517 L234 512 L241 508 L241 508 L242 516 L245 525 L248 531 L251 538 L254 545 L253 550 L256 550 L260 552 L261 549 L275 530 L282 522 L287 519 Z" fill="red" stroke="white" stroke-width="0.01">
 </path>
 <path d="M1205 650 L1208 651 L1212 662 L1230 681 L1245 701 L1247 706 L1248 698 L1248 696 L1251 696 L1252 699 L1254 706 L1258 708 L1260 703 L1267 698 L1267 691 L1264 684 L1267 681 L1269 684 L1270 686 L1270 688 L1272 690 L1273 693 L1273 693 L1270 698 L1267 738 L1268 765 L1257 774 L1253 789 L1251 803 L1246 816 L1239 818 L1225 824 L1217 828 L1203 831 L1197 832 L1181 837 L1181 837 L1182 778 L1181 769 L1170 751 L1170 744 L1163 744 L1161 742 L1165 739 L1158 731 L1153 712 L1148 701 L1135 697 L1135 682 L1144 675 L1148 670 L1144 665 L1144 665 L1150 663 L1167 652 L1172 651 L1179 648 L1184 646 L1193 647 L1201 648 L1205 650 Z" fill="red" stroke="white" stroke-width="0.01">
 </path>
 <path d="M432 424 L435 424 L437 424 L442 431 L442 431 L432 439 L425 442 L423 442 L421 444 L420 442 L418 443 L417 446 L414 446 L414 449 L411 449 L408 448 L401 448 L393 444 L391 441 L388 442 L386 443 L384 443 L383 445 L381 443 L379 446 L376 449 L370 451 L368 448 L363 441 L360 440 L353 437 L350 432 L350 432 L350 425 L350 419 L352 413 L356 415 L355 412 L363 411 L371 411 L379 415 L382 408 L385 406 L389 409 L394 411 L400 411 L410 418 L417 418 L427 421 L432 424 Z" fill="red" stroke="white" stroke-width="0.01">
 </path>
 <path d="M517 705 L517 706 L522 713 L522 713 L523 717 L523 721 L523 724 L522 724 L522 726 L519 731 L517 736 L522 749 L522 752 L523 754 L525 758 L526 761 L530 766 L534 770 L537 774 L538 776 L539 777 L543 779 L547 783 L552 789 L553 792 L555 797 L557 800 L562 803 L566 808 L568 813 L569 815 L572 818 L574 823 L574 823 L575 828 L575 828 L576 829 L575 842 L577 863 L577 863 L577 865 L579 877 L576 884 L573 889 L570 892 L566 894 L563 896 L558 897 L556 897 L551 897 L550 897 L554 881 L541 876 L541 876 L541 875 L541 874 L539 872 L539 870 L540 869 L542 866 L543 861 L543 856 L543 854 L542 853 L532 846 L532 845 L532 845 L527 841 L525 840 L523 839 L522 840 L517 847 L514 853 L515 855 L515 856 L513 857 L512 857 L510 858 L509 859 L507 859 L505 860 L502 860 L500 861 L497 862 L496 863 L493 863 L493 863 L476 853 L458 839 L447 828 L443 824 L439 819 L439 819 L439 817 L441 813 L441 811 L439 807 L438 801 L440 795 L440 793 L436 791 L434 789 L432 786 L429 781 L427 778 L420 773 L418 771 L414 769 L414 768 L414 768 L413 766 L412 765 L412 765 L411 764 L410 763 L410 763 L407 761 L407 761 L404 761 L399 756 L398 755 L395 752 L395 752 L418 733 L419 731 L419 728 L418 725 L415 719 L415 717 L416 715 L417 715 L423 715 L425 714 L428 712 L440 704 L445 702 L466 695 L472 695 L505 713 L514 709 L517 705 Z" fill="red" stroke="white" stroke-width="0.01">
 </path>
 <path d="M798 157 L799 159 L800 159 L800 159 L803 160 L809 158 L811 158 L813 159 L814 161 L811 163 L809 164 L808 166 L810 168 L815 169 L826 170 L829 171 L830 172 L831 175 L834 176 L836 176 L839 178 L840 180 L841 184 L840 189 L838 194 L837 199 L836 205 L834 210 L834 210 L825 209 L801 208 L786 206 L777 204 L777 204 L781 198 L783 193 L782 188 L784 183 L789 179 L788 174 L788 171 L788 166 L787 155 L793 152 L794 157 L798 157 Z" fill="red" stroke="white" stroke-width="0.01">
 </path>
 <path d="M810 608 L811 609 L811 611 L818 619 L822 625 L823 629 L825 635 L825 640 L823 648 L824 651 L825 653 L833 660 L836 665 L838 672 L839 679 L839 682 L839 682 L839 688 L839 691 L839 695 L840 698 L840 700 L841 706 L840 711 L838 716 L837 720 L837 722 L839 726 L841 731 L840 736 L838 741 L835 746 L834 749 L834 752 L834 757 L835 762 L835 765 L834 769 L832 772 L829 775 L827 779 L825 783 L825 787 L826 796 L824 798 L822 801 L820 804 L818 804 L817 807 L816 810 L814 814 L805 823 L805 823 L802 820 L798 818 L796 817 L795 817 L794 815 L794 815 L793 811 L790 808 L787 804 L782 798 L779 794 L775 790 L774 789 L773 787 L774 783 L773 780 L772 777 L770 774 L768 769 L768 768 L768 768 L767 768 L767 768 L764 770 L757 757 L753 749 L753 749 L749 738 L744 731 L741 720 L740 713 L737 702 L736 692 L738 685 L741 679 L746 675 L753 673 L759 672 L761 670 L759 668 L759 667 L761 665 L765 663 L766 665 L768 669 L768 668 L768 668 L769 667 L769 662 L769 662 L772 653 L772 643 L771 633 L771 633 L770 626 L769 616 L769 614 L772 611 L772 609 L772 609 L772 608 L773 605 L775 603 L775 599 L778 593 L779 589 L779 587 L780 585 L780 585 L781 584 L781 584 L781 584 L782 585 L789 589 L799 605 L803 607 L808 608 L810 608 Z" fill="red" stroke="white" stroke-width="0.01">
 </path>
 <path d="M618 201 L648 213 L648 213 L650 215 L651 216 L652 216 L653 216 L657 217 L658 218 L659 218 L659 220 L661 225 L664 228 L667 229 L670 227 L674 229 L675 229 L672 244 L672 244 L671 247 L671 252 L665 257 L653 266 L645 271 L642 277 L639 282 L639 282 L634 284 L634 284 L621 283 L609 277 L602 273 L597 268 L593 264 L590 258 L588 252 L581 247 L573 244 L569 245 L563 248 L559 246 L555 243 L554 239 L551 242 L542 250 L529 260 L523 264 L520 271 L520 271 L517 269 L512 268 L504 267 L486 270 L483 270 L483 268 L482 267 L480 266 L477 265 L476 263 L474 262 L470 259 L470 258 L454 242 L452 240 L452 239 L452 239 L452 239 L453 239 L455 237 L457 234 L459 231 L461 229 L461 226 L462 223 L463 220 L468 208 L468 208 L470 208 L475 205 L481 199 L484 198 L486 198 L491 198 L494 198 L496 198 L498 199 L499 199 L500 201 L502 205 L503 207 L506 208 L508 209 L514 210 L521 212 L525 213 L528 213 L531 211 L533 209 L535 208 L539 208 L540 208 L545 209 L549 208 L554 209 L559 209 L565 209 L572 211 L574 211 L590 212 L600 212 L609 210 L613 207 L617 204 L617 203 L618 202 L618 201 Z" fill="red" stroke="white" stroke-width="0.01">
 </path>
 <path d="M938 687 L938 690 L935 693 L934 695 L933 698 L930 703 L927 707 L927 711 L928 714 L925 715 L921 715 L917 717 L912 718 L906 719 L902 721 L899 723 L901 729 L907 730 L905 733 L904 734 L902 734 L901 733 L899 734 L895 734 L892 733 L890 730 L885 725 L878 720 L876 719 L869 720 L868 720 L868 720 L869 718 L870 711 L873 699 L875 694 L880 684 L883 680 L888 678 L890 679 L892 679 L895 678 L904 677 L906 677 L908 679 L910 680 L912 680 L913 680 L916 678 L918 678 L919 679 L921 679 L922 679 L925 680 L926 680 L929 679 L930 679 L932 680 L934 685 L936 686 L938 687 Z" fill="red" stroke="white" stroke-width="0.01">
 </path>
 <path d="M793 402 L788 408 L785 415 L780 422 L778 420 L771 419 L767 421 L764 425 L763 427 L760 430 L757 431 L757 431 L753 427 L749 427 L741 427 L737 429 L730 428 L729 432 L724 436 L720 440 L718 445 L717 451 L714 453 L714 453 L714 448 L712 444 L706 446 L702 449 L699 449 L690 450 L684 450 L684 449 L684 449 L680 439 L680 439 L683 438 L684 433 L687 431 L690 430 L693 427 L697 425 L697 425 L700 432 L701 432 L705 430 L706 425 L714 416 L722 412 L732 406 L737 406 L743 401 L750 398 L754 397 L765 397 L768 396 L770 390 L767 384 L766 381 L766 381 L770 380 L773 380 L779 383 L783 388 L784 392 L788 391 L789 394 L789 394 L790 397 L791 398 L791 399 L793 401 L793 402 Z" fill="red" stroke="white" stroke-width="0.01">
 </path>
 <path d="M1312 687 L1315 678 L1305 671 L1304 670 L1303 668 L1304 665 L1306 663 L1310 661 L1311 658 L1310 653 L1308 649 L1303 646 L1307 644 L1312 638 L1315 636 L1322 636 L1326 635 L1335 631 L1340 626 L1343 620 L1353 619 L1366 614 L1384 608 L1413 602 L1413 602 L1416 604 L1418 605 L1418 605 L1420 607 L1421 607 L1422 607 L1423 607 L1425 607 L1428 608 L1431 609 L1436 612 L1440 614 L1443 616 L1451 621 L1461 630 L1467 634 L1470 638 L1471 644 L1471 655 L1473 665 L1485 685 L1487 688 L1492 696 L1493 698 L1482 697 L1473 698 L1470 697 L1467 696 L1464 696 L1460 696 L1456 696 L1450 696 L1449 696 L1445 695 L1441 693 L1436 692 L1431 691 L1425 689 L1420 688 L1418 688 L1413 686 L1410 686 L1407 685 L1405 685 L1402 685 L1399 684 L1398 683 L1394 681 L1393 680 L1389 678 L1384 678 L1380 679 L1377 679 L1375 679 L1372 678 L1369 679 L1368 682 L1369 684 L1369 686 L1368 689 L1365 691 L1364 694 L1364 697 L1365 699 L1365 702 L1364 703 L1365 705 L1367 709 L1362 711 L1359 712 L1354 714 L1350 714 L1345 712 L1342 711 L1340 709 L1337 706 L1335 700 L1330 698 L1325 693 L1318 690 L1316 688 L1312 687 Z" fill="red" stroke="white" stroke-width="0.01">
 </path>
 <path d="M838 508 L834 512 L833 518 L829 520 L831 524 L827 529 L827 535 L829 547 L834 561 L839 566 L842 564 L846 566 L848 569 L847 573 L847 573 L842 570 L840 570 L833 576 L830 581 L830 581 L825 578 L822 574 L816 572 L812 567 L808 561 L807 557 L806 551 L801 548 L801 545 L799 542 L800 540 L800 539 L803 536 L806 532 L808 528 L812 520 L815 511 L817 508 L817 508 L822 508 L831 507 L838 508 Z" fill="red" stroke="white" stroke-width="0.01">
 </path>
 <path d="M753 749 L744 748 L732 745 L729 743 L722 739 L715 737 L708 734 L700 731 L695 726 L690 722 L688 720 L688 720 L686 717 L686 711 L689 706 L693 700 L699 694 L703 688 L702 683 L699 682 L690 679 L682 676 L678 673 L678 673 L681 670 L681 670 L685 667 L689 662 L692 658 L694 656 L694 656 L694 655 L696 651 L697 650 L697 650 L698 651 L699 651 L701 651 L702 651 L722 663 L722 663 L722 664 L722 666 L722 666 L726 662 L726 657 L728 654 L732 652 L737 651 L741 650 L749 650 L754 646 L760 644 L762 641 L764 638 L767 636 L771 633 L771 633 L772 643 L772 653 L769 662 L769 662 L769 667 L768 668 L768 668 L768 669 L766 665 L765 663 L761 665 L759 667 L759 668 L761 670 L759 672 L753 673 L746 675 L741 679 L738 685 L736 692 L737 702 L740 713 L741 720 L744 731 L749 738 L753 749 Z" fill="red" stroke="white" stroke-width="0.01">
 </path>
 <path d="M781 584 L781 584 L780 585 L780 585 L778 586 L769 587 L753 585 L748 585 L748 585 L747 585 L747 585 L744 579 L740 574 L737 571 L733 567 L732 564 L729 560 L729 560 L728 548 L746 542 L774 537 L774 537 L774 552 L775 566 L777 572 L779 576 L781 579 L781 580 L781 580 L781 582 L781 582 L781 584 Z" fill="red" stroke="white" stroke-width="0.01">
 </path>
 <path d="M1069 402 L1074 405 L1076 407 L1076 410 L1077 418 L1079 434 L1080 438 L1080 438 L1073 434 L1070 434 L1072 426 L1072 417 L1068 413 L1063 412 L1061 420 L1054 425 L1049 427 L1047 431 L1044 434 L1043 430 L1042 427 L1033 429 L1025 429 L1023 430 L1015 432 L1010 433 L1008 441 L1006 440 L1000 437 L999 443 L999 443 L992 447 L971 453 L970 454 L970 454 L968 450 L967 444 L966 438 L964 430 L962 425 L959 422 L960 417 L962 412 L960 408 L959 404 L960 401 L958 396 L958 392 L960 386 L960 380 L961 377 L961 377 L965 380 L969 383 L971 383 L974 382 L982 377 L982 377 L985 376 L985 376 L990 374 L995 374 L995 375 L996 375 L997 376 L999 378 L1000 379 L1002 380 L1003 380 L1009 381 L1017 384 L1022 387 L1024 390 L1025 391 L1027 394 L1028 395 L1031 395 L1033 394 L1036 393 L1042 393 L1052 395 L1056 396 L1064 401 L1069 402 Z" fill="red" stroke="white" stroke-width="0.01">
 </path>
 <path d="M88 287 L86 291 L87 293 L90 296 L90 301 L84 303 L83 307 L79 310 L76 316 L75 320 L75 320 L72 322 L70 324 L68 325 L61 333 L60 334 L58 335 L51 344 L45 350 L42 352 L42 352 L42 352 L40 352 L40 352 L39 352 L39 352 L38 351 L37 350 L36 346 L33 340 L30 337 L30 336 L28 335 L26 335 L24 335 L23 335 L21 336 L19 338 L16 343 L15 350 L15 350 L14 351 L13 355 L11 358 L10 359 L9 361 L8 361 L7 360 L7 359 L6 359 L4 356 L4 355 L2 351 L0 346 L0 341 L0 337 L2 335 L4 332 L9 324 L11 318 L12 314 L13 308 L13 307 L15 296 L16 295 L16 294 L18 290 L18 290 L36 291 L51 287 L72 287 L84 288 L88 287 Z" fill="red" stroke="white" stroke-width="0.01">
 </path>
 <path d="M713 354 L706 360 L688 366 L674 369 L674 369 L652 369 L640 369 L621 364 L611 360 L611 360 L611 356 L612 342 L615 334 L618 326 L618 316 L614 312 L613 306 L613 306 L613 301 L619 295 L627 288 L634 284 L634 284 L639 282 L639 282 L641 287 L643 290 L646 293 L648 297 L651 301 L656 303 L661 307 L663 309 L668 308 L672 307 L673 302 L677 302 L681 300 L681 296 L685 296 L688 301 L688 305 L691 309 L695 316 L697 320 L701 321 L702 326 L704 334 L709 345 L713 354 Z" fill="red" stroke="white" stroke-width="0.01">
 </path>
 <path d="M712 299 L711 296 L710 287 L711 276 L709 270 L706 263 L706 258 L703 252 L700 245 L695 239 L695 239 L714 235 L717 234 L718 234 L720 234 L720 234 L723 234 L740 234 L740 234 L739 237 L739 246 L743 255 L740 261 L738 266 L740 270 L738 274 L735 278 L730 281 L730 283 L725 282 L721 285 L722 288 L719 292 L716 296 L712 299 Z" fill="red" stroke="white" stroke-width="0.01">
 </path>
 <path d="M762 235 L766 238 L770 248 L778 261 L781 267 L781 272 L784 276 L783 284 L780 293 L780 293 L773 294 L767 300 L767 312 L771 327 L772 337 L772 337 L766 337 L756 337 L756 337 L752 338 L745 341 L739 342 L739 342 L736 343 L736 343 L734 344 L733 336 L730 329 L724 328 L720 323 L722 312 L715 307 L713 302 L712 299 L712 299 L716 296 L719 292 L722 288 L721 285 L725 282 L730 283 L730 281 L735 278 L738 274 L740 270 L738 266 L740 261 L743 255 L739 246 L739 237 L740 234 L740 234 L741 234 L743 234 L745 234 L761 235 L762 235 Z" fill="red" stroke="white" stroke-width="0.01">
 </path>
 <path d="M712 299 L713 302 L715 307 L722 312 L720 323 L724 328 L730 329 L733 336 L734 344 L736 343 L736 343 L725 349 L718 353 L713 354 L713 354 L709 345 L704 334 L702 326 L701 321 L697 320 L695 316 L691 309 L688 305 L688 301 L685 296 L681 296 L681 300 L677 302 L673 302 L672 307 L668 308 L663 309 L661 307 L656 303 L651 301 L648 297 L646 293 L643 290 L641 287 L639 282 L639 282 L642 277 L645 271 L653 266 L665 257 L671 252 L671 247 L672 244 L672 244 L679 240 L687 241 L695 239 L695 239 L700 245 L703 252 L706 258 L706 263 L709 270 L711 276 L710 287 L711 296 L712 299 Z" fill="red" stroke="white" stroke-width="0.01">
 </path>
 <path d="M942 548 L942 550 L943 550 L937 557 L934 566 L934 566 L932 569 L926 566 L919 565 L920 570 L923 572 L926 576 L929 580 L926 585 L918 592 L916 592 L915 593 L917 597 L917 598 L917 599 L915 600 L913 601 L905 612 L903 614 L902 618 L902 618 L900 622 L898 626 L895 628 L894 628 L887 630 L887 630 L887 630 L881 619 L881 619 L880 612 L879 607 L874 602 L872 599 L862 596 L856 597 L854 594 L851 592 L846 589 L846 584 L843 583 L843 580 L845 577 L847 573 L847 573 L848 569 L846 566 L842 564 L839 566 L834 561 L829 547 L827 535 L827 529 L831 524 L829 520 L833 518 L834 512 L838 508 L838 508 L849 509 L848 513 L848 514 L856 516 L861 516 L869 517 L894 508 L898 507 L902 508 L906 508 L907 508 L908 517 L909 525 L912 536 L913 539 L942 548 Z" fill="red" stroke="white" stroke-width="0.01">
 </path>
 <path d="M794 815 L795 817 L796 817 L798 818 L802 820 L805 823 L805 823 L805 824 L810 828 L811 829 L816 834 L817 835 L818 835 L820 835 L821 838 L822 840 L825 844 L826 847 L828 848 L830 850 L834 855 L837 858 L838 859 L841 861 L843 862 L844 864 L845 867 L848 871 L850 873 L851 874 L852 874 L852 874 L855 875 L856 876 L856 877 L858 882 L860 889 L861 892 L864 895 L865 897 L866 902 L868 905 L870 908 L870 912 L870 916 L869 918 L869 921 L869 925 L869 925 L864 926 L855 929 L846 931 L840 933 L830 935 L817 940 L810 943 L807 944 L801 947 L791 951 L788 951 L778 955 L778 955 L763 959 L744 960 L718 959 L710 960 L705 960 L703 960 L700 960 L692 962 L682 967 L674 972 L674 974 L674 975 L672 975 L671 975 L669 975 L668 977 L667 977 L658 981 L651 985 L648 987 L646 988 L646 988 L645 979 L646 976 L648 970 L649 966 L649 960 L651 946 L654 945 L657 944 L657 944 L658 943 L658 941 L658 940 L656 936 L655 933 L655 930 L657 926 L663 906 L663 903 L663 901 L665 900 L667 900 L673 898 L676 897 L680 899 L681 900 L682 900 L685 899 L687 899 L689 897 L689 897 L690 896 L695 895 L697 894 L697 892 L694 890 L695 888 L697 886 L696 885 L693 883 L692 880 L691 876 L689 874 L685 869 L683 865 L684 863 L685 860 L686 858 L685 855 L685 853 L687 852 L689 852 L690 850 L689 848 L688 846 L690 845 L691 846 L693 847 L695 847 L695 844 L697 835 L699 827 L699 821 L702 818 L707 804 L707 804 L714 803 L719 803 L724 805 L726 808 L731 810 L734 812 L737 817 L736 823 L733 828 L732 835 L731 842 L731 847 L736 847 L742 845 L748 840 L749 835 L756 835 L765 836 L776 836 L781 830 L783 822 L794 815 Z" fill="red" stroke="white" stroke-width="0.01">
 </path>
 <path d="M747 585 L745 586 L739 590 L734 593 L730 597 L715 606 L713 607 L713 607 L702 614 L694 621 L689 629 L686 638 L682 647 L679 653 L679 653 L676 653 L675 653 L673 653 L671 652 L669 651 L665 651 L663 650 L663 649 L661 648 L660 648 L657 649 L656 648 L654 647 L653 648 L652 649 L652 649 L651 651 L650 651 L648 650 L647 649 L645 647 L643 646 L642 646 L641 646 L640 646 L639 645 L639 645 L636 637 L635 634 L635 634 L638 633 L636 628 L637 623 L638 615 L633 610 L631 602 L638 598 L632 592 L632 588 L628 586 L627 582 L625 581 L625 581 L627 578 L633 573 L636 571 L640 569 L640 569 L642 568 L649 567 L656 567 L657 567 L658 567 L661 568 L663 568 L667 565 L671 565 L674 564 L679 563 L686 562 L700 561 L700 561 L718 560 L729 560 L729 560 L732 564 L733 567 L737 571 L740 574 L744 579 L747 585 Z" fill="red" stroke="white" stroke-width="0.01">
 </path>
 <path d="M755 114 L749 115 L744 116 L740 117 L738 120 L735 123 L735 126 L735 130 L733 131 L728 131 L722 136 L716 144 L709 143 L708 143 L705 150 L705 150 L705 147 L705 145 L692 138 L682 135 L680 133 L680 133 L683 120 L686 109 L688 97 L689 91 L690 82 L693 74 L696 69 L697 68 L701 66 L705 65 L708 64 L712 63 L712 63 L712 63 L711 64 L709 66 L706 67 L704 68 L703 71 L704 73 L705 76 L706 77 L709 79 L721 80 L722 80 L723 80 L724 81 L725 83 L723 86 L724 88 L728 94 L730 97 L733 101 L736 102 L748 103 L751 104 L752 106 L753 110 L755 114 Z" fill="red" stroke="white" stroke-width="0.01">
 </path>
 <path d="M705 150 L707 156 L713 162 L714 176 L715 180 L720 186 L719 192 L721 197 L720 207 L721 219 L723 228 L720 234 L720 234 L718 234 L717 234 L714 235 L695 239 L695 239 L687 241 L679 240 L672 244 L672 244 L675 229 L674 229 L670 227 L667 229 L664 228 L661 225 L659 220 L659 218 L658 218 L657 217 L653 216 L652 216 L651 216 L650 215 L648 213 L648 213 L618 201 L618 201 L621 195 L626 187 L628 179 L627 170 L629 163 L631 163 L631 163 L633 163 L636 164 L640 167 L643 171 L646 173 L649 176 L654 177 L661 175 L665 173 L670 168 L672 162 L674 154 L677 144 L679 135 L680 133 L680 133 L682 135 L692 138 L705 145 L705 147 L705 150 Z" fill="red" stroke="white" stroke-width="0.01">
 </path>
 <path d="M766 381 L767 384 L770 390 L768 396 L765 397 L754 397 L750 398 L743 401 L737 406 L732 406 L722 412 L714 416 L706 425 L705 430 L701 432 L700 432 L697 425 L697 425 L694 418 L694 416 L694 414 L694 412 L692 408 L691 407 L689 404 L688 402 L687 395 L684 392 L681 390 L679 388 L677 385 L677 382 L677 381 L677 381 L676 376 L674 369 L674 369 L688 366 L706 360 L713 354 L713 354 L718 353 L725 349 L736 343 L736 343 L739 342 L739 342 L745 341 L752 338 L756 337 L756 337 L759 346 L764 353 L766 360 L771 365 L768 368 L768 373 L765 379 L766 381 Z" fill="red" stroke="white" stroke-width="0.01">
 </path>
 <path d="M468 208 L463 220 L462 223 L461 226 L461 229 L459 231 L457 234 L455 237 L453 239 L452 239 L452 239 L452 239 L451 240 L446 244 L439 246 L437 248 L434 252 L432 255 L429 256 L427 257 L424 262 L424 266 L424 269 L425 271 L428 272 L428 275 L428 278 L426 279 L423 279 L422 279 L423 282 L416 293 L409 300 L394 300 L393 300 L380 299 L377 298 L375 295 L371 292 L366 285 L363 282 L361 280 L332 279 L327 280 L325 281 L323 282 L320 285 L320 285 L316 288 L310 289 L310 289 L309 289 L310 289 L305 290 L286 285 L286 285 L283 279 L277 266 L277 266 L279 266 L282 266 L286 263 L290 260 L292 258 L294 257 L298 254 L301 252 L304 250 L308 247 L309 246 L312 246 L314 245 L319 241 L322 241 L326 240 L345 238 L346 238 L356 236 L361 234 L367 233 L373 233 L375 234 L376 234 L377 234 L381 236 L386 241 L389 243 L393 245 L401 247 L408 248 L414 247 L421 244 L427 239 L431 235 L432 235 L435 232 L440 224 L444 216 L447 209 L451 208 L456 209 L461 209 L461 209 L466 209 L468 208 Z" fill="red" stroke="white" stroke-width="0.01">
 </path>
 <path d="M970 454 L971 453 L992 447 L999 443 L999 443 L1003 453 L1003 454 L1007 456 L1007 456 L1000 455 L1000 455 L994 454 L991 458 L990 461 L989 464 L988 467 L987 472 L985 483 L980 483 L976 484 L974 484 L972 484 L966 487 L959 491 L954 496 L949 502 L942 547 L942 548 L942 548 L913 539 L912 536 L909 525 L908 517 L907 508 L906 508 L902 508 L898 507 L894 508 L869 517 L861 516 L856 516 L848 514 L848 513 L849 509 L838 508 L838 508 L831 507 L822 508 L817 508 L817 508 L814 508 L813 506 L812 503 L810 499 L806 497 L803 495 L803 495 L804 490 L808 476 L811 457 L811 444 L812 434 L815 426 L821 417 L821 417 L827 409 L830 404 L833 403 L836 395 L845 387 L845 387 L853 377 L863 367 L871 364 L874 363 L874 363 L876 362 L885 383 L885 384 L886 384 L887 385 L888 386 L888 388 L889 389 L889 390 L890 391 L890 391 L892 392 L894 394 L894 397 L894 399 L894 401 L894 403 L894 406 L894 407 L897 413 L920 456 L923 457 L931 457 L935 458 L940 458 L951 457 L961 456 L970 454 Z" fill="red" stroke="white" stroke-width="0.01">
 </path>
 <path d="M200 299 L194 299 L191 297 L186 298 L184 299 L174 302 L174 302 L168 303 L165 305 L165 305 L159 299 L153 295 L151 292 L140 293 L135 298 L130 296 L122 290 L117 290 L111 289 L106 285 L106 285 L108 281 L111 281 L114 278 L120 278 L124 277 L124 271 L126 272 L126 269 L126 267 L129 261 L134 258 L136 253 L139 251 L143 245 L150 240 L152 233 L152 233 L158 234 L163 233 L165 232 L173 228 L175 227 L175 227 L180 232 L181 236 L186 241 L194 250 L198 258 L204 261 L203 264 L199 266 L198 269 L200 276 L200 280 L199 285 L197 294 L200 299 Z" fill="red" stroke="white" stroke-width="0.01">
 </path>
 <path d="M1080 438 L1084 443 L1084 445 L1083 446 L1081 448 L1081 449 L1080 449 L1080 450 L1085 450 L1087 450 L1089 451 L1092 453 L1096 457 L1098 457 L1100 457 L1103 453 L1106 450 L1107 448 L1107 445 L1109 444 L1115 444 L1118 444 L1120 443 L1120 441 L1121 439 L1120 437 L1119 435 L1119 434 L1119 433 L1119 432 L1124 427 L1130 423 L1137 418 L1141 415 L1142 414 L1142 414 L1141 438 L1141 442 L1147 452 L1147 453 L1150 456 L1153 461 L1156 466 L1159 470 L1163 472 L1165 473 L1166 474 L1167 474 L1167 474 L1167 476 L1165 483 L1161 490 L1159 491 L1158 491 L1152 490 L1151 490 L1149 491 L1148 493 L1148 495 L1149 497 L1152 498 L1154 501 L1155 502 L1160 501 L1162 501 L1162 502 L1164 505 L1164 509 L1162 517 L1162 519 L1164 522 L1165 525 L1166 527 L1168 529 L1169 530 L1165 538 L1166 538 L1168 541 L1170 545 L1172 551 L1171 555 L1169 557 L1167 564 L1163 568 L1161 568 L1159 568 L1157 571 L1156 573 L1153 577 L1147 584 L1137 594 L1132 602 L1130 603 L1127 605 L1125 606 L1125 609 L1125 610 L1127 614 L1131 619 L1139 652 L1142 661 L1143 663 L1143 663 L1142 663 L1135 667 L1128 671 L1122 673 L1123 670 L1126 663 L1125 660 L1121 658 L1115 656 L1109 654 L1104 651 L1094 644 L1089 642 L1086 641 L1087 638 L1089 631 L1089 628 L1086 625 L1081 624 L1070 620 L1061 617 L1051 614 L1051 614 L1036 612 L1032 609 L1029 606 L1026 604 L1024 603 L1017 599 L1015 597 L1015 594 L1015 593 L1014 585 L1012 583 L1010 583 L1008 584 L1005 584 L988 578 L974 574 L973 571 L973 570 L971 568 L967 567 L965 567 L962 567 L961 566 L959 567 L958 568 L956 570 L954 574 L946 569 L938 565 L935 564 L934 566 L934 566 L937 557 L943 550 L942 550 L942 548 L942 548 L942 547 L949 502 L954 496 L959 491 L966 487 L972 484 L974 484 L976 484 L980 483 L985 483 L987 472 L988 467 L989 464 L990 461 L991 458 L994 454 L1000 455 L1000 455 L1007 456 L1007 456 L1003 454 L1003 453 L999 443 L999 443 L1000 437 L1006 440 L1008 441 L1010 433 L1015 432 L1023 430 L1025 429 L1033 429 L1042 427 L1043 430 L1044 434 L1047 431 L1049 427 L1054 425 L1061 420 L1063 412 L1068 413 L1072 417 L1072 426 L1070 434 L1073 434 L1080 438 Z" fill="red" stroke="white" stroke-width="0.01">
 </path>
 <path d="M942 225 L943 227 L943 229 L941 231 L938 235 L937 238 L936 244 L937 249 L937 252 L937 262 L937 266 L937 266 L942 267 L956 269 L952 274 L948 276 L946 281 L944 287 L945 291 L945 291 L943 297 L943 301 L943 305 L943 312 L943 318 L945 323 L945 327 L949 333 L948 341 L943 365 L943 365 L938 362 L936 361 L931 359 L922 357 L909 354 L909 354 L905 354 L898 354 L886 355 L885 355 L874 357 L874 357 L872 351 L867 337 L861 329 L858 320 L858 320 L862 321 L865 316 L867 310 L870 309 L875 309 L879 307 L880 303 L880 296 L881 292 L882 289 L885 281 L885 278 L884 270 L890 267 L895 263 L901 258 L903 252 L905 246 L905 246 L907 245 L912 243 L916 241 L921 239 L924 239 L927 239 L930 239 L934 235 L937 234 L940 228 L940 225 L940 225 L942 225 L942 225 Z" fill="red" stroke="white" stroke-width="0.01">
 </path>
 <path d="M152 233 L150 240 L143 245 L139 251 L136 253 L134 258 L129 261 L126 267 L126 269 L126 272 L124 271 L124 277 L120 278 L114 278 L111 281 L108 281 L106 285 L106 285 L99 286 L99 286 L100 282 L97 280 L96 275 L95 272 L95 266 L98 260 L102 253 L99 244 L98 234 L95 225 L90 219 L90 219 L92 218 L98 220 L101 220 L103 218 L105 215 L108 207 L109 203 L112 199 L112 198 L113 197 L116 201 L126 208 L127 208 L131 211 L137 212 L138 212 L139 215 L141 219 L143 222 L144 227 L147 231 L151 233 L152 233 Z" fill="red" stroke="white" stroke-width="0.01">
 </path>
 <path d="M901 649 L901 649 L904 652 L904 652 L907 654 L920 657 L920 657 L920 657 L919 660 L917 664 L921 665 L927 665 L933 665 L933 669 L937 677 L937 681 L938 687 L938 687 L936 686 L934 685 L932 680 L930 679 L929 679 L926 680 L925 680 L922 679 L921 679 L919 679 L918 678 L916 678 L913 680 L912 680 L910 680 L908 679 L906 677 L904 677 L895 678 L892 679 L890 679 L888 678 L883 680 L880 684 L875 694 L873 699 L870 711 L869 718 L868 720 L868 720 L867 724 L865 727 L865 730 L865 732 L866 736 L868 740 L868 743 L866 748 L865 751 L866 759 L865 762 L862 765 L861 773 L861 782 L862 820 L860 820 L859 819 L857 819 L857 820 L856 821 L857 822 L858 823 L860 824 L861 826 L862 829 L864 833 L863 842 L863 846 L865 848 L866 852 L866 856 L867 858 L868 860 L869 863 L869 866 L868 867 L866 867 L863 869 L862 869 L861 869 L859 870 L858 872 L856 873 L854 874 L852 874 L852 874 L851 874 L850 873 L848 871 L845 867 L844 864 L843 862 L841 861 L838 859 L837 858 L834 855 L830 850 L828 848 L826 847 L825 844 L822 840 L821 838 L820 835 L818 835 L817 835 L816 834 L811 829 L810 828 L805 824 L805 823 L805 823 L814 814 L816 810 L817 807 L818 804 L820 804 L822 801 L824 798 L826 796 L825 787 L825 783 L827 779 L829 775 L832 772 L834 769 L835 765 L835 762 L834 757 L834 752 L834 749 L835 746 L838 741 L840 736 L841 731 L839 726 L837 722 L837 720 L838 716 L840 711 L841 706 L840 700 L840 698 L839 695 L839 691 L839 688 L839 682 L839 682 L845 679 L850 672 L853 664 L854 657 L856 653 L858 652 L860 649 L866 647 L872 650 L876 649 L880 649 L884 650 L886 651 L901 649 Z" fill="red" stroke="white" stroke-width="0.01">
 </path>
 <path d="M784 125 L785 126 L784 128 L780 131 L777 135 L775 140 L775 143 L776 145 L778 148 L779 148 L780 149 L787 147 L802 140 L805 138 L809 138 L811 138 L813 139 L814 141 L812 143 L803 149 L799 151 L798 153 L798 155 L798 157 L798 157 L794 157 L793 152 L787 155 L788 166 L788 171 L788 174 L789 179 L784 183 L782 188 L783 193 L781 198 L777 204 L777 204 L766 208 L765 211 L762 217 L762 222 L765 226 L767 230 L767 235 L767 235 L762 235 L762 235 L761 235 L745 234 L743 234 L741 234 L740 234 L740 234 L723 234 L720 234 L720 234 L723 228 L721 219 L720 207 L721 197 L719 192 L720 186 L715 180 L714 176 L713 162 L707 156 L705 150 L705 150 L708 143 L709 143 L716 144 L722 136 L728 131 L733 131 L735 130 L735 126 L735 123 L738 120 L740 117 L744 116 L749 115 L755 114 L755 114 L757 118 L759 121 L760 123 L762 124 L763 125 L769 124 L772 123 L777 123 L784 125 L784 125 Z" fill="red" stroke="white" stroke-width="0.01">
 </path>
 <path d="M1136 337 L1134 340 L1131 341 L1127 341 L1126 340 L1125 342 L1120 351 L1120 354 L1120 356 L1121 363 L1122 368 L1124 371 L1124 371 L1132 370 L1136 373 L1138 374 L1143 374 L1146 374 L1147 374 L1147 378 L1145 385 L1144 388 L1145 397 L1142 410 L1142 412 L1142 414 L1142 414 L1141 415 L1137 418 L1130 423 L1124 427 L1119 432 L1119 433 L1119 434 L1119 435 L1120 437 L1121 439 L1120 441 L1120 443 L1118 444 L1115 444 L1109 444 L1107 445 L1107 448 L1106 450 L1103 453 L1100 457 L1098 457 L1096 457 L1092 453 L1089 451 L1087 450 L1085 450 L1080 450 L1080 449 L1081 449 L1081 448 L1083 446 L1084 445 L1084 443 L1080 438 L1080 438 L1079 434 L1077 418 L1076 410 L1076 407 L1074 405 L1069 402 L1069 402 L1075 399 L1083 393 L1086 393 L1083 385 L1083 376 L1080 376 L1077 374 L1074 368 L1070 362 L1066 359 L1059 354 L1057 352 L1056 350 L1057 347 L1061 340 L1060 338 L1057 336 L1055 335 L1052 335 L1050 337 L1048 338 L1046 337 L1045 336 L1044 328 L1044 328 L1043 326 L1039 329 L1038 326 L1035 321 L1029 320 L1026 320 L1026 320 L1026 313 L1030 306 L1027 307 L1026 307 L1023 304 L1019 299 L1015 297 L1012 297 L1003 299 L998 296 L990 299 L984 300 L980 295 L973 292 L968 293 L965 286 L965 286 L966 286 L968 281 L969 277 L971 274 L972 272 L973 272 L973 272 L984 268 L986 268 L994 265 L998 264 L1001 262 L1009 249 L1013 241 L1032 209 L1032 209 L1042 218 L1070 244 L1099 276 L1116 295 L1126 306 L1133 329 L1136 337 Z" fill="red" stroke="white" stroke-width="0.01">
 </path>
 <path d="M1069 402 L1064 401 L1056 396 L1052 395 L1042 393 L1036 393 L1033 394 L1031 395 L1028 395 L1027 394 L1025 391 L1024 390 L1022 387 L1017 384 L1009 381 L1003 380 L1002 380 L1000 379 L999 378 L997 376 L996 375 L995 375 L995 374 L990 374 L985 376 L985 376 L985 370 L988 364 L993 357 L999 344 L1010 341 L1015 338 L1022 335 L1024 331 L1026 320 L1026 320 L1029 320 L1035 321 L1038 326 L1039 329 L1043 326 L1044 328 L1044 328 L1045 336 L1046 337 L1048 338 L1050 337 L1052 335 L1055 335 L1057 336 L1060 338 L1061 340 L1057 347 L1056 350 L1057 352 L1059 354 L1066 359 L1070 362 L1074 368 L1077 374 L1080 376 L1083 376 L1083 385 L1086 393 L1083 393 L1075 399 L1069 402 Z" fill="red" stroke="white" stroke-width="0.01">
 </path>
 <path d="M613 306 L614 312 L618 316 L618 326 L615 334 L612 342 L611 356 L611 360 L611 360 L608 359 L591 355 L572 353 L572 354 L572 354 L552 355 L539 353 L529 353 L524 352 L524 352 L523 318 L525 306 L529 283 L530 283 L530 283 L530 283 L535 285 L544 292 L546 293 L551 295 L555 296 L567 294 L570 293 L571 294 L574 294 L580 297 L588 300 L594 302 L595 302 L599 303 L609 306 L613 306 Z" fill="red" stroke="white" stroke-width="0.01">
 </path>
 <path d="M679 653 L676 656 L676 662 L680 665 L681 670 L681 670 L678 673 L678 673 L676 675 L667 683 L665 686 L665 686 L659 685 L657 685 L648 682 L647 678 L646 678 L628 678 L626 680 L624 680 L621 678 L619 677 L617 677 L616 679 L615 679 L615 679 L612 679 L611 678 L610 677 L609 676 L602 675 L602 675 L607 673 L616 674 L622 672 L622 662 L623 656 L627 656 L630 650 L628 646 L631 641 L632 635 L635 634 L635 634 L636 637 L639 645 L639 645 L640 646 L641 646 L642 646 L643 646 L645 647 L647 649 L648 650 L650 651 L651 651 L652 649 L652 649 L653 648 L654 647 L656 648 L657 649 L660 648 L661 648 L663 649 L663 650 L665 651 L669 651 L671 652 L673 653 L675 653 L676 653 L679 653 Z" fill="red" stroke="white" stroke-width="0.01">
 </path>
 <path d="M635 634 L632 635 L631 641 L628 646 L630 650 L627 656 L623 656 L622 662 L622 672 L616 674 L607 673 L602 675 L602 675 L591 673 L588 672 L569 664 L569 664 L569 664 L569 664 L569 664 L569 664 L574 664 L579 662 L582 660 L585 657 L588 654 L588 646 L590 634 L591 630 L592 622 L594 616 L603 607 L612 593 L620 585 L625 581 L625 581 L627 582 L628 586 L632 588 L632 592 L638 598 L631 602 L633 610 L638 615 L637 623 L636 628 L638 633 L635 634 Z" fill="red" stroke="white" stroke-width="0.01">
 </path>
 <path d="M633 530 L631 532 L627 532 L621 530 L610 533 L609 538 L608 545 L606 548 L601 552 L596 552 L592 549 L585 548 L585 548 L585 546 L589 543 L596 542 L599 539 L598 531 L598 528 L597 520 L590 514 L596 514 L601 507 L605 496 L601 489 L596 480 L593 471 L590 454 L589 454 L589 454 L594 452 L610 452 L610 452 L610 453 L611 456 L617 470 L619 471 L622 473 L625 475 L630 478 L643 482 L648 485 L648 485 L647 496 L639 508 L637 518 L634 526 L633 530 Z" fill="red" stroke="white" stroke-width="0.01">
 </path>
 <path d="M684 449 L681 449 L677 451 L673 454 L672 456 L668 458 L666 460 L666 463 L669 468 L670 471 L666 474 L661 477 L658 479 L654 480 L651 483 L651 486 L653 489 L660 492 L666 491 L671 493 L675 501 L676 502 L676 502 L679 505 L686 511 L694 518 L695 525 L696 530 L699 534 L703 540 L703 545 L703 549 L705 553 L706 557 L700 561 L700 561 L686 562 L679 563 L674 564 L671 565 L667 565 L663 568 L661 568 L658 567 L657 567 L656 567 L649 567 L642 568 L640 569 L640 569 L640 560 L643 554 L643 543 L641 535 L635 533 L634 530 L633 530 L633 530 L634 526 L637 518 L639 508 L647 496 L648 485 L648 485 L643 482 L630 478 L625 475 L622 473 L619 471 L617 470 L611 456 L610 453 L610 452 L610 452 L611 452 L612 452 L643 446 L667 443 L680 439 L680 439 L684 449 Z" fill="red" stroke="white" stroke-width="0.01">
 </path>
 <path d="M665 686 L664 690 L664 692 L663 697 L663 702 L662 709 L661 719 L659 724 L659 724 L657 726 L657 726 L656 725 L648 721 L636 719 L614 722 L601 716 L596 716 L589 712 L587 704 L583 701 L586 697 L590 694 L590 692 L593 688 L597 682 L602 675 L602 675 L609 676 L610 677 L611 678 L612 679 L615 679 L615 679 L616 679 L617 677 L619 677 L621 678 L624 680 L626 680 L628 678 L646 678 L647 678 L648 682 L657 685 L659 685 L665 686 Z" fill="red" stroke="white" stroke-width="0.01">
 </path>
 <path d="M176 362 L179 368 L187 368 L193 368 L199 370 L204 374 L206 376 L208 379 L211 383 L213 384 L216 388 L220 388 L223 394 L223 394 L224 395 L224 395 L224 406 L225 415 L225 418 L223 419 L223 419 L222 420 L222 421 L223 432 L226 440 L231 451 L237 458 L241 461 L253 465 L251 475 L251 482 L248 483 L248 483 L247 484 L243 494 L241 508 L241 508 L234 512 L220 517 L208 523 L194 528 L194 528 L189 526 L187 525 L185 522 L182 515 L181 514 L181 514 L181 514 L181 513 L180 513 L179 512 L179 512 L176 510 L176 510 L176 510 L176 510 L173 508 L173 508 L168 504 L165 500 L164 499 L160 495 L157 491 L156 487 L155 486 L155 484 L154 484 L154 482 L152 477 L153 473 L154 471 L155 469 L155 469 L156 466 L156 465 L156 464 L156 464 L156 463 L156 462 L156 461 L157 458 L158 456 L158 456 L159 454 L159 453 L159 453 L159 452 L159 451 L159 451 L159 450 L159 450 L159 450 L159 449 L159 448 L159 448 L159 448 L158 447 L158 447 L157 446 L155 444 L153 443 L150 442 L147 441 L145 440 L145 440 L139 439 L138 439 L137 438 L136 437 L135 435 L135 434 L135 434 L135 433 L135 433 L136 432 L136 431 L137 431 L139 430 L140 430 L141 429 L143 429 L149 428 L149 427 L150 427 L151 427 L151 427 L152 426 L152 425 L152 425 L152 425 L152 425 L152 424 L152 424 L152 423 L151 423 L151 423 L150 422 L150 422 L150 422 L147 421 L146 420 L145 420 L144 419 L142 417 L141 414 L140 412 L139 409 L138 406 L138 403 L138 402 L138 396 L138 394 L137 392 L137 392 L137 391 L137 390 L136 389 L133 386 L132 385 L123 375 L120 371 L116 367 L116 367 L115 365 L113 364 L112 363 L111 362 L111 361 L110 360 L111 356 L111 356 L112 352 L112 352 L112 350 L112 350 L112 350 L114 349 L119 346 L124 349 L125 353 L130 355 L136 352 L138 349 L142 346 L145 345 L148 345 L151 347 L156 347 L161 348 L164 350 L169 355 L172 359 L176 362 Z" fill="red" stroke="white" stroke-width="0.01">
 </path>
 <path d="M611 360 L621 364 L640 369 L652 369 L674 369 L674 369 L676 376 L677 381 L677 381 L677 382 L677 385 L679 388 L681 390 L684 392 L687 395 L688 402 L689 404 L691 407 L692 408 L694 412 L694 414 L694 416 L694 418 L697 425 L697 425 L693 427 L690 430 L687 431 L684 433 L683 438 L680 439 L680 439 L667 443 L643 446 L612 452 L611 452 L610 452 L610 452 L594 452 L589 454 L589 454 L580 457 L574 459 L574 459 L575 454 L574 354 L572 354 L572 354 L572 353 L591 355 L608 359 L611 360 Z" fill="red" stroke="white" stroke-width="0.01">
 </path>
 <path d="M1405 590 L1404 594 L1403 597 L1404 599 L1405 599 L1406 600 L1409 601 L1410 601 L1411 601 L1413 602 L1413 602 L1384 608 L1366 614 L1353 619 L1343 620 L1340 626 L1335 631 L1326 635 L1322 636 L1315 636 L1312 638 L1307 644 L1303 646 L1308 649 L1310 653 L1311 658 L1310 661 L1306 663 L1304 665 L1303 668 L1304 670 L1305 671 L1315 678 L1312 687 L1312 687 L1312 687 L1308 686 L1302 683 L1299 681 L1296 681 L1294 685 L1294 689 L1291 690 L1287 692 L1284 691 L1282 692 L1279 695 L1276 695 L1273 693 L1273 693 L1272 690 L1270 688 L1270 686 L1269 684 L1267 681 L1264 684 L1267 691 L1267 698 L1260 703 L1258 708 L1254 706 L1252 699 L1251 696 L1248 696 L1248 698 L1247 706 L1245 701 L1230 681 L1212 662 L1208 651 L1205 650 L1205 650 L1208 647 L1208 641 L1216 642 L1220 639 L1222 639 L1226 637 L1230 633 L1235 637 L1241 633 L1246 634 L1248 636 L1255 636 L1256 640 L1261 640 L1266 639 L1269 638 L1271 634 L1279 637 L1281 636 L1283 636 L1285 637 L1288 637 L1296 635 L1304 635 L1315 629 L1320 621 L1323 612 L1331 605 L1346 595 L1370 588 L1385 582 L1385 582 L1405 590 Z" fill="red" stroke="white" stroke-width="0.01">
 </path>
 <path d="M1026 320 L1024 331 L1022 335 L1015 338 L1010 341 L999 344 L993 357 L988 364 L985 370 L985 376 L985 376 L982 377 L982 377 L974 382 L971 383 L969 383 L965 380 L961 377 L961 377 L949 368 L943 365 L943 365 L948 341 L949 333 L945 327 L945 323 L943 318 L943 312 L943 305 L943 301 L943 297 L945 291 L945 291 L952 288 L965 286 L965 286 L968 293 L973 292 L980 295 L984 300 L990 299 L998 296 L1003 299 L1012 297 L1015 297 L1019 299 L1023 304 L1026 307 L1027 307 L1030 306 L1026 313 L1026 320 Z" fill="red" stroke="white" stroke-width="0.01">
 </path>
 <path d="M979 694 L981 698 L982 699 L984 700 L984 700 L987 701 L996 702 L1000 702 L1007 703 L1010 702 L1013 703 L1017 705 L1021 708 L1024 709 L1025 710 L1025 710 L1026 711 L1026 713 L1028 716 L1028 720 L1029 720 L1030 720 L1031 719 L1032 718 L1033 717 L1037 716 L1038 716 L1038 717 L1038 718 L1037 720 L1029 727 L1028 728 L1027 729 L1027 730 L1028 730 L1030 730 L1032 728 L1033 728 L1034 729 L1034 730 L1031 733 L1029 737 L1028 739 L1026 742 L1027 744 L1026 749 L1024 752 L1024 756 L1024 761 L1023 763 L1021 765 L1020 782 L1014 794 L1015 803 L1009 810 L1003 820 L1004 826 L1002 835 L998 842 L999 848 L996 857 L994 864 L992 874 L991 883 L989 889 L988 892 L991 896 L991 896 L984 897 L971 898 L960 904 L953 905 L942 906 L929 909 L912 916 L899 919 L888 922 L876 924 L869 925 L869 925 L869 921 L869 918 L870 916 L870 912 L870 908 L868 905 L866 902 L865 897 L864 895 L861 892 L860 889 L858 882 L856 877 L856 876 L855 875 L852 874 L852 874 L854 874 L856 873 L858 872 L859 870 L861 869 L862 869 L863 869 L866 867 L868 867 L869 866 L869 863 L868 860 L867 858 L866 856 L866 852 L865 848 L863 846 L863 842 L864 833 L862 829 L861 826 L860 824 L858 823 L857 822 L856 821 L857 820 L857 819 L859 819 L860 820 L862 820 L861 782 L861 773 L862 765 L865 762 L866 759 L865 751 L866 748 L868 743 L868 740 L866 736 L865 732 L865 730 L865 727 L867 724 L868 720 L868 720 L869 720 L876 719 L878 720 L885 725 L890 730 L892 733 L895 734 L899 734 L901 733 L902 734 L904 734 L905 733 L907 730 L901 729 L899 723 L902 721 L906 719 L912 718 L917 717 L921 715 L925 715 L928 714 L927 711 L927 707 L930 703 L933 698 L934 695 L935 693 L938 690 L938 687 L938 687 L937 681 L937 677 L933 669 L933 665 L927 665 L921 665 L917 664 L919 660 L920 657 L920 657 L929 659 L932 658 L935 656 L938 656 L940 658 L943 662 L947 666 L950 669 L951 673 L953 676 L961 680 L970 687 L975 690 L977 690 L978 692 L979 694 Z" fill="red" stroke="white" stroke-width="0.01">
 </path>
 <path d="M490 576 L492 577 L494 579 L505 586 L510 589 L513 589 L517 589 L515 593 L514 594 L514 596 L517 599 L529 610 L530 613 L530 614 L530 614 L530 614 L519 626 L515 631 L515 632 L514 633 L514 633 L469 628 L444 629 L428 630 L425 629 L423 629 L418 630 L417 630 L415 627 L412 624 L411 625 L410 626 L412 630 L412 631 L410 631 L408 631 L395 633 L389 634 L386 633 L383 632 L370 624 L360 620 L356 618 L355 616 L354 615 L352 614 L348 610 L346 608 L342 600 L337 596 L328 589 L324 585 L322 583 L316 578 L312 575 L312 573 L312 571 L316 557 L317 553 L329 535 L337 527 L339 525 L339 525 L339 525 L340 525 L340 525 L340 515 L340 515 L347 515 L357 520 L365 520 L372 525 L382 528 L392 532 L396 533 L398 537 L400 539 L400 536 L406 537 L414 546 L420 552 L424 552 L427 552 L431 554 L434 550 L440 553 L443 557 L446 564 L448 564 L452 565 L465 572 L490 576 Z" fill="red" stroke="white" stroke-width="0.01">
 </path>
 <path d="M524 352 L529 353 L539 353 L552 355 L572 354 L572 354 L574 354 L575 454 L574 459 L574 459 L567 467 L562 467 L552 464 L546 462 L542 460 L533 455 L532 458 L522 462 L520 467 L520 474 L520 474 L507 459 L507 459 L501 455 L497 453 L496 454 L492 457 L488 459 L488 459 L483 456 L477 455 L473 450 L465 448 L459 443 L454 439 L450 435 L442 431 L442 431 L437 424 L435 424 L432 424 L432 424 L431 419 L425 409 L420 402 L414 394 L407 388 L402 384 L402 378 L401 376 L401 371 L404 353 L399 347 L395 341 L395 341 L398 342 L403 345 L409 346 L418 346 L422 347 L426 347 L426 347 L458 350 L501 352 L524 352 Z" fill="red" stroke="white" stroke-width="0.01">
 </path>
 <path d="M1405 590 L1385 582 L1385 582 L1376 575 L1371 573 L1365 571 L1359 567 L1359 567 L1357 566 L1357 561 L1340 555 L1338 552 L1328 548 L1326 545 L1319 542 L1307 539 L1294 534 L1286 528 L1274 521 L1263 513 L1246 503 L1233 494 L1217 489 L1206 489 L1196 500 L1193 502 L1191 502 L1189 500 L1186 498 L1185 497 L1183 491 L1181 485 L1180 484 L1177 480 L1173 477 L1167 474 L1167 474 L1166 474 L1165 473 L1163 472 L1159 470 L1156 466 L1153 461 L1150 456 L1147 453 L1147 452 L1141 442 L1141 438 L1142 414 L1142 414 L1142 412 L1142 410 L1145 397 L1144 388 L1145 385 L1147 378 L1147 374 L1146 374 L1143 374 L1138 374 L1136 373 L1132 370 L1124 371 L1124 371 L1122 368 L1121 363 L1120 356 L1120 354 L1120 351 L1125 342 L1126 340 L1127 341 L1131 341 L1134 340 L1136 337 L1136 337 L1139 332 L1142 330 L1146 326 L1154 321 L1165 321 L1187 319 L1202 317 L1208 318 L1209 318 L1213 321 L1215 323 L1248 301 L1260 296 L1273 290 L1281 288 L1308 279 L1312 279 L1314 279 L1322 278 L1325 277 L1329 274 L1331 273 L1334 273 L1338 274 L1339 273 L1341 273 L1350 271 L1365 270 L1375 269 L1375 269 L1375 271 L1375 271 L1374 273 L1371 279 L1371 279 L1371 282 L1365 290 L1364 300 L1364 301 L1363 304 L1365 316 L1376 338 L1385 362 L1387 369 L1389 382 L1392 396 L1400 418 L1408 443 L1412 453 L1411 481 L1408 494 L1408 495 L1406 503 L1400 522 L1399 537 L1401 544 L1409 570 L1410 576 L1409 581 L1408 583 L1407 585 L1405 590 Z" fill="red" stroke="white" stroke-width="0.01">
 </path>
 <path d="M714 453 L710 457 L710 461 L706 464 L703 468 L701 474 L697 480 L694 480 L696 484 L695 485 L697 489 L697 492 L700 497 L700 501 L700 503 L700 503 L696 501 L692 498 L685 497 L680 498 L676 502 L676 502 L675 501 L671 493 L666 491 L660 492 L653 489 L651 486 L651 483 L654 480 L658 479 L661 477 L666 474 L670 471 L669 468 L666 463 L666 460 L668 458 L672 456 L673 454 L677 451 L681 449 L684 449 L684 449 L684 450 L690 450 L699 449 L702 449 L706 446 L712 444 L714 448 L714 453 Z" fill="red" stroke="white" stroke-width="0.01">
 </path>
 <path d="M287 519 L282 522 L275 530 L261 549 L260 552 L256 550 L253 550 L254 545 L251 538 L248 531 L245 525 L242 516 L241 508 L241 508 L243 494 L247 484 L248 483 L248 483 L252 489 L254 492 L258 494 L260 498 L257 504 L260 511 L269 510 L273 508 L283 511 L285 516 L287 519 Z" fill="red" stroke="white" stroke-width="0.01">
 </path>
 <path d="M772 337 L778 341 L779 340 L779 340 L779 339 L780 343 L782 344 L784 346 L785 348 L786 351 L786 354 L786 356 L787 357 L787 358 L788 360 L789 361 L789 363 L792 367 L800 369 L802 369 L811 369 L818 372 L823 372 L828 372 L834 370 L839 373 L842 380 L845 387 L845 387 L836 395 L833 403 L830 404 L827 409 L821 417 L821 417 L817 415 L813 416 L810 418 L805 416 L802 413 L795 408 L793 406 L793 402 L793 402 L793 401 L791 399 L791 398 L790 397 L789 394 L789 394 L788 391 L784 392 L783 388 L779 383 L773 380 L770 380 L766 381 L766 381 L765 379 L768 373 L768 368 L771 365 L766 360 L764 353 L759 346 L756 337 L756 337 L766 337 L772 337 Z" fill="red" stroke="white" stroke-width="0.01">
 </path>
 <path d="M943 365 L949 368 L961 377 L961 377 L960 380 L960 386 L958 392 L958 396 L960 401 L959 404 L960 408 L962 412 L960 417 L959 422 L962 425 L964 430 L966 438 L967 444 L968 450 L970 454 L970 454 L961 456 L951 457 L940 458 L935 458 L931 457 L923 457 L920 456 L897 413 L894 407 L894 406 L894 403 L894 401 L894 399 L894 397 L894 394 L892 392 L890 391 L890 391 L889 390 L889 389 L888 388 L888 386 L887 385 L886 384 L885 384 L885 383 L876 362 L874 363 L874 363 L874 357 L874 357 L885 355 L886 355 L898 354 L905 354 L909 354 L909 354 L922 357 L931 359 L936 361 L938 362 L943 365 Z" fill="red" stroke="white" stroke-width="0.01">
 </path>
 <path d="M847 573 L845 577 L843 580 L843 583 L846 584 L846 589 L851 592 L854 594 L856 597 L862 596 L872 599 L874 602 L879 607 L880 612 L881 619 L881 619 L875 614 L872 612 L869 611 L854 610 L850 609 L844 607 L840 606 L836 606 L828 607 L822 608 L814 608 L812 608 L811 608 L811 608 L812 600 L816 598 L820 593 L822 587 L825 584 L830 581 L830 581 L833 576 L840 570 L842 570 L847 573 Z" fill="red" stroke="white" stroke-width="0.01">
 </path>
 <path d="M649 820 L646 828 L643 834 L642 843 L640 847 L638 854 L638 855 L638 857 L638 857 L634 857 L631 856 L628 856 L621 855 L618 856 L616 856 L614 858 L612 860 L609 861 L597 862 L577 863 L577 863 L575 842 L576 829 L575 828 L575 828 L578 827 L581 825 L584 820 L586 819 L593 811 L593 811 L595 812 L601 814 L608 817 L617 817 L624 821 L626 821 L629 820 L637 823 L649 820 Z" fill="red" stroke="white" stroke-width="0.01">
 </path>
 <path d="M757 431 L753 431 L751 435 L751 440 L754 439 L754 444 L747 449 L744 453 L740 459 L733 462 L729 463 L729 468 L728 468 L724 468 L723 469 L721 469 L719 469 L719 470 L719 475 L719 480 L720 483 L720 486 L720 490 L721 495 L721 495 L720 501 L720 501 L720 503 L720 505 L723 508 L725 514 L717 514 L709 514 L702 514 L701 512 L700 508 L699 505 L700 503 L700 503 L700 501 L700 497 L697 492 L697 489 L695 485 L696 484 L694 480 L697 480 L701 474 L703 468 L706 464 L710 461 L710 457 L714 453 L714 453 L717 451 L718 445 L720 440 L724 436 L729 432 L730 428 L737 429 L741 427 L749 427 L753 427 L757 431 Z" fill="red" stroke="white" stroke-width="0.01">
 </path>
 <path d="M286 285 L288 291 L294 300 L298 311 L302 319 L302 319 L299 320 L296 328 L294 336 L294 341 L292 343 L292 343 L289 346 L282 349 L273 351 L264 351 L260 350 L253 353 L245 358 L234 360 L230 368 L227 365 L225 360 L218 352 L215 347 L206 354 L199 349 L194 344 L191 337 L188 329 L185 324 L184 319 L182 315 L179 308 L174 305 L174 302 L174 302 L184 299 L186 298 L191 297 L194 299 L200 299 L200 299 L202 305 L207 308 L214 309 L220 304 L220 302 L216 290 L215 289 L223 288 L227 289 L234 289 L244 289 L245 287 L249 289 L253 291 L257 293 L260 297 L263 301 L265 305 L269 308 L274 306 L274 300 L276 294 L274 289 L274 282 L286 285 Z" fill="red" stroke="white" stroke-width="0.01">
 </path>
 <path d="M395 341 L399 347 L404 353 L401 371 L401 376 L402 378 L402 384 L407 388 L414 394 L420 402 L425 409 L431 419 L432 424 L432 424 L427 421 L417 418 L410 418 L400 411 L394 411 L389 409 L385 406 L382 408 L379 415 L371 411 L363 411 L355 412 L356 415 L352 413 L350 419 L350 425 L350 432 L350 432 L342 432 L338 429 L337 423 L334 418 L329 412 L325 407 L322 405 L319 403 L319 398 L312 395 L308 390 L307 386 L303 383 L303 383 L303 373 L300 367 L295 370 L289 372 L289 372 L293 365 L293 353 L292 343 L292 343 L294 341 L294 336 L296 328 L299 320 L302 319 L302 319 L305 325 L308 329 L315 329 L323 329 L324 327 L326 327 L339 325 L344 325 L348 325 L351 326 L355 328 L362 332 L365 333 L371 335 L375 337 L377 338 L383 339 L386 340 L389 341 L392 341 L395 341 Z" fill="red" stroke="white" stroke-width="0.01">
 </path>
 <path d="M165 305 L162 309 L156 310 L160 318 L162 322 L165 327 L169 333 L172 340 L174 349 L176 356 L176 362 L176 362 L172 359 L169 355 L164 350 L161 348 L156 347 L151 347 L148 345 L145 345 L142 346 L138 349 L136 352 L130 355 L125 353 L124 349 L119 346 L114 349 L112 350 L112 350 L112 349 L111 349 L111 349 L111 348 L109 347 L109 347 L107 346 L103 344 L99 337 L98 336 L98 336 L96 334 L95 334 L94 332 L89 325 L86 324 L85 324 L85 324 L84 324 L82 324 L80 324 L80 324 L80 324 L80 323 L79 322 L78 321 L78 320 L78 320 L76 319 L75 319 L75 320 L75 320 L75 320 L75 320 L76 316 L79 310 L83 307 L84 303 L90 301 L90 296 L87 293 L86 291 L88 287 L88 287 L93 287 L99 286 L99 286 L106 285 L106 285 L111 289 L117 290 L122 290 L130 296 L135 298 L140 293 L151 292 L153 295 L159 299 L165 305 Z" fill="red" stroke="white" stroke-width="0.01">
 </path>
 <path d="M817 508 L815 511 L812 520 L808 528 L806 532 L803 536 L800 539 L800 540 L799 542 L801 545 L801 548 L806 551 L807 557 L808 561 L812 567 L816 572 L822 574 L825 578 L830 581 L830 581 L825 584 L822 587 L820 593 L816 598 L812 600 L811 608 L811 608 L810 608 L810 608 L808 608 L803 607 L799 605 L789 589 L782 585 L781 584 L781 584 L781 582 L781 582 L781 580 L781 580 L781 579 L779 576 L777 572 L775 566 L774 552 L774 537 L774 537 L774 533 L776 523 L780 516 L780 516 L787 510 L790 506 L793 504 L795 502 L797 501 L799 500 L803 495 L803 495 L806 497 L810 499 L812 503 L813 506 L814 508 L817 508 Z" fill="red" stroke="white" stroke-width="0.01">
 </path>
 <path d="M1051 614 L1047 619 L1042 626 L1037 632 L1032 638 L1028 642 L1022 646 L1014 657 L1012 663 L1008 669 L1004 672 L1001 675 L998 680 L995 683 L992 689 L985 693 L979 694 L979 694 L978 692 L977 690 L975 690 L970 687 L961 680 L953 676 L951 673 L950 669 L947 666 L943 662 L940 658 L938 656 L935 656 L932 658 L929 659 L920 657 L920 657 L920 657 L907 654 L904 652 L904 652 L901 649 L901 649 L901 649 L890 636 L889 634 L887 630 L887 630 L894 628 L895 628 L898 626 L900 622 L902 618 L902 618 L903 614 L905 612 L913 601 L915 600 L917 599 L917 598 L917 597 L915 593 L916 592 L918 592 L926 585 L929 580 L926 576 L923 572 L920 570 L919 565 L926 566 L932 569 L934 566 L934 566 L935 564 L938 565 L946 569 L954 574 L956 570 L958 568 L959 567 L961 566 L962 567 L965 567 L967 567 L971 568 L973 570 L973 571 L974 574 L988 578 L1005 584 L1008 584 L1010 583 L1012 583 L1014 585 L1015 593 L1015 594 L1015 597 L1017 599 L1024 603 L1026 604 L1029 606 L1032 609 L1036 612 L1051 614 Z" fill="red" stroke="white" stroke-width="0.01">
 </path>
 <path d="M493 863 L486 864 L480 865 L473 864 L466 861 L461 860 L459 860 L455 861 L453 863 L449 864 L445 865 L437 870 L434 874 L434 877 L437 883 L437 885 L440 890 L438 896 L434 902 L431 906 L432 910 L432 916 L435 922 L437 931 L437 937 L437 941 L433 944 L424 946 L415 950 L409 955 L404 959 L399 962 L396 963 L393 963 L391 962 L387 960 L387 960 L380 955 L376 951 L374 948 L371 944 L370 943 L368 943 L369 937 L370 929 L369 926 L369 924 L369 924 L369 921 L369 917 L370 915 L369 913 L369 912 L368 910 L367 907 L367 904 L367 902 L367 900 L366 896 L366 895 L365 894 L365 892 L366 891 L366 891 L366 891 L367 890 L367 890 L368 889 L369 888 L369 888 L370 887 L371 886 L371 886 L372 885 L372 883 L372 882 L372 881 L372 880 L372 880 L372 880 L373 879 L373 878 L373 877 L373 877 L374 874 L374 874 L375 874 L375 873 L375 873 L375 872 L376 871 L376 868 L376 867 L377 865 L377 865 L379 863 L380 862 L380 860 L381 857 L382 857 L384 855 L384 855 L385 854 L386 853 L388 850 L392 846 L398 840 L399 839 L401 837 L406 834 L410 832 L410 832 L412 832 L413 831 L415 830 L415 831 L417 831 L419 831 L419 831 L420 830 L421 827 L421 826 L422 826 L425 826 L432 826 L435 825 L436 823 L438 821 L439 819 L439 819 L443 824 L447 828 L458 839 L476 853 L493 863 Z" fill="red" stroke="white" stroke-width="0.01">
 </path>
</svg>